%TF.GenerationSoftware,KiCad,Pcbnew,7.0.10*%
%TF.CreationDate,2024-02-11T00:06:51+01:00*%
%TF.ProjectId,ICOM-Internal-modules,49434f4d-2d49-46e7-9465-726e616c2d6d,rev?*%
%TF.SameCoordinates,Original*%
%TF.FileFunction,Copper,L2,Bot*%
%TF.FilePolarity,Positive*%
%FSLAX46Y46*%
G04 Gerber Fmt 4.6, Leading zero omitted, Abs format (unit mm)*
G04 Created by KiCad (PCBNEW 7.0.10) date 2024-02-11 00:06:51*
%MOMM*%
%LPD*%
G01*
G04 APERTURE LIST*
%TA.AperFunction,ComponentPad*%
%ADD10R,1.700000X1.700000*%
%TD*%
%TA.AperFunction,ComponentPad*%
%ADD11O,1.700000X1.700000*%
%TD*%
%TA.AperFunction,ViaPad*%
%ADD12C,0.800000*%
%TD*%
%TA.AperFunction,Conductor*%
%ADD13C,0.250000*%
%TD*%
G04 APERTURE END LIST*
D10*
%TO.P,J2,1*%
%TO.N,Net-(J1-Pad1)*%
X69850000Y-55880000D03*
D11*
%TO.P,J2,2*%
%TO.N,Net-(J1-Pad3)*%
X69850000Y-58420000D03*
%TO.P,J2,3*%
%TO.N,Net-(J1-Pad5)*%
X69850000Y-60960000D03*
%TO.P,J2,4*%
%TO.N,Net-(J1-Pad7)*%
X69850000Y-63500000D03*
%TO.P,J2,5*%
%TO.N,Net-(J1-Pad9)*%
X69850000Y-66040000D03*
%TO.P,J2,6*%
%TO.N,Net-(J1-Pad11)*%
X69850000Y-68580000D03*
%TO.P,J2,7*%
%TO.N,Net-(J1-Pad13)*%
X69850000Y-71120000D03*
%TO.P,J2,8*%
%TO.N,Net-(J1-Pad15)*%
X69850000Y-73660000D03*
%TO.P,J2,9*%
%TO.N,Net-(J1-Pad17)*%
X69850000Y-76200000D03*
%TO.P,J2,10*%
%TO.N,Net-(J1-Pad19)*%
X69850000Y-78740000D03*
%TD*%
D10*
%TO.P,J4,1*%
%TO.N,Net-(J1-Pad2)*%
X82550000Y-78740000D03*
D11*
%TO.P,J4,2*%
%TO.N,Net-(J1-Pad4)*%
X82550000Y-76200000D03*
%TO.P,J4,3*%
%TO.N,Net-(J1-Pad6)*%
X82550000Y-73660000D03*
%TO.P,J4,4*%
%TO.N,Net-(J1-Pad8)*%
X82550000Y-71120000D03*
%TO.P,J4,5*%
%TO.N,Net-(J1-Pad10)*%
X82550000Y-68580000D03*
%TO.P,J4,6*%
%TO.N,Net-(J1-Pad12)*%
X82550000Y-66040000D03*
%TO.P,J4,7*%
%TO.N,Net-(J1-Pad14)*%
X82550000Y-63500000D03*
%TO.P,J4,8*%
%TO.N,Net-(J1-Pad16)*%
X82550000Y-60960000D03*
%TO.P,J4,9*%
%TO.N,Net-(J1-Pad18)*%
X82550000Y-58420000D03*
%TO.P,J4,10*%
%TO.N,Net-(J1-Pad20)*%
X82550000Y-55880000D03*
%TD*%
D10*
%TO.P,J3,1*%
%TO.N,Net-(J1-Pad21)*%
X76200000Y-55880000D03*
D11*
%TO.P,J3,2*%
%TO.N,Net-(J1-Pad23)*%
X76200000Y-58420000D03*
%TO.P,J3,3*%
%TO.N,Net-(J1-Pad25)*%
X76200000Y-60960000D03*
%TO.P,J3,4*%
%TO.N,Net-(J1-Pad27)*%
X76200000Y-63500000D03*
%TO.P,J3,5*%
%TO.N,Net-(J1-Pad29)*%
X76200000Y-66040000D03*
%TO.P,J3,6*%
%TO.N,Net-(J1-Pad31)*%
X76200000Y-68580000D03*
%TO.P,J3,7*%
%TO.N,Net-(J1-Pad33)*%
X76200000Y-71120000D03*
%TO.P,J3,8*%
%TO.N,Net-(J1-Pad35)*%
X76200000Y-73660000D03*
%TO.P,J3,9*%
%TO.N,Net-(J1-Pad37)*%
X76200000Y-76200000D03*
%TO.P,J3,10*%
%TO.N,Net-(J1-Pad39)*%
X76200000Y-78740000D03*
%TD*%
D10*
%TO.P,J7,1*%
%TO.N,Net-(J6-Pad10)*%
X99568000Y-52557600D03*
D11*
%TO.P,J7,2*%
%TO.N,Net-(J6-Pad9)*%
X97028000Y-52557600D03*
%TO.P,J7,3*%
%TO.N,Net-(J6-Pad8)*%
X99568000Y-55097600D03*
%TO.P,J7,4*%
%TO.N,Net-(J6-Pad7)*%
X97028000Y-55097600D03*
%TO.P,J7,5*%
%TO.N,Net-(J6-Pad6)*%
X99568000Y-57637600D03*
%TO.P,J7,6*%
%TO.N,Net-(J6-Pad5)*%
X97028000Y-57637600D03*
%TO.P,J7,7*%
%TO.N,Net-(J6-Pad4)*%
X99568000Y-60177600D03*
%TO.P,J7,8*%
%TO.N,Net-(J6-Pad3)*%
X97028000Y-60177600D03*
%TO.P,J7,9*%
%TO.N,Net-(J6-Pad2)*%
X99568000Y-62717600D03*
%TO.P,J7,10*%
%TO.N,Net-(J6-Pad1)*%
X97028000Y-62717600D03*
%TD*%
D10*
%TO.P,J5,1*%
%TO.N,Net-(J1-Pad22)*%
X88900000Y-78740000D03*
D11*
%TO.P,J5,2*%
%TO.N,Net-(J1-Pad24)*%
X88900000Y-76200000D03*
%TO.P,J5,3*%
%TO.N,Net-(J1-Pad26)*%
X88900000Y-73660000D03*
%TO.P,J5,4*%
%TO.N,Net-(J1-Pad28)*%
X88900000Y-71120000D03*
%TO.P,J5,5*%
%TO.N,Net-(J1-Pad30)*%
X88900000Y-68580000D03*
%TO.P,J5,6*%
%TO.N,Net-(J1-Pad32)*%
X88900000Y-66040000D03*
%TO.P,J5,7*%
%TO.N,Net-(J1-Pad34)*%
X88900000Y-63500000D03*
%TO.P,J5,8*%
%TO.N,Net-(J1-Pad36)*%
X88900000Y-60960000D03*
%TO.P,J5,9*%
%TO.N,Net-(J1-Pad38)*%
X88900000Y-58420000D03*
%TO.P,J5,10*%
%TO.N,Net-(J1-Pad40)*%
X88900000Y-55880000D03*
%TD*%
D12*
%TO.N,Net-(J1-Pad2)*%
X72208000Y-40182000D03*
%TO.N,Net-(J1-Pad4)*%
X72958000Y-39432000D03*
%TO.N,Net-(J1-Pad6)*%
X73708000Y-40182000D03*
%TO.N,Net-(J1-Pad8)*%
X74458000Y-39432000D03*
%TO.N,Net-(J1-Pad10)*%
X75208000Y-40182000D03*
%TO.N,Net-(J1-Pad12)*%
X75958000Y-39436423D03*
%TO.N,Net-(J1-Pad14)*%
X76708000Y-40182000D03*
%TO.N,Net-(J1-Pad16)*%
X77458000Y-39432000D03*
%TO.N,Net-(J1-Pad18)*%
X78208000Y-40182000D03*
%TO.N,Net-(J1-Pad20)*%
X78958000Y-39432000D03*
%TO.N,Net-(J1-Pad22)*%
X79708000Y-40182000D03*
%TO.N,Net-(J1-Pad24)*%
X80458000Y-39432000D03*
%TO.N,Net-(J1-Pad26)*%
X81208000Y-40182000D03*
%TO.N,Net-(J1-Pad28)*%
X81958000Y-39432000D03*
%TO.N,Net-(J1-Pad30)*%
X82708000Y-40182000D03*
%TO.N,Net-(J1-Pad32)*%
X83458000Y-39432000D03*
%TO.N,Net-(J1-Pad34)*%
X84208000Y-40182000D03*
%TO.N,Net-(J1-Pad36)*%
X84958000Y-39432000D03*
%TO.N,Net-(J1-Pad38)*%
X85708000Y-40182000D03*
%TO.N,Net-(J1-Pad40)*%
X86458000Y-39432000D03*
%TD*%
D13*
%TO.N,Net-(J1-Pad2)*%
X77597000Y-73787000D02*
X77597000Y-45743400D01*
X77597000Y-45743400D02*
X72208000Y-40354400D01*
X72208000Y-40354400D02*
X72208000Y-40182000D01*
X82550000Y-78740000D02*
X77597000Y-73787000D01*
%TO.N,Net-(J1-Pad4)*%
X78047000Y-71697000D02*
X82550000Y-76200000D01*
X72958000Y-39432000D02*
X72958000Y-40468004D01*
X78047000Y-45557004D02*
X78047000Y-71697000D01*
X72958000Y-40468004D02*
X78047000Y-45557004D01*
%TO.N,Net-(J1-Pad6)*%
X78497000Y-45370608D02*
X73708000Y-40581608D01*
X73708000Y-40581608D02*
X73708000Y-40182000D01*
X82550000Y-73660000D02*
X78497000Y-69607000D01*
X78497000Y-69607000D02*
X78497000Y-45370608D01*
%TO.N,Net-(J1-Pad8)*%
X74458000Y-39432000D02*
X74458000Y-40695212D01*
X74458000Y-40695212D02*
X78947000Y-45184212D01*
X78947000Y-45184212D02*
X78947000Y-67517000D01*
X78947000Y-67517000D02*
X82550000Y-71120000D01*
%TO.N,Net-(J1-Pad10)*%
X79397000Y-65427000D02*
X79397000Y-44997816D01*
X75208000Y-40808816D02*
X75208000Y-40182000D01*
X82550000Y-68580000D02*
X79397000Y-65427000D01*
X79397000Y-44997816D02*
X75208000Y-40808816D01*
%TO.N,Net-(J1-Pad12)*%
X75958000Y-40922420D02*
X79847000Y-44811420D01*
X79847000Y-63337000D02*
X82550000Y-66040000D01*
X75958000Y-39436423D02*
X75958000Y-40922420D01*
X79847000Y-44811420D02*
X79847000Y-63337000D01*
%TO.N,Net-(J1-Pad14)*%
X80297000Y-44625024D02*
X76708000Y-41036024D01*
X80297000Y-61247000D02*
X80297000Y-44625024D01*
X82550000Y-63500000D02*
X80297000Y-61247000D01*
X76708000Y-41036024D02*
X76708000Y-40182000D01*
%TO.N,Net-(J1-Pad16)*%
X77458000Y-39432000D02*
X77458000Y-41149628D01*
X80747000Y-44438628D02*
X80747000Y-59157000D01*
X77458000Y-41149628D02*
X80747000Y-44438628D01*
X80747000Y-59157000D02*
X82550000Y-60960000D01*
%TO.N,Net-(J1-Pad18)*%
X78208000Y-41263232D02*
X78208000Y-40182000D01*
X82550000Y-58420000D02*
X81197000Y-57067000D01*
X81197000Y-57067000D02*
X81197000Y-44252232D01*
X81197000Y-44252232D02*
X78208000Y-41263232D01*
%TO.N,Net-(J1-Pad20)*%
X78933000Y-39457000D02*
X78958000Y-39432000D01*
X78933000Y-41351836D02*
X78933000Y-39457000D01*
X78933000Y-41351836D02*
X81647000Y-44065836D01*
X81647000Y-44065836D02*
X81647000Y-54977000D01*
X82550000Y-55880000D02*
X81647000Y-54977000D01*
%TO.N,Net-(J1-Pad22)*%
X79708000Y-41490440D02*
X79708000Y-40182000D01*
X88900000Y-78740000D02*
X83921600Y-73761600D01*
X83921600Y-73761600D02*
X83921600Y-45704040D01*
X83921600Y-45704040D02*
X79708000Y-41490440D01*
%TO.N,Net-(J1-Pad24)*%
X88900000Y-76200000D02*
X84371600Y-71671600D01*
X80458000Y-41604044D02*
X84371600Y-45517644D01*
X84371600Y-45517644D02*
X84371600Y-71671600D01*
X80458000Y-41604044D02*
X80458000Y-39432000D01*
%TO.N,Net-(J1-Pad26)*%
X81208000Y-40182000D02*
X81208000Y-41717648D01*
X84821600Y-45331248D02*
X81208000Y-41717648D01*
X84821600Y-69581600D02*
X88900000Y-73660000D01*
X84821600Y-69581600D02*
X84821600Y-45331248D01*
%TO.N,Net-(J1-Pad28)*%
X81958000Y-39432000D02*
X81958000Y-41831252D01*
X85271600Y-45144852D02*
X85271600Y-67491600D01*
X85271600Y-67491600D02*
X88900000Y-71120000D01*
X81958000Y-41831252D02*
X85271600Y-45144852D01*
%TO.N,Net-(J1-Pad30)*%
X82708000Y-40182000D02*
X82708000Y-41944856D01*
X85721600Y-65401600D02*
X88900000Y-68580000D01*
X85721600Y-44958456D02*
X82708000Y-41944856D01*
X85721600Y-65401600D02*
X85721600Y-44958456D01*
%TO.N,Net-(J1-Pad32)*%
X83458000Y-42058460D02*
X86171600Y-44772060D01*
X88900000Y-66040000D02*
X86171600Y-63311600D01*
X86171600Y-44772060D02*
X86171600Y-63311600D01*
X83458000Y-42058460D02*
X83458000Y-39432000D01*
%TO.N,Net-(J1-Pad34)*%
X86621600Y-61221600D02*
X86621600Y-44585664D01*
X84208000Y-40182000D02*
X84208000Y-42172064D01*
X86621600Y-61221600D02*
X88900000Y-63500000D01*
X86621600Y-44585664D02*
X84208000Y-42172064D01*
%TO.N,Net-(J1-Pad36)*%
X84983000Y-39457000D02*
X84983000Y-42310668D01*
X87071600Y-44399268D02*
X87071600Y-59131600D01*
X87071600Y-59131600D02*
X88900000Y-60960000D01*
X84983000Y-42310668D02*
X87071600Y-44399268D01*
X84958000Y-39432000D02*
X84983000Y-39457000D01*
%TO.N,Net-(J1-Pad38)*%
X87521600Y-57041600D02*
X88900000Y-58420000D01*
X87521600Y-44212872D02*
X85708000Y-42399272D01*
X85708000Y-40182000D02*
X85708000Y-42399272D01*
X87521600Y-57041600D02*
X87521600Y-44212872D01*
%TO.N,Net-(J1-Pad40)*%
X86458000Y-42512876D02*
X87971600Y-44026476D01*
X86458000Y-42512876D02*
X86458000Y-39432000D01*
X88900000Y-55880000D02*
X87971600Y-54951600D01*
X87971600Y-44026476D02*
X87971600Y-54951600D01*
%TD*%
%TA.AperFunction,NonConductor*%
G36*
X92911825Y-42472040D02*
G01*
X92961784Y-42520885D01*
X92972606Y-42546600D01*
X93000045Y-42640051D01*
X93062968Y-42737961D01*
X93082652Y-42805001D01*
X93062968Y-42872039D01*
X93000045Y-42969949D01*
X92959500Y-43108036D01*
X92959500Y-43251963D01*
X93000045Y-43390050D01*
X93062968Y-43487961D01*
X93082652Y-43555001D01*
X93062968Y-43622039D01*
X93000045Y-43719949D01*
X92972606Y-43813399D01*
X92934831Y-43872177D01*
X92871275Y-43901202D01*
X92843390Y-43902041D01*
X92768897Y-43895868D01*
X92710000Y-43890988D01*
X92709999Y-43890988D01*
X92576609Y-43902041D01*
X92508173Y-43887959D01*
X92458214Y-43839114D01*
X92447393Y-43813398D01*
X92419954Y-43719949D01*
X92419953Y-43719948D01*
X92419953Y-43719947D01*
X92357031Y-43622039D01*
X92337347Y-43555000D01*
X92357032Y-43487961D01*
X92357032Y-43487960D01*
X92419953Y-43390053D01*
X92460500Y-43251961D01*
X92460500Y-43108039D01*
X92419953Y-42969947D01*
X92357031Y-42872039D01*
X92337347Y-42805000D01*
X92357032Y-42737961D01*
X92357032Y-42737960D01*
X92419953Y-42640053D01*
X92447393Y-42546601D01*
X92485167Y-42487823D01*
X92548722Y-42458797D01*
X92576610Y-42457959D01*
X92709994Y-42469012D01*
X92710000Y-42469012D01*
X92710006Y-42469012D01*
X92843389Y-42457959D01*
X92911825Y-42472040D01*
G37*
%TD.AperFunction*%
%TA.AperFunction,NonConductor*%
G36*
X82477703Y-45145179D02*
G01*
X82484181Y-45151211D01*
X83259781Y-45926811D01*
X83293266Y-45988134D01*
X83296100Y-46014492D01*
X83296100Y-54543158D01*
X83276415Y-54610197D01*
X83223611Y-54655952D01*
X83154453Y-54665896D01*
X83119696Y-54655540D01*
X83013669Y-54606099D01*
X83013655Y-54606094D01*
X82785413Y-54544938D01*
X82785403Y-54544936D01*
X82550001Y-54524341D01*
X82549998Y-54524341D01*
X82407307Y-54536825D01*
X82338807Y-54523058D01*
X82288624Y-54474443D01*
X82272500Y-54413297D01*
X82272500Y-45238892D01*
X82292185Y-45171853D01*
X82344989Y-45126098D01*
X82414147Y-45116154D01*
X82477703Y-45145179D01*
G37*
%TD.AperFunction*%
%TA.AperFunction,NonConductor*%
G36*
X87452303Y-60397339D02*
G01*
X87458781Y-60403371D01*
X87559762Y-60504352D01*
X87593247Y-60565675D01*
X87591856Y-60624126D01*
X87564938Y-60724586D01*
X87564936Y-60724596D01*
X87544341Y-60959999D01*
X87544341Y-60960388D01*
X87544292Y-60960553D01*
X87543869Y-60965394D01*
X87542896Y-60965308D01*
X87524656Y-61027427D01*
X87471852Y-61073182D01*
X87402694Y-61083126D01*
X87339138Y-61054101D01*
X87332660Y-61048069D01*
X87283419Y-60998828D01*
X87249934Y-60937505D01*
X87247100Y-60911147D01*
X87247100Y-60491052D01*
X87266785Y-60424013D01*
X87319589Y-60378258D01*
X87388747Y-60368314D01*
X87452303Y-60397339D01*
G37*
%TD.AperFunction*%
%TA.AperFunction,NonConductor*%
G36*
X81127703Y-60422739D02*
G01*
X81134181Y-60428771D01*
X81209762Y-60504352D01*
X81243247Y-60565675D01*
X81241856Y-60624126D01*
X81214938Y-60724586D01*
X81214936Y-60724596D01*
X81194341Y-60959999D01*
X81194341Y-60960388D01*
X81194292Y-60960553D01*
X81193869Y-60965394D01*
X81192896Y-60965308D01*
X81174656Y-61027427D01*
X81121852Y-61073182D01*
X81052694Y-61083126D01*
X80989138Y-61054101D01*
X80982660Y-61048069D01*
X80958819Y-61024228D01*
X80925334Y-60962905D01*
X80922500Y-60936547D01*
X80922500Y-60516452D01*
X80942185Y-60449413D01*
X80994989Y-60403658D01*
X81064147Y-60393714D01*
X81127703Y-60422739D01*
G37*
%TD.AperFunction*%
%TA.AperFunction,NonConductor*%
G36*
X87002303Y-62487339D02*
G01*
X87008781Y-62493371D01*
X87559762Y-63044352D01*
X87593247Y-63105675D01*
X87591856Y-63164126D01*
X87564938Y-63264586D01*
X87564936Y-63264596D01*
X87544341Y-63499999D01*
X87544341Y-63500388D01*
X87544292Y-63500553D01*
X87543869Y-63505394D01*
X87542896Y-63505308D01*
X87524656Y-63567427D01*
X87471852Y-63613182D01*
X87402694Y-63623126D01*
X87339138Y-63594101D01*
X87332660Y-63588069D01*
X86833419Y-63088828D01*
X86799934Y-63027505D01*
X86797100Y-63001147D01*
X86797100Y-62581052D01*
X86816785Y-62514013D01*
X86869589Y-62468258D01*
X86938747Y-62458314D01*
X87002303Y-62487339D01*
G37*
%TD.AperFunction*%
%TA.AperFunction,NonConductor*%
G36*
X80677703Y-62512739D02*
G01*
X80684181Y-62518771D01*
X81209762Y-63044352D01*
X81243247Y-63105675D01*
X81241856Y-63164126D01*
X81214938Y-63264586D01*
X81214936Y-63264596D01*
X81194341Y-63499999D01*
X81194341Y-63500388D01*
X81194292Y-63500553D01*
X81193869Y-63505394D01*
X81192896Y-63505308D01*
X81174656Y-63567427D01*
X81121852Y-63613182D01*
X81052694Y-63623126D01*
X80989138Y-63594101D01*
X80982660Y-63588069D01*
X80508819Y-63114228D01*
X80475334Y-63052905D01*
X80472500Y-63026547D01*
X80472500Y-62606452D01*
X80492185Y-62539413D01*
X80544989Y-62493658D01*
X80614147Y-62483714D01*
X80677703Y-62512739D01*
G37*
%TD.AperFunction*%
%TA.AperFunction,NonConductor*%
G36*
X92599268Y-62779836D02*
G01*
X92709994Y-62789012D01*
X92710000Y-62789012D01*
X92710006Y-62789012D01*
X92831674Y-62778930D01*
X92900110Y-62793011D01*
X92950069Y-62841856D01*
X92960891Y-62867571D01*
X92988045Y-62960051D01*
X93050968Y-63057961D01*
X93070652Y-63125001D01*
X93050968Y-63192039D01*
X92988045Y-63289949D01*
X92947500Y-63428036D01*
X92947500Y-63571963D01*
X92988045Y-63710050D01*
X93050968Y-63807961D01*
X93070652Y-63875001D01*
X93050968Y-63942039D01*
X92988046Y-64039948D01*
X92960891Y-64132429D01*
X92923116Y-64191206D01*
X92859560Y-64220231D01*
X92831675Y-64221070D01*
X92774772Y-64216355D01*
X92710000Y-64210988D01*
X92709997Y-64210988D01*
X92709995Y-64210988D01*
X92709994Y-64210988D01*
X92564895Y-64223011D01*
X92496459Y-64208930D01*
X92446500Y-64160085D01*
X92435678Y-64134369D01*
X92407954Y-64039949D01*
X92407953Y-64039948D01*
X92407953Y-64039947D01*
X92345031Y-63942039D01*
X92325347Y-63875000D01*
X92345032Y-63807961D01*
X92345032Y-63807960D01*
X92407953Y-63710053D01*
X92448500Y-63571961D01*
X92448500Y-63428039D01*
X92435612Y-63384146D01*
X92407954Y-63289949D01*
X92407953Y-63289948D01*
X92407953Y-63289947D01*
X92345031Y-63192039D01*
X92325347Y-63125000D01*
X92345032Y-63057961D01*
X92345032Y-63057960D01*
X92353777Y-63044352D01*
X92407953Y-62960053D01*
X92435678Y-62865630D01*
X92473452Y-62806852D01*
X92537007Y-62777826D01*
X92564893Y-62776988D01*
X92599268Y-62779836D01*
G37*
%TD.AperFunction*%
%TA.AperFunction,NonConductor*%
G36*
X102766539Y-38674185D02*
G01*
X102812294Y-38726989D01*
X102823500Y-38778500D01*
X102823500Y-65107500D01*
X102803815Y-65174539D01*
X102751011Y-65220294D01*
X102699500Y-65231500D01*
X94087291Y-65231500D01*
X94020252Y-65211815D01*
X93974497Y-65159011D01*
X93970010Y-65147763D01*
X93919799Y-65001505D01*
X93919748Y-65001356D01*
X93815907Y-64809475D01*
X93815904Y-64809471D01*
X93815901Y-64809466D01*
X93787755Y-64773304D01*
X93762112Y-64708310D01*
X93775678Y-64639771D01*
X93804403Y-64603431D01*
X93830143Y-64581128D01*
X93907953Y-64460053D01*
X93948500Y-64321961D01*
X93948500Y-64178039D01*
X93939417Y-64147107D01*
X93907954Y-64039949D01*
X93907953Y-64039948D01*
X93907953Y-64039947D01*
X93845031Y-63942039D01*
X93825347Y-63875000D01*
X93845032Y-63807961D01*
X93845032Y-63807960D01*
X93907953Y-63710053D01*
X93948500Y-63571961D01*
X93948500Y-63428039D01*
X93935612Y-63384146D01*
X93907954Y-63289949D01*
X93907953Y-63289948D01*
X93907953Y-63289947D01*
X93845031Y-63192039D01*
X93825347Y-63125000D01*
X93845032Y-63057961D01*
X93845032Y-63057960D01*
X93853777Y-63044352D01*
X93907953Y-62960053D01*
X93948500Y-62821961D01*
X93948500Y-62717600D01*
X95672341Y-62717600D01*
X95692936Y-62953003D01*
X95692938Y-62953013D01*
X95754094Y-63181255D01*
X95754096Y-63181259D01*
X95754097Y-63181263D01*
X95834004Y-63352623D01*
X95853965Y-63395430D01*
X95853967Y-63395434D01*
X95962281Y-63550121D01*
X95989505Y-63589001D01*
X96156599Y-63756095D01*
X96230670Y-63807960D01*
X96350165Y-63891632D01*
X96350167Y-63891633D01*
X96350170Y-63891635D01*
X96564337Y-63991503D01*
X96792592Y-64052663D01*
X96980918Y-64069139D01*
X97027999Y-64073259D01*
X97028000Y-64073259D01*
X97028001Y-64073259D01*
X97067234Y-64069826D01*
X97263408Y-64052663D01*
X97491663Y-63991503D01*
X97705830Y-63891635D01*
X97899401Y-63756095D01*
X98066495Y-63589001D01*
X98196425Y-63403442D01*
X98251002Y-63359817D01*
X98320500Y-63352623D01*
X98382855Y-63384146D01*
X98399575Y-63403442D01*
X98529500Y-63588995D01*
X98529505Y-63589001D01*
X98696599Y-63756095D01*
X98770670Y-63807960D01*
X98890165Y-63891632D01*
X98890167Y-63891633D01*
X98890170Y-63891635D01*
X99104337Y-63991503D01*
X99332592Y-64052663D01*
X99520918Y-64069139D01*
X99567999Y-64073259D01*
X99568000Y-64073259D01*
X99568001Y-64073259D01*
X99607234Y-64069826D01*
X99803408Y-64052663D01*
X100031663Y-63991503D01*
X100245830Y-63891635D01*
X100439401Y-63756095D01*
X100606495Y-63589001D01*
X100742035Y-63395430D01*
X100841903Y-63181263D01*
X100903063Y-62953008D01*
X100923659Y-62717600D01*
X100903063Y-62482192D01*
X100848082Y-62276998D01*
X100841905Y-62253944D01*
X100841904Y-62253943D01*
X100841903Y-62253937D01*
X100742035Y-62039771D01*
X100736425Y-62031758D01*
X100606494Y-61846197D01*
X100439402Y-61679106D01*
X100439396Y-61679101D01*
X100253842Y-61549175D01*
X100210217Y-61494598D01*
X100203023Y-61425100D01*
X100234546Y-61362745D01*
X100253842Y-61346025D01*
X100303243Y-61311434D01*
X100439401Y-61216095D01*
X100606495Y-61049001D01*
X100742035Y-60855430D01*
X100841903Y-60641263D01*
X100903063Y-60413008D01*
X100923659Y-60177600D01*
X100903063Y-59942192D01*
X100841903Y-59713937D01*
X100742035Y-59499771D01*
X100736425Y-59491758D01*
X100606494Y-59306197D01*
X100439402Y-59139106D01*
X100439396Y-59139101D01*
X100253842Y-59009175D01*
X100210217Y-58954598D01*
X100203023Y-58885100D01*
X100234546Y-58822745D01*
X100253842Y-58806025D01*
X100276026Y-58790491D01*
X100439401Y-58676095D01*
X100606495Y-58509001D01*
X100742035Y-58315430D01*
X100841903Y-58101263D01*
X100903063Y-57873008D01*
X100923659Y-57637600D01*
X100903063Y-57402192D01*
X100841903Y-57173937D01*
X100742035Y-56959771D01*
X100736425Y-56951758D01*
X100606494Y-56766197D01*
X100439402Y-56599106D01*
X100439396Y-56599101D01*
X100253842Y-56469175D01*
X100210217Y-56414598D01*
X100203023Y-56345100D01*
X100234546Y-56282745D01*
X100253842Y-56266025D01*
X100276026Y-56250491D01*
X100439401Y-56136095D01*
X100606495Y-55969001D01*
X100742035Y-55775430D01*
X100841903Y-55561263D01*
X100903063Y-55333008D01*
X100923659Y-55097600D01*
X100903063Y-54862192D01*
X100852224Y-54672455D01*
X100841905Y-54633944D01*
X100841904Y-54633943D01*
X100841903Y-54633937D01*
X100742035Y-54419771D01*
X100736424Y-54411758D01*
X100606496Y-54226200D01*
X100606493Y-54226197D01*
X100484567Y-54104271D01*
X100451084Y-54042951D01*
X100456068Y-53973259D01*
X100497939Y-53917325D01*
X100528915Y-53900410D01*
X100660331Y-53851396D01*
X100775546Y-53765146D01*
X100861796Y-53649931D01*
X100912091Y-53515083D01*
X100918500Y-53455473D01*
X100918499Y-51659728D01*
X100912091Y-51600117D01*
X100910810Y-51596683D01*
X100861797Y-51465271D01*
X100861793Y-51465264D01*
X100775547Y-51350055D01*
X100775544Y-51350052D01*
X100660335Y-51263806D01*
X100660328Y-51263802D01*
X100525482Y-51213508D01*
X100525483Y-51213508D01*
X100465883Y-51207101D01*
X100465881Y-51207100D01*
X100465873Y-51207100D01*
X100465864Y-51207100D01*
X98670129Y-51207100D01*
X98670123Y-51207101D01*
X98610516Y-51213508D01*
X98475671Y-51263802D01*
X98475664Y-51263806D01*
X98360455Y-51350052D01*
X98360452Y-51350055D01*
X98274206Y-51465264D01*
X98274203Y-51465269D01*
X98225189Y-51596683D01*
X98183317Y-51652616D01*
X98117853Y-51677033D01*
X98049580Y-51662181D01*
X98021326Y-51641030D01*
X97899402Y-51519106D01*
X97899395Y-51519101D01*
X97705834Y-51383567D01*
X97705830Y-51383565D01*
X97705828Y-51383564D01*
X97491663Y-51283697D01*
X97491659Y-51283696D01*
X97491655Y-51283694D01*
X97263413Y-51222538D01*
X97263403Y-51222536D01*
X97028001Y-51201941D01*
X97027999Y-51201941D01*
X96792596Y-51222536D01*
X96792586Y-51222538D01*
X96564344Y-51283694D01*
X96564335Y-51283698D01*
X96350171Y-51383564D01*
X96350169Y-51383565D01*
X96156597Y-51519105D01*
X95989505Y-51686197D01*
X95853965Y-51879769D01*
X95853964Y-51879771D01*
X95754098Y-52093935D01*
X95754094Y-52093944D01*
X95692938Y-52322186D01*
X95692936Y-52322196D01*
X95672341Y-52557599D01*
X95672341Y-52557600D01*
X95692936Y-52793003D01*
X95692938Y-52793013D01*
X95754094Y-53021255D01*
X95754096Y-53021259D01*
X95754097Y-53021263D01*
X95838499Y-53202263D01*
X95853965Y-53235430D01*
X95853967Y-53235434D01*
X95989501Y-53428995D01*
X95989506Y-53429002D01*
X96156597Y-53596093D01*
X96156603Y-53596098D01*
X96342158Y-53726025D01*
X96385783Y-53780602D01*
X96392977Y-53850100D01*
X96361454Y-53912455D01*
X96342158Y-53929175D01*
X96156597Y-54059105D01*
X95989505Y-54226197D01*
X95853965Y-54419769D01*
X95853964Y-54419771D01*
X95754098Y-54633935D01*
X95754094Y-54633944D01*
X95692938Y-54862186D01*
X95692936Y-54862196D01*
X95672341Y-55097599D01*
X95672341Y-55097600D01*
X95692936Y-55333003D01*
X95692938Y-55333013D01*
X95754094Y-55561255D01*
X95754096Y-55561259D01*
X95754097Y-55561263D01*
X95792954Y-55644592D01*
X95853965Y-55775430D01*
X95853967Y-55775434D01*
X95927185Y-55879999D01*
X95989501Y-55968996D01*
X95989506Y-55969002D01*
X96156597Y-56136093D01*
X96156603Y-56136098D01*
X96342158Y-56266025D01*
X96385783Y-56320602D01*
X96392977Y-56390100D01*
X96361454Y-56452455D01*
X96342158Y-56469175D01*
X96156597Y-56599105D01*
X95989505Y-56766197D01*
X95853965Y-56959769D01*
X95853964Y-56959771D01*
X95754098Y-57173935D01*
X95754094Y-57173944D01*
X95692938Y-57402186D01*
X95692936Y-57402196D01*
X95672341Y-57637599D01*
X95672341Y-57637600D01*
X95692936Y-57873003D01*
X95692938Y-57873013D01*
X95754094Y-58101255D01*
X95754096Y-58101259D01*
X95754097Y-58101263D01*
X95792954Y-58184592D01*
X95853965Y-58315430D01*
X95853967Y-58315434D01*
X95927185Y-58419999D01*
X95989501Y-58508996D01*
X95989506Y-58509002D01*
X96156597Y-58676093D01*
X96156603Y-58676098D01*
X96342158Y-58806025D01*
X96385783Y-58860602D01*
X96392977Y-58930100D01*
X96361454Y-58992455D01*
X96342158Y-59009175D01*
X96156597Y-59139105D01*
X95989505Y-59306197D01*
X95853965Y-59499769D01*
X95853964Y-59499771D01*
X95754098Y-59713935D01*
X95754094Y-59713944D01*
X95692938Y-59942186D01*
X95692936Y-59942196D01*
X95672341Y-60177599D01*
X95672341Y-60177600D01*
X95692936Y-60413003D01*
X95692938Y-60413013D01*
X95754094Y-60641255D01*
X95754096Y-60641259D01*
X95754097Y-60641263D01*
X95792954Y-60724592D01*
X95853965Y-60855430D01*
X95853967Y-60855434D01*
X95946728Y-60987909D01*
X95989501Y-61048996D01*
X95989506Y-61049002D01*
X96156597Y-61216093D01*
X96156603Y-61216098D01*
X96342158Y-61346025D01*
X96385783Y-61400602D01*
X96392977Y-61470100D01*
X96361454Y-61532455D01*
X96342158Y-61549175D01*
X96156597Y-61679105D01*
X95989505Y-61846197D01*
X95853965Y-62039769D01*
X95853964Y-62039771D01*
X95754098Y-62253935D01*
X95754094Y-62253944D01*
X95692938Y-62482186D01*
X95692936Y-62482196D01*
X95672341Y-62717599D01*
X95672341Y-62717600D01*
X93948500Y-62717600D01*
X93948500Y-62678039D01*
X93933983Y-62628597D01*
X93907954Y-62539949D01*
X93891286Y-62514013D01*
X93830143Y-62418872D01*
X93804405Y-62396570D01*
X93766630Y-62337792D01*
X93766630Y-62267923D01*
X93787752Y-62226697D01*
X93815907Y-62190525D01*
X93919748Y-61998644D01*
X93990589Y-61792289D01*
X94026500Y-61577088D01*
X94026500Y-61468000D01*
X94026500Y-61420405D01*
X94026500Y-45184156D01*
X94026500Y-45102912D01*
X93990589Y-44887711D01*
X93919748Y-44681356D01*
X93815907Y-44489475D01*
X93792586Y-44459513D01*
X93766945Y-44394519D01*
X93780512Y-44325979D01*
X93809235Y-44289641D01*
X93842143Y-44261128D01*
X93919953Y-44140053D01*
X93960500Y-44001961D01*
X93960500Y-43858039D01*
X93950400Y-43823641D01*
X93919954Y-43719949D01*
X93919953Y-43719948D01*
X93919953Y-43719947D01*
X93857031Y-43622039D01*
X93837347Y-43555000D01*
X93857032Y-43487961D01*
X93857032Y-43487960D01*
X93919953Y-43390053D01*
X93960500Y-43251961D01*
X93960500Y-43108039D01*
X93919953Y-42969947D01*
X93857031Y-42872039D01*
X93837347Y-42805000D01*
X93857032Y-42737961D01*
X93857032Y-42737960D01*
X93919953Y-42640053D01*
X93960500Y-42501961D01*
X93960500Y-42358039D01*
X93919953Y-42219947D01*
X93842143Y-42098872D01*
X93809237Y-42070359D01*
X93771464Y-42011581D01*
X93771464Y-41941712D01*
X93792588Y-41900484D01*
X93815907Y-41870525D01*
X93919748Y-41678644D01*
X93990589Y-41472289D01*
X94026500Y-41257088D01*
X94026500Y-41148000D01*
X94026500Y-41100405D01*
X94026500Y-38778500D01*
X94046185Y-38711461D01*
X94098989Y-38665706D01*
X94150500Y-38654500D01*
X102699500Y-38654500D01*
X102766539Y-38674185D01*
G37*
%TD.AperFunction*%
%TA.AperFunction,NonConductor*%
G36*
X98152340Y-53445668D02*
G01*
X98208274Y-53487539D01*
X98225189Y-53518517D01*
X98274202Y-53649928D01*
X98274206Y-53649935D01*
X98360452Y-53765144D01*
X98360455Y-53765147D01*
X98475664Y-53851393D01*
X98475671Y-53851397D01*
X98607081Y-53900410D01*
X98663015Y-53942281D01*
X98687432Y-54007745D01*
X98672580Y-54076018D01*
X98651430Y-54104273D01*
X98529503Y-54226200D01*
X98399575Y-54411758D01*
X98344998Y-54455383D01*
X98275500Y-54462577D01*
X98213145Y-54431054D01*
X98196425Y-54411758D01*
X98066494Y-54226197D01*
X97899402Y-54059106D01*
X97899396Y-54059101D01*
X97713842Y-53929175D01*
X97670217Y-53874598D01*
X97663023Y-53805100D01*
X97694546Y-53742745D01*
X97713842Y-53726025D01*
X97736026Y-53710491D01*
X97899401Y-53596095D01*
X98021329Y-53474166D01*
X98082648Y-53440684D01*
X98152340Y-53445668D01*
G37*
%TD.AperFunction*%
%TA.AperFunction,NonConductor*%
G36*
X98382855Y-55764146D02*
G01*
X98399575Y-55783442D01*
X98529501Y-55968996D01*
X98529506Y-55969002D01*
X98696597Y-56136093D01*
X98696603Y-56136098D01*
X98882158Y-56266025D01*
X98925783Y-56320602D01*
X98932977Y-56390100D01*
X98901454Y-56452455D01*
X98882158Y-56469175D01*
X98696597Y-56599105D01*
X98529505Y-56766197D01*
X98399575Y-56951758D01*
X98344998Y-56995383D01*
X98275500Y-57002577D01*
X98213145Y-56971054D01*
X98196425Y-56951758D01*
X98066494Y-56766197D01*
X97899402Y-56599106D01*
X97899396Y-56599101D01*
X97713842Y-56469175D01*
X97670217Y-56414598D01*
X97663023Y-56345100D01*
X97694546Y-56282745D01*
X97713842Y-56266025D01*
X97736026Y-56250491D01*
X97899401Y-56136095D01*
X98066495Y-55969001D01*
X98196425Y-55783442D01*
X98251002Y-55739817D01*
X98320500Y-55732623D01*
X98382855Y-55764146D01*
G37*
%TD.AperFunction*%
%TA.AperFunction,NonConductor*%
G36*
X98382855Y-58304146D02*
G01*
X98399575Y-58323442D01*
X98529501Y-58508996D01*
X98529506Y-58509002D01*
X98696597Y-58676093D01*
X98696603Y-58676098D01*
X98882158Y-58806025D01*
X98925783Y-58860602D01*
X98932977Y-58930100D01*
X98901454Y-58992455D01*
X98882158Y-59009175D01*
X98696597Y-59139105D01*
X98529505Y-59306197D01*
X98399575Y-59491758D01*
X98344998Y-59535383D01*
X98275500Y-59542577D01*
X98213145Y-59511054D01*
X98196425Y-59491758D01*
X98066494Y-59306197D01*
X97899402Y-59139106D01*
X97899396Y-59139101D01*
X97713842Y-59009175D01*
X97670217Y-58954598D01*
X97663023Y-58885100D01*
X97694546Y-58822745D01*
X97713842Y-58806025D01*
X97736026Y-58790491D01*
X97899401Y-58676095D01*
X98066495Y-58509001D01*
X98196425Y-58323442D01*
X98251002Y-58279817D01*
X98320500Y-58272623D01*
X98382855Y-58304146D01*
G37*
%TD.AperFunction*%
%TA.AperFunction,NonConductor*%
G36*
X98382855Y-60844146D02*
G01*
X98399575Y-60863442D01*
X98529501Y-61048996D01*
X98529506Y-61049002D01*
X98696597Y-61216093D01*
X98696603Y-61216098D01*
X98882158Y-61346025D01*
X98925783Y-61400602D01*
X98932977Y-61470100D01*
X98901454Y-61532455D01*
X98882158Y-61549175D01*
X98696597Y-61679105D01*
X98529505Y-61846197D01*
X98399575Y-62031758D01*
X98344998Y-62075383D01*
X98275500Y-62082577D01*
X98213145Y-62051054D01*
X98196425Y-62031758D01*
X98066494Y-61846197D01*
X97899402Y-61679106D01*
X97899396Y-61679101D01*
X97713842Y-61549175D01*
X97670217Y-61494598D01*
X97663023Y-61425100D01*
X97694546Y-61362745D01*
X97713842Y-61346025D01*
X97763243Y-61311434D01*
X97899401Y-61216095D01*
X98066495Y-61049001D01*
X98196425Y-60863442D01*
X98251002Y-60819817D01*
X98320500Y-60812623D01*
X98382855Y-60844146D01*
G37*
%TD.AperFunction*%
%TA.AperFunction,NonConductor*%
G36*
X86552303Y-64577339D02*
G01*
X86558781Y-64583371D01*
X87559762Y-65584352D01*
X87593247Y-65645675D01*
X87591856Y-65704126D01*
X87564938Y-65804586D01*
X87564936Y-65804596D01*
X87544341Y-66039999D01*
X87544341Y-66040388D01*
X87544292Y-66040553D01*
X87543869Y-66045394D01*
X87542896Y-66045308D01*
X87524656Y-66107427D01*
X87471852Y-66153182D01*
X87402694Y-66163126D01*
X87339138Y-66134101D01*
X87332660Y-66128069D01*
X86383419Y-65178828D01*
X86349934Y-65117505D01*
X86347100Y-65091147D01*
X86347100Y-64671052D01*
X86366785Y-64604013D01*
X86419589Y-64558258D01*
X86488747Y-64548314D01*
X86552303Y-64577339D01*
G37*
%TD.AperFunction*%
%TA.AperFunction,NonConductor*%
G36*
X80227703Y-64602739D02*
G01*
X80234181Y-64608771D01*
X81209762Y-65584352D01*
X81243247Y-65645675D01*
X81241856Y-65704126D01*
X81214938Y-65804586D01*
X81214936Y-65804596D01*
X81194341Y-66039999D01*
X81194341Y-66040388D01*
X81194292Y-66040553D01*
X81193869Y-66045394D01*
X81192896Y-66045308D01*
X81174656Y-66107427D01*
X81121852Y-66153182D01*
X81052694Y-66163126D01*
X80989138Y-66134101D01*
X80982660Y-66128069D01*
X80058819Y-65204228D01*
X80025334Y-65142905D01*
X80022500Y-65116547D01*
X80022500Y-64696452D01*
X80042185Y-64629413D01*
X80094989Y-64583658D01*
X80164147Y-64573714D01*
X80227703Y-64602739D01*
G37*
%TD.AperFunction*%
%TA.AperFunction,NonConductor*%
G36*
X86102303Y-66667339D02*
G01*
X86108779Y-66673369D01*
X86841374Y-67405965D01*
X87559761Y-68124352D01*
X87593246Y-68185675D01*
X87591855Y-68244124D01*
X87564937Y-68344589D01*
X87564937Y-68344590D01*
X87544341Y-68579999D01*
X87544341Y-68580388D01*
X87544292Y-68580553D01*
X87543869Y-68585394D01*
X87542896Y-68585308D01*
X87524656Y-68647427D01*
X87471852Y-68693182D01*
X87402694Y-68703126D01*
X87339138Y-68674101D01*
X87332660Y-68668069D01*
X85933419Y-67268828D01*
X85899934Y-67207505D01*
X85897100Y-67181147D01*
X85897100Y-66761052D01*
X85916785Y-66694013D01*
X85969589Y-66648258D01*
X86038747Y-66638314D01*
X86102303Y-66667339D01*
G37*
%TD.AperFunction*%
%TA.AperFunction,NonConductor*%
G36*
X79777703Y-66692739D02*
G01*
X79784179Y-66698769D01*
X80496984Y-67411575D01*
X81209761Y-68124352D01*
X81243246Y-68185675D01*
X81241855Y-68244124D01*
X81214937Y-68344589D01*
X81214937Y-68344590D01*
X81194341Y-68579999D01*
X81194341Y-68580388D01*
X81194292Y-68580553D01*
X81193869Y-68585394D01*
X81192896Y-68585308D01*
X81174656Y-68647427D01*
X81121852Y-68693182D01*
X81052694Y-68703126D01*
X80989138Y-68674101D01*
X80982660Y-68668069D01*
X79608819Y-67294228D01*
X79575334Y-67232905D01*
X79572500Y-67206547D01*
X79572500Y-66786452D01*
X79592185Y-66719413D01*
X79644989Y-66673658D01*
X79714147Y-66663714D01*
X79777703Y-66692739D01*
G37*
%TD.AperFunction*%
%TA.AperFunction,NonConductor*%
G36*
X85652303Y-68757339D02*
G01*
X85658779Y-68763369D01*
X86643834Y-69748425D01*
X87559761Y-70664352D01*
X87593246Y-70725675D01*
X87591855Y-70784124D01*
X87564937Y-70884589D01*
X87564937Y-70884590D01*
X87544341Y-71119999D01*
X87544341Y-71120388D01*
X87544292Y-71120553D01*
X87543869Y-71125394D01*
X87542896Y-71125308D01*
X87524656Y-71187427D01*
X87471852Y-71233182D01*
X87402694Y-71243126D01*
X87339138Y-71214101D01*
X87332660Y-71208069D01*
X85483419Y-69358828D01*
X85449934Y-69297505D01*
X85447100Y-69271147D01*
X85447100Y-68851052D01*
X85466785Y-68784013D01*
X85519589Y-68738258D01*
X85588747Y-68728314D01*
X85652303Y-68757339D01*
G37*
%TD.AperFunction*%
%TA.AperFunction,NonConductor*%
G36*
X79327703Y-68782739D02*
G01*
X79334179Y-68788769D01*
X80293834Y-69748425D01*
X81209761Y-70664352D01*
X81243246Y-70725675D01*
X81241855Y-70784124D01*
X81214937Y-70884589D01*
X81214937Y-70884590D01*
X81194341Y-71119999D01*
X81194341Y-71120388D01*
X81194292Y-71120553D01*
X81193869Y-71125394D01*
X81192896Y-71125308D01*
X81174656Y-71187427D01*
X81121852Y-71233182D01*
X81052694Y-71243126D01*
X80989138Y-71214101D01*
X80982660Y-71208069D01*
X79158819Y-69384228D01*
X79125334Y-69322905D01*
X79122500Y-69296547D01*
X79122500Y-68876452D01*
X79142185Y-68809413D01*
X79194989Y-68763658D01*
X79264147Y-68753714D01*
X79327703Y-68782739D01*
G37*
%TD.AperFunction*%
%TA.AperFunction,NonConductor*%
G36*
X85202303Y-70847339D02*
G01*
X85208781Y-70853371D01*
X87559762Y-73204352D01*
X87593247Y-73265675D01*
X87591856Y-73324126D01*
X87564938Y-73424586D01*
X87564936Y-73424596D01*
X87544341Y-73659999D01*
X87544341Y-73660388D01*
X87544292Y-73660553D01*
X87543869Y-73665394D01*
X87542896Y-73665308D01*
X87524656Y-73727427D01*
X87471852Y-73773182D01*
X87402694Y-73783126D01*
X87339138Y-73754101D01*
X87332660Y-73748069D01*
X85033419Y-71448828D01*
X84999934Y-71387505D01*
X84997100Y-71361147D01*
X84997100Y-70941052D01*
X85016785Y-70874013D01*
X85069589Y-70828258D01*
X85138747Y-70818314D01*
X85202303Y-70847339D01*
G37*
%TD.AperFunction*%
%TA.AperFunction,NonConductor*%
G36*
X78877703Y-70872739D02*
G01*
X78884181Y-70878771D01*
X81209762Y-73204352D01*
X81243247Y-73265675D01*
X81241856Y-73324126D01*
X81214938Y-73424586D01*
X81214936Y-73424596D01*
X81194341Y-73659999D01*
X81194341Y-73660388D01*
X81194292Y-73660553D01*
X81193869Y-73665394D01*
X81192896Y-73665308D01*
X81174656Y-73727427D01*
X81121852Y-73773182D01*
X81052694Y-73783126D01*
X80989138Y-73754101D01*
X80982660Y-73748069D01*
X78708819Y-71474228D01*
X78675334Y-71412905D01*
X78672500Y-71386547D01*
X78672500Y-70966452D01*
X78692185Y-70899413D01*
X78744989Y-70853658D01*
X78814147Y-70843714D01*
X78877703Y-70872739D01*
G37*
%TD.AperFunction*%
%TA.AperFunction,NonConductor*%
G36*
X84752303Y-72937339D02*
G01*
X84758781Y-72943371D01*
X87559762Y-75744352D01*
X87593247Y-75805675D01*
X87591856Y-75864126D01*
X87564938Y-75964586D01*
X87564936Y-75964596D01*
X87544341Y-76199999D01*
X87544341Y-76200388D01*
X87544292Y-76200553D01*
X87543869Y-76205394D01*
X87542896Y-76205308D01*
X87524656Y-76267427D01*
X87471852Y-76313182D01*
X87402694Y-76323126D01*
X87339138Y-76294101D01*
X87332660Y-76288069D01*
X84583419Y-73538828D01*
X84549934Y-73477505D01*
X84547100Y-73451147D01*
X84547100Y-73031052D01*
X84566785Y-72964013D01*
X84619589Y-72918258D01*
X84688747Y-72908314D01*
X84752303Y-72937339D01*
G37*
%TD.AperFunction*%
%TA.AperFunction,NonConductor*%
G36*
X78427703Y-72962739D02*
G01*
X78434181Y-72968771D01*
X81209762Y-75744352D01*
X81243247Y-75805675D01*
X81241856Y-75864126D01*
X81214938Y-75964586D01*
X81214936Y-75964596D01*
X81194341Y-76199999D01*
X81194341Y-76200388D01*
X81194292Y-76200553D01*
X81193869Y-76205394D01*
X81192896Y-76205308D01*
X81174656Y-76267427D01*
X81121852Y-76313182D01*
X81052694Y-76323126D01*
X80989138Y-76294101D01*
X80982660Y-76288069D01*
X78258819Y-73564228D01*
X78225334Y-73502905D01*
X78222500Y-73476547D01*
X78222500Y-73056452D01*
X78242185Y-72989413D01*
X78294989Y-72943658D01*
X78364147Y-72933714D01*
X78427703Y-72962739D01*
G37*
%TD.AperFunction*%
%TA.AperFunction,NonConductor*%
G36*
X72234852Y-38674185D02*
G01*
X72280607Y-38726989D01*
X72290551Y-38796147D01*
X72261526Y-38859703D01*
X72259963Y-38861472D01*
X72225466Y-38899784D01*
X72130821Y-39063715D01*
X72130819Y-39063719D01*
X72078227Y-39225581D01*
X72038789Y-39283256D01*
X71986079Y-39308552D01*
X71928194Y-39320856D01*
X71928192Y-39320857D01*
X71755270Y-39397848D01*
X71755265Y-39397851D01*
X71602129Y-39509111D01*
X71475466Y-39649785D01*
X71380821Y-39813715D01*
X71380818Y-39813722D01*
X71331921Y-39964214D01*
X71322326Y-39993744D01*
X71302540Y-40182000D01*
X71322326Y-40370256D01*
X71322327Y-40370259D01*
X71380818Y-40550277D01*
X71380821Y-40550284D01*
X71475467Y-40714216D01*
X71602129Y-40854888D01*
X71755265Y-40966148D01*
X71755270Y-40966151D01*
X71928197Y-41043144D01*
X71998890Y-41058170D01*
X72060369Y-41091360D01*
X72060788Y-41091778D01*
X76935181Y-45966171D01*
X76968666Y-46027494D01*
X76971500Y-46053852D01*
X76971500Y-54405500D01*
X76951815Y-54472539D01*
X76899011Y-54518294D01*
X76847500Y-54529500D01*
X75302129Y-54529500D01*
X75302123Y-54529501D01*
X75242516Y-54535908D01*
X75107671Y-54586202D01*
X75107664Y-54586206D01*
X74992455Y-54672452D01*
X74992452Y-54672455D01*
X74906206Y-54787664D01*
X74906202Y-54787671D01*
X74855908Y-54922517D01*
X74849501Y-54982116D01*
X74849501Y-54982123D01*
X74849500Y-54982135D01*
X74849500Y-56777870D01*
X74849501Y-56777876D01*
X74855908Y-56837483D01*
X74906202Y-56972328D01*
X74906206Y-56972335D01*
X74992452Y-57087544D01*
X74992455Y-57087547D01*
X75107664Y-57173793D01*
X75107671Y-57173797D01*
X75239081Y-57222810D01*
X75295015Y-57264681D01*
X75319432Y-57330145D01*
X75304580Y-57398418D01*
X75283430Y-57426673D01*
X75161503Y-57548600D01*
X75025965Y-57742169D01*
X75025964Y-57742171D01*
X74926098Y-57956335D01*
X74926094Y-57956344D01*
X74864938Y-58184586D01*
X74864936Y-58184596D01*
X74844341Y-58419999D01*
X74844341Y-58420000D01*
X74864936Y-58655403D01*
X74864938Y-58655413D01*
X74926094Y-58883655D01*
X74926096Y-58883659D01*
X74926097Y-58883663D01*
X75025965Y-59097830D01*
X75025967Y-59097834D01*
X75161501Y-59291395D01*
X75161506Y-59291402D01*
X75328597Y-59458493D01*
X75328603Y-59458498D01*
X75514158Y-59588425D01*
X75557783Y-59643002D01*
X75564977Y-59712500D01*
X75533454Y-59774855D01*
X75514158Y-59791575D01*
X75328597Y-59921505D01*
X75161505Y-60088597D01*
X75025965Y-60282169D01*
X75025964Y-60282171D01*
X74926098Y-60496335D01*
X74926094Y-60496344D01*
X74864938Y-60724586D01*
X74864936Y-60724596D01*
X74844341Y-60959999D01*
X74844341Y-60960000D01*
X74864936Y-61195403D01*
X74864938Y-61195413D01*
X74926094Y-61423655D01*
X74926096Y-61423659D01*
X74926097Y-61423663D01*
X75021015Y-61627214D01*
X75025965Y-61637830D01*
X75025967Y-61637834D01*
X75161501Y-61831395D01*
X75161506Y-61831402D01*
X75328597Y-61998493D01*
X75328603Y-61998498D01*
X75514158Y-62128425D01*
X75557783Y-62183002D01*
X75564977Y-62252500D01*
X75533454Y-62314855D01*
X75514158Y-62331575D01*
X75328597Y-62461505D01*
X75161505Y-62628597D01*
X75025965Y-62822169D01*
X75025964Y-62822171D01*
X74926098Y-63036335D01*
X74926094Y-63036344D01*
X74864938Y-63264586D01*
X74864936Y-63264596D01*
X74844341Y-63499999D01*
X74844341Y-63500000D01*
X74864936Y-63735403D01*
X74864938Y-63735413D01*
X74926094Y-63963655D01*
X74926096Y-63963659D01*
X74926097Y-63963663D01*
X74961670Y-64039949D01*
X75025965Y-64177830D01*
X75025967Y-64177834D01*
X75161501Y-64371395D01*
X75161506Y-64371402D01*
X75328597Y-64538493D01*
X75328603Y-64538498D01*
X75514158Y-64668425D01*
X75557783Y-64723002D01*
X75564977Y-64792500D01*
X75533454Y-64854855D01*
X75514158Y-64871575D01*
X75328597Y-65001505D01*
X75161505Y-65168597D01*
X75025965Y-65362169D01*
X75025964Y-65362171D01*
X74959925Y-65503793D01*
X74927226Y-65573917D01*
X74926098Y-65576335D01*
X74926094Y-65576344D01*
X74864938Y-65804586D01*
X74864936Y-65804596D01*
X74844341Y-66039999D01*
X74844341Y-66040000D01*
X74864936Y-66275403D01*
X74864938Y-66275413D01*
X74926094Y-66503655D01*
X74926096Y-66503659D01*
X74926097Y-66503663D01*
X74988886Y-66638314D01*
X75025965Y-66717830D01*
X75025967Y-66717834D01*
X75161501Y-66911395D01*
X75161506Y-66911402D01*
X75328597Y-67078493D01*
X75328603Y-67078498D01*
X75514158Y-67208425D01*
X75557783Y-67263002D01*
X75564977Y-67332500D01*
X75533454Y-67394855D01*
X75514158Y-67411575D01*
X75328597Y-67541505D01*
X75161505Y-67708597D01*
X75025965Y-67902169D01*
X75025964Y-67902171D01*
X74926098Y-68116335D01*
X74926094Y-68116344D01*
X74864938Y-68344586D01*
X74864936Y-68344596D01*
X74844341Y-68579999D01*
X74844341Y-68580000D01*
X74864936Y-68815403D01*
X74864938Y-68815413D01*
X74926094Y-69043655D01*
X74926096Y-69043659D01*
X74926097Y-69043663D01*
X75025965Y-69257830D01*
X75025967Y-69257834D01*
X75161501Y-69451395D01*
X75161506Y-69451402D01*
X75328597Y-69618493D01*
X75328603Y-69618498D01*
X75514158Y-69748425D01*
X75557783Y-69803002D01*
X75564977Y-69872500D01*
X75533454Y-69934855D01*
X75514158Y-69951575D01*
X75328597Y-70081505D01*
X75161505Y-70248597D01*
X75025965Y-70442169D01*
X75025964Y-70442171D01*
X74926098Y-70656335D01*
X74926094Y-70656344D01*
X74864938Y-70884586D01*
X74864936Y-70884596D01*
X74844341Y-71119999D01*
X74844341Y-71120000D01*
X74864936Y-71355403D01*
X74864938Y-71355413D01*
X74926094Y-71583655D01*
X74926096Y-71583659D01*
X74926097Y-71583663D01*
X75025965Y-71797830D01*
X75025967Y-71797834D01*
X75161501Y-71991395D01*
X75161506Y-71991402D01*
X75328597Y-72158493D01*
X75328603Y-72158498D01*
X75514158Y-72288425D01*
X75557783Y-72343002D01*
X75564977Y-72412500D01*
X75533454Y-72474855D01*
X75514158Y-72491575D01*
X75328597Y-72621505D01*
X75161505Y-72788597D01*
X75025965Y-72982169D01*
X75025964Y-72982171D01*
X74926098Y-73196335D01*
X74926094Y-73196344D01*
X74864938Y-73424586D01*
X74864936Y-73424596D01*
X74844341Y-73659999D01*
X74844341Y-73660000D01*
X74864936Y-73895403D01*
X74864938Y-73895413D01*
X74926094Y-74123655D01*
X74926096Y-74123659D01*
X74926097Y-74123663D01*
X75025965Y-74337830D01*
X75025967Y-74337834D01*
X75161501Y-74531395D01*
X75161506Y-74531402D01*
X75328597Y-74698493D01*
X75328603Y-74698498D01*
X75514158Y-74828425D01*
X75557783Y-74883002D01*
X75564977Y-74952500D01*
X75533454Y-75014855D01*
X75514158Y-75031575D01*
X75328597Y-75161505D01*
X75161505Y-75328597D01*
X75025965Y-75522169D01*
X75025964Y-75522171D01*
X74926098Y-75736335D01*
X74926094Y-75736344D01*
X74864938Y-75964586D01*
X74864936Y-75964596D01*
X74844341Y-76199999D01*
X74844341Y-76200000D01*
X74864936Y-76435403D01*
X74864938Y-76435413D01*
X74926094Y-76663655D01*
X74926096Y-76663659D01*
X74926097Y-76663663D01*
X75025965Y-76877830D01*
X75025967Y-76877834D01*
X75134281Y-77032521D01*
X75161501Y-77071396D01*
X75161506Y-77071402D01*
X75328597Y-77238493D01*
X75328603Y-77238498D01*
X75514158Y-77368425D01*
X75557783Y-77423002D01*
X75564977Y-77492500D01*
X75533454Y-77554855D01*
X75514158Y-77571575D01*
X75328597Y-77701505D01*
X75161505Y-77868597D01*
X75025965Y-78062169D01*
X75025964Y-78062171D01*
X74926098Y-78276335D01*
X74926094Y-78276344D01*
X74864938Y-78504586D01*
X74864936Y-78504596D01*
X74844341Y-78739999D01*
X74844341Y-78740000D01*
X74864936Y-78975403D01*
X74864938Y-78975413D01*
X74926094Y-79203655D01*
X74926096Y-79203659D01*
X74926097Y-79203663D01*
X75025965Y-79417830D01*
X75025967Y-79417834D01*
X75134281Y-79572521D01*
X75161505Y-79611401D01*
X75328599Y-79778495D01*
X75425384Y-79846265D01*
X75522165Y-79914032D01*
X75522167Y-79914033D01*
X75522170Y-79914035D01*
X75736337Y-80013903D01*
X75964592Y-80075063D01*
X76141034Y-80090500D01*
X76199999Y-80095659D01*
X76200000Y-80095659D01*
X76200001Y-80095659D01*
X76258966Y-80090500D01*
X76435408Y-80075063D01*
X76663663Y-80013903D01*
X76877830Y-79914035D01*
X77071401Y-79778495D01*
X77238495Y-79611401D01*
X77374035Y-79417830D01*
X77473903Y-79203663D01*
X77535063Y-78975408D01*
X77555659Y-78740000D01*
X77535063Y-78504592D01*
X77473903Y-78276337D01*
X77374035Y-78062171D01*
X77238495Y-77868599D01*
X77238494Y-77868597D01*
X77071402Y-77701506D01*
X77071396Y-77701501D01*
X76885842Y-77571575D01*
X76842217Y-77516998D01*
X76835023Y-77447500D01*
X76866546Y-77385145D01*
X76885842Y-77368425D01*
X76998054Y-77289853D01*
X77071401Y-77238495D01*
X77238495Y-77071401D01*
X77374035Y-76877830D01*
X77473903Y-76663663D01*
X77535063Y-76435408D01*
X77555659Y-76200000D01*
X77535063Y-75964592D01*
X77473903Y-75736337D01*
X77374035Y-75522171D01*
X77238495Y-75328599D01*
X77238494Y-75328597D01*
X77071402Y-75161506D01*
X77071396Y-75161501D01*
X76885842Y-75031575D01*
X76842217Y-74976998D01*
X76835023Y-74907500D01*
X76866546Y-74845145D01*
X76885842Y-74828425D01*
X76908026Y-74812891D01*
X77071401Y-74698495D01*
X77238495Y-74531401D01*
X77243638Y-74524054D01*
X77298209Y-74480426D01*
X77367706Y-74473226D01*
X77430064Y-74504743D01*
X77432899Y-74507489D01*
X81163181Y-78237771D01*
X81196666Y-78299094D01*
X81199500Y-78325452D01*
X81199500Y-79637870D01*
X81199501Y-79637876D01*
X81205908Y-79697483D01*
X81256202Y-79832328D01*
X81256206Y-79832335D01*
X81342452Y-79947544D01*
X81342455Y-79947547D01*
X81457664Y-80033793D01*
X81457671Y-80033797D01*
X81592517Y-80084091D01*
X81592516Y-80084091D01*
X81599444Y-80084835D01*
X81652127Y-80090500D01*
X83447872Y-80090499D01*
X83507483Y-80084091D01*
X83642331Y-80033796D01*
X83757546Y-79947546D01*
X83843796Y-79832331D01*
X83894091Y-79697483D01*
X83900500Y-79637873D01*
X83900499Y-77842128D01*
X83894091Y-77782517D01*
X83843796Y-77647669D01*
X83843795Y-77647668D01*
X83843793Y-77647664D01*
X83757547Y-77532455D01*
X83757544Y-77532452D01*
X83642335Y-77446206D01*
X83642328Y-77446202D01*
X83510917Y-77397189D01*
X83454983Y-77355318D01*
X83430566Y-77289853D01*
X83445418Y-77221580D01*
X83466563Y-77193332D01*
X83588495Y-77071401D01*
X83724035Y-76877830D01*
X83823903Y-76663663D01*
X83885063Y-76435408D01*
X83905659Y-76200000D01*
X83885063Y-75964592D01*
X83823903Y-75736337D01*
X83724035Y-75522171D01*
X83588495Y-75328599D01*
X83588494Y-75328597D01*
X83421402Y-75161506D01*
X83421396Y-75161501D01*
X83235842Y-75031575D01*
X83192217Y-74976998D01*
X83185023Y-74907500D01*
X83216546Y-74845145D01*
X83235842Y-74828425D01*
X83258026Y-74812891D01*
X83421401Y-74698495D01*
X83588495Y-74531401D01*
X83593638Y-74524054D01*
X83648209Y-74480426D01*
X83717706Y-74473226D01*
X83780064Y-74504743D01*
X83782899Y-74507489D01*
X87513181Y-78237771D01*
X87546666Y-78299094D01*
X87549500Y-78325452D01*
X87549500Y-79637870D01*
X87549501Y-79637876D01*
X87555908Y-79697483D01*
X87606202Y-79832328D01*
X87606206Y-79832335D01*
X87692452Y-79947544D01*
X87692455Y-79947547D01*
X87807664Y-80033793D01*
X87807671Y-80033797D01*
X87942517Y-80084091D01*
X87942516Y-80084091D01*
X87949444Y-80084835D01*
X88002127Y-80090500D01*
X89797872Y-80090499D01*
X89857483Y-80084091D01*
X89992331Y-80033796D01*
X90107546Y-79947546D01*
X90193796Y-79832331D01*
X90244091Y-79697483D01*
X90250500Y-79637873D01*
X90250499Y-77842128D01*
X90244091Y-77782517D01*
X90193796Y-77647669D01*
X90193795Y-77647668D01*
X90193793Y-77647664D01*
X90107547Y-77532455D01*
X90107544Y-77532452D01*
X89992335Y-77446206D01*
X89992328Y-77446202D01*
X89860917Y-77397189D01*
X89804983Y-77355318D01*
X89780566Y-77289853D01*
X89795418Y-77221580D01*
X89816563Y-77193332D01*
X89938495Y-77071401D01*
X90074035Y-76877830D01*
X90173903Y-76663663D01*
X90235063Y-76435408D01*
X90255659Y-76200000D01*
X90235063Y-75964592D01*
X90173903Y-75736337D01*
X90074035Y-75522171D01*
X89938495Y-75328599D01*
X89938494Y-75328597D01*
X89771402Y-75161506D01*
X89771396Y-75161501D01*
X89585842Y-75031575D01*
X89542217Y-74976998D01*
X89535023Y-74907500D01*
X89566546Y-74845145D01*
X89585842Y-74828425D01*
X89608026Y-74812891D01*
X89771401Y-74698495D01*
X89938495Y-74531401D01*
X90074035Y-74337830D01*
X90173903Y-74123663D01*
X90235063Y-73895408D01*
X90255659Y-73660000D01*
X90235063Y-73424592D01*
X90173903Y-73196337D01*
X90074035Y-72982171D01*
X90064653Y-72968771D01*
X89938494Y-72788597D01*
X89771402Y-72621506D01*
X89771396Y-72621501D01*
X89585842Y-72491575D01*
X89542217Y-72436998D01*
X89535023Y-72367500D01*
X89566546Y-72305145D01*
X89585842Y-72288425D01*
X89646101Y-72246231D01*
X89771401Y-72158495D01*
X89938495Y-71991401D01*
X90074035Y-71797830D01*
X90173903Y-71583663D01*
X90235063Y-71355408D01*
X90255659Y-71120000D01*
X90235063Y-70884592D01*
X90173903Y-70656337D01*
X90074035Y-70442171D01*
X89938495Y-70248599D01*
X89938494Y-70248597D01*
X89771402Y-70081506D01*
X89771396Y-70081501D01*
X89585842Y-69951575D01*
X89542217Y-69896998D01*
X89535023Y-69827500D01*
X89566546Y-69765145D01*
X89585842Y-69748425D01*
X89646101Y-69706231D01*
X89771401Y-69618495D01*
X89938495Y-69451401D01*
X90074035Y-69257830D01*
X90173903Y-69043663D01*
X90235063Y-68815408D01*
X90255659Y-68580000D01*
X90235063Y-68344592D01*
X90173903Y-68116337D01*
X90074035Y-67902171D01*
X89938495Y-67708599D01*
X89938494Y-67708597D01*
X89771402Y-67541506D01*
X89771396Y-67541501D01*
X89585842Y-67411575D01*
X89542217Y-67356998D01*
X89535023Y-67287500D01*
X89566546Y-67225145D01*
X89585842Y-67208425D01*
X89646101Y-67166231D01*
X89771401Y-67078495D01*
X89938495Y-66911401D01*
X90074035Y-66717830D01*
X90173903Y-66503663D01*
X90235063Y-66275408D01*
X90255659Y-66040000D01*
X90235063Y-65804592D01*
X90178379Y-65593041D01*
X90173905Y-65576344D01*
X90173904Y-65576343D01*
X90173903Y-65576337D01*
X90074035Y-65362171D01*
X89965882Y-65207711D01*
X89938494Y-65168597D01*
X89771402Y-65001506D01*
X89771396Y-65001501D01*
X89585842Y-64871575D01*
X89542217Y-64816998D01*
X89535023Y-64747500D01*
X89566546Y-64685145D01*
X89585842Y-64668425D01*
X89646101Y-64626231D01*
X89771401Y-64538495D01*
X89938495Y-64371401D01*
X90074035Y-64177830D01*
X90173903Y-63963663D01*
X90235063Y-63735408D01*
X90255659Y-63500000D01*
X90235063Y-63264592D01*
X90173903Y-63036337D01*
X90074035Y-62822171D01*
X90073890Y-62821963D01*
X89938494Y-62628597D01*
X89771402Y-62461506D01*
X89771396Y-62461501D01*
X89585842Y-62331575D01*
X89542217Y-62276998D01*
X89535023Y-62207500D01*
X89566546Y-62145145D01*
X89585842Y-62128425D01*
X89646101Y-62086231D01*
X89771401Y-61998495D01*
X89938495Y-61831401D01*
X90074035Y-61637830D01*
X90173903Y-61423663D01*
X90235063Y-61195408D01*
X90255659Y-60960000D01*
X90235063Y-60724592D01*
X90173903Y-60496337D01*
X90074035Y-60282171D01*
X90000814Y-60177599D01*
X89938494Y-60088597D01*
X89771402Y-59921506D01*
X89771396Y-59921501D01*
X89585842Y-59791575D01*
X89542217Y-59736998D01*
X89535023Y-59667500D01*
X89566546Y-59605145D01*
X89585842Y-59588425D01*
X89646101Y-59546231D01*
X89771401Y-59458495D01*
X89938495Y-59291401D01*
X90074035Y-59097830D01*
X90173903Y-58883663D01*
X90235063Y-58655408D01*
X90255659Y-58420000D01*
X90235063Y-58184592D01*
X90173903Y-57956337D01*
X90074035Y-57742171D01*
X90000814Y-57637599D01*
X89938494Y-57548597D01*
X89771402Y-57381506D01*
X89771396Y-57381501D01*
X89585842Y-57251575D01*
X89542217Y-57196998D01*
X89535023Y-57127500D01*
X89566546Y-57065145D01*
X89585842Y-57048425D01*
X89646101Y-57006231D01*
X89771401Y-56918495D01*
X89938495Y-56751401D01*
X90074035Y-56557830D01*
X90173903Y-56343663D01*
X90235063Y-56115408D01*
X90255659Y-55880000D01*
X90235063Y-55644592D01*
X90173903Y-55416337D01*
X90074035Y-55202171D01*
X90000814Y-55097599D01*
X89938494Y-55008597D01*
X89771402Y-54841506D01*
X89771395Y-54841501D01*
X89577834Y-54705967D01*
X89577830Y-54705965D01*
X89363663Y-54606097D01*
X89363659Y-54606096D01*
X89363655Y-54606094D01*
X89135413Y-54544938D01*
X89135403Y-54544936D01*
X88900001Y-54524341D01*
X88899998Y-54524341D01*
X88731907Y-54539047D01*
X88663407Y-54525280D01*
X88613224Y-54476665D01*
X88597100Y-54415519D01*
X88597100Y-44109218D01*
X88598824Y-44093598D01*
X88598539Y-44093571D01*
X88599273Y-44085809D01*
X88597161Y-44018588D01*
X88597100Y-44014694D01*
X88597100Y-43987132D01*
X88597100Y-43987126D01*
X88596596Y-43983144D01*
X88595681Y-43971505D01*
X88594310Y-43927849D01*
X88588719Y-43908606D01*
X88584773Y-43889554D01*
X88582264Y-43869684D01*
X88566179Y-43829059D01*
X88562406Y-43818038D01*
X88550218Y-43776086D01*
X88550217Y-43776085D01*
X88550217Y-43776083D01*
X88550216Y-43776082D01*
X88540023Y-43758847D01*
X88531461Y-43741370D01*
X88524087Y-43722745D01*
X88498416Y-43687413D01*
X88492005Y-43677653D01*
X88469770Y-43640056D01*
X88469768Y-43640054D01*
X88469765Y-43640050D01*
X88455606Y-43625891D01*
X88442968Y-43611095D01*
X88431194Y-43594889D01*
X88397540Y-43567048D01*
X88388899Y-43559185D01*
X87119819Y-42290104D01*
X87086334Y-42228781D01*
X87083500Y-42202423D01*
X87083500Y-40130687D01*
X87103185Y-40063648D01*
X87115350Y-40047715D01*
X87133891Y-40027122D01*
X87190533Y-39964216D01*
X87285179Y-39800284D01*
X87343674Y-39620256D01*
X87363460Y-39432000D01*
X87343674Y-39243744D01*
X87285179Y-39063716D01*
X87190533Y-38899784D01*
X87156037Y-38861472D01*
X87125807Y-38798480D01*
X87134433Y-38729145D01*
X87179174Y-38675480D01*
X87245827Y-38654522D01*
X87248187Y-38654500D01*
X91269500Y-38654500D01*
X91336539Y-38674185D01*
X91382294Y-38726989D01*
X91393500Y-38778500D01*
X91393500Y-41257086D01*
X91429411Y-41472292D01*
X91500250Y-41678640D01*
X91500252Y-41678645D01*
X91515814Y-41707400D01*
X91604093Y-41870525D01*
X91627412Y-41900486D01*
X91653055Y-41965478D01*
X91639489Y-42034018D01*
X91610762Y-42070360D01*
X91577856Y-42098873D01*
X91500045Y-42219949D01*
X91459500Y-42358036D01*
X91459500Y-42501963D01*
X91500045Y-42640050D01*
X91562968Y-42737961D01*
X91582652Y-42805001D01*
X91562968Y-42872039D01*
X91500045Y-42969949D01*
X91459500Y-43108036D01*
X91459500Y-43251963D01*
X91500045Y-43390050D01*
X91562968Y-43487961D01*
X91582652Y-43555001D01*
X91562968Y-43622039D01*
X91500045Y-43719949D01*
X91459500Y-43858036D01*
X91459500Y-44001963D01*
X91500045Y-44140050D01*
X91500047Y-44140053D01*
X91577857Y-44261128D01*
X91610760Y-44289638D01*
X91610761Y-44289639D01*
X91648535Y-44348418D01*
X91648535Y-44418287D01*
X91627412Y-44459514D01*
X91604094Y-44489473D01*
X91500252Y-44681354D01*
X91500250Y-44681359D01*
X91429411Y-44887707D01*
X91393500Y-45102913D01*
X91393500Y-61577086D01*
X91429411Y-61792292D01*
X91500250Y-61998640D01*
X91500252Y-61998645D01*
X91604094Y-62190527D01*
X91604095Y-62190528D01*
X91622577Y-62214273D01*
X91648221Y-62279267D01*
X91634655Y-62347807D01*
X91605929Y-62384149D01*
X91565856Y-62418872D01*
X91488045Y-62539949D01*
X91447500Y-62678036D01*
X91447500Y-62821963D01*
X91488045Y-62960050D01*
X91550968Y-63057961D01*
X91570652Y-63125001D01*
X91550968Y-63192039D01*
X91488045Y-63289949D01*
X91447500Y-63428036D01*
X91447500Y-63571963D01*
X91488045Y-63710050D01*
X91550968Y-63807961D01*
X91570652Y-63875001D01*
X91550968Y-63942039D01*
X91488045Y-64039949D01*
X91447500Y-64178036D01*
X91447500Y-64321963D01*
X91488045Y-64460050D01*
X91488047Y-64460053D01*
X91565857Y-64581128D01*
X91605927Y-64615849D01*
X91643701Y-64674626D01*
X91643701Y-64744496D01*
X91622581Y-64785719D01*
X91604095Y-64809471D01*
X91604094Y-64809472D01*
X91500252Y-65001354D01*
X91500250Y-65001359D01*
X91429411Y-65207707D01*
X91393500Y-65422913D01*
X91393500Y-82125500D01*
X91373815Y-82192539D01*
X91321011Y-82238294D01*
X91269500Y-82249500D01*
X67480500Y-82249500D01*
X67413461Y-82229815D01*
X67367706Y-82177011D01*
X67356500Y-82125500D01*
X67356500Y-78740000D01*
X68494341Y-78740000D01*
X68514936Y-78975403D01*
X68514938Y-78975413D01*
X68576094Y-79203655D01*
X68576096Y-79203659D01*
X68576097Y-79203663D01*
X68675965Y-79417830D01*
X68675967Y-79417834D01*
X68784281Y-79572521D01*
X68811505Y-79611401D01*
X68978599Y-79778495D01*
X69075384Y-79846265D01*
X69172165Y-79914032D01*
X69172167Y-79914033D01*
X69172170Y-79914035D01*
X69386337Y-80013903D01*
X69614592Y-80075063D01*
X69791034Y-80090500D01*
X69849999Y-80095659D01*
X69850000Y-80095659D01*
X69850001Y-80095659D01*
X69908966Y-80090500D01*
X70085408Y-80075063D01*
X70313663Y-80013903D01*
X70527830Y-79914035D01*
X70721401Y-79778495D01*
X70888495Y-79611401D01*
X71024035Y-79417830D01*
X71123903Y-79203663D01*
X71185063Y-78975408D01*
X71205659Y-78740000D01*
X71185063Y-78504592D01*
X71123903Y-78276337D01*
X71024035Y-78062171D01*
X70888495Y-77868599D01*
X70888494Y-77868597D01*
X70721402Y-77701506D01*
X70721396Y-77701501D01*
X70535842Y-77571575D01*
X70492217Y-77516998D01*
X70485023Y-77447500D01*
X70516546Y-77385145D01*
X70535842Y-77368425D01*
X70648054Y-77289853D01*
X70721401Y-77238495D01*
X70888495Y-77071401D01*
X71024035Y-76877830D01*
X71123903Y-76663663D01*
X71185063Y-76435408D01*
X71205659Y-76200000D01*
X71185063Y-75964592D01*
X71123903Y-75736337D01*
X71024035Y-75522171D01*
X70888495Y-75328599D01*
X70888494Y-75328597D01*
X70721402Y-75161506D01*
X70721396Y-75161501D01*
X70535842Y-75031575D01*
X70492217Y-74976998D01*
X70485023Y-74907500D01*
X70516546Y-74845145D01*
X70535842Y-74828425D01*
X70558026Y-74812891D01*
X70721401Y-74698495D01*
X70888495Y-74531401D01*
X71024035Y-74337830D01*
X71123903Y-74123663D01*
X71185063Y-73895408D01*
X71205659Y-73660000D01*
X71185063Y-73424592D01*
X71123903Y-73196337D01*
X71024035Y-72982171D01*
X71014653Y-72968771D01*
X70888494Y-72788597D01*
X70721402Y-72621506D01*
X70721396Y-72621501D01*
X70535842Y-72491575D01*
X70492217Y-72436998D01*
X70485023Y-72367500D01*
X70516546Y-72305145D01*
X70535842Y-72288425D01*
X70596101Y-72246231D01*
X70721401Y-72158495D01*
X70888495Y-71991401D01*
X71024035Y-71797830D01*
X71123903Y-71583663D01*
X71185063Y-71355408D01*
X71205659Y-71120000D01*
X71185063Y-70884592D01*
X71123903Y-70656337D01*
X71024035Y-70442171D01*
X70888495Y-70248599D01*
X70888494Y-70248597D01*
X70721402Y-70081506D01*
X70721396Y-70081501D01*
X70535842Y-69951575D01*
X70492217Y-69896998D01*
X70485023Y-69827500D01*
X70516546Y-69765145D01*
X70535842Y-69748425D01*
X70596101Y-69706231D01*
X70721401Y-69618495D01*
X70888495Y-69451401D01*
X71024035Y-69257830D01*
X71123903Y-69043663D01*
X71185063Y-68815408D01*
X71205659Y-68580000D01*
X71185063Y-68344592D01*
X71123903Y-68116337D01*
X71024035Y-67902171D01*
X70888495Y-67708599D01*
X70888494Y-67708597D01*
X70721402Y-67541506D01*
X70721396Y-67541501D01*
X70535842Y-67411575D01*
X70492217Y-67356998D01*
X70485023Y-67287500D01*
X70516546Y-67225145D01*
X70535842Y-67208425D01*
X70596101Y-67166231D01*
X70721401Y-67078495D01*
X70888495Y-66911401D01*
X71024035Y-66717830D01*
X71123903Y-66503663D01*
X71185063Y-66275408D01*
X71205659Y-66040000D01*
X71185063Y-65804592D01*
X71128379Y-65593041D01*
X71123905Y-65576344D01*
X71123904Y-65576343D01*
X71123903Y-65576337D01*
X71024035Y-65362171D01*
X70915882Y-65207711D01*
X70888494Y-65168597D01*
X70721402Y-65001506D01*
X70721396Y-65001501D01*
X70535842Y-64871575D01*
X70492217Y-64816998D01*
X70485023Y-64747500D01*
X70516546Y-64685145D01*
X70535842Y-64668425D01*
X70596101Y-64626231D01*
X70721401Y-64538495D01*
X70888495Y-64371401D01*
X71024035Y-64177830D01*
X71123903Y-63963663D01*
X71185063Y-63735408D01*
X71205659Y-63500000D01*
X71185063Y-63264592D01*
X71123903Y-63036337D01*
X71024035Y-62822171D01*
X71023890Y-62821963D01*
X70888494Y-62628597D01*
X70721402Y-62461506D01*
X70721396Y-62461501D01*
X70535842Y-62331575D01*
X70492217Y-62276998D01*
X70485023Y-62207500D01*
X70516546Y-62145145D01*
X70535842Y-62128425D01*
X70596101Y-62086231D01*
X70721401Y-61998495D01*
X70888495Y-61831401D01*
X71024035Y-61637830D01*
X71123903Y-61423663D01*
X71185063Y-61195408D01*
X71205659Y-60960000D01*
X71185063Y-60724592D01*
X71123903Y-60496337D01*
X71024035Y-60282171D01*
X70950814Y-60177599D01*
X70888494Y-60088597D01*
X70721402Y-59921506D01*
X70721396Y-59921501D01*
X70535842Y-59791575D01*
X70492217Y-59736998D01*
X70485023Y-59667500D01*
X70516546Y-59605145D01*
X70535842Y-59588425D01*
X70596101Y-59546231D01*
X70721401Y-59458495D01*
X70888495Y-59291401D01*
X71024035Y-59097830D01*
X71123903Y-58883663D01*
X71185063Y-58655408D01*
X71205659Y-58420000D01*
X71185063Y-58184592D01*
X71123903Y-57956337D01*
X71024035Y-57742171D01*
X70950813Y-57637599D01*
X70888496Y-57548600D01*
X70888493Y-57548597D01*
X70766567Y-57426671D01*
X70733084Y-57365351D01*
X70738068Y-57295659D01*
X70779939Y-57239725D01*
X70810915Y-57222810D01*
X70942331Y-57173796D01*
X71057546Y-57087546D01*
X71143796Y-56972331D01*
X71194091Y-56837483D01*
X71200500Y-56777873D01*
X71200499Y-54982128D01*
X71194091Y-54922517D01*
X71171591Y-54862192D01*
X71143797Y-54787671D01*
X71143793Y-54787664D01*
X71057547Y-54672455D01*
X71057544Y-54672452D01*
X70942335Y-54586206D01*
X70942328Y-54586202D01*
X70807482Y-54535908D01*
X70807483Y-54535908D01*
X70747883Y-54529501D01*
X70747881Y-54529500D01*
X70747873Y-54529500D01*
X70747864Y-54529500D01*
X68952129Y-54529500D01*
X68952123Y-54529501D01*
X68892516Y-54535908D01*
X68757671Y-54586202D01*
X68757664Y-54586206D01*
X68642455Y-54672452D01*
X68642452Y-54672455D01*
X68556206Y-54787664D01*
X68556202Y-54787671D01*
X68505908Y-54922517D01*
X68499501Y-54982116D01*
X68499501Y-54982123D01*
X68499500Y-54982135D01*
X68499500Y-56777870D01*
X68499501Y-56777876D01*
X68505908Y-56837483D01*
X68556202Y-56972328D01*
X68556206Y-56972335D01*
X68642452Y-57087544D01*
X68642455Y-57087547D01*
X68757664Y-57173793D01*
X68757671Y-57173797D01*
X68889081Y-57222810D01*
X68945015Y-57264681D01*
X68969432Y-57330145D01*
X68954580Y-57398418D01*
X68933430Y-57426673D01*
X68811503Y-57548600D01*
X68675965Y-57742169D01*
X68675964Y-57742171D01*
X68576098Y-57956335D01*
X68576094Y-57956344D01*
X68514938Y-58184586D01*
X68514936Y-58184596D01*
X68494341Y-58419999D01*
X68494341Y-58420000D01*
X68514936Y-58655403D01*
X68514938Y-58655413D01*
X68576094Y-58883655D01*
X68576096Y-58883659D01*
X68576097Y-58883663D01*
X68675965Y-59097830D01*
X68675967Y-59097834D01*
X68811501Y-59291395D01*
X68811506Y-59291402D01*
X68978597Y-59458493D01*
X68978603Y-59458498D01*
X69164158Y-59588425D01*
X69207783Y-59643002D01*
X69214977Y-59712500D01*
X69183454Y-59774855D01*
X69164158Y-59791575D01*
X68978597Y-59921505D01*
X68811505Y-60088597D01*
X68675965Y-60282169D01*
X68675964Y-60282171D01*
X68576098Y-60496335D01*
X68576094Y-60496344D01*
X68514938Y-60724586D01*
X68514936Y-60724596D01*
X68494341Y-60959999D01*
X68494341Y-60960000D01*
X68514936Y-61195403D01*
X68514938Y-61195413D01*
X68576094Y-61423655D01*
X68576096Y-61423659D01*
X68576097Y-61423663D01*
X68671015Y-61627214D01*
X68675965Y-61637830D01*
X68675967Y-61637834D01*
X68811501Y-61831395D01*
X68811506Y-61831402D01*
X68978597Y-61998493D01*
X68978603Y-61998498D01*
X69164158Y-62128425D01*
X69207783Y-62183002D01*
X69214977Y-62252500D01*
X69183454Y-62314855D01*
X69164158Y-62331575D01*
X68978597Y-62461505D01*
X68811505Y-62628597D01*
X68675965Y-62822169D01*
X68675964Y-62822171D01*
X68576098Y-63036335D01*
X68576094Y-63036344D01*
X68514938Y-63264586D01*
X68514936Y-63264596D01*
X68494341Y-63499999D01*
X68494341Y-63500000D01*
X68514936Y-63735403D01*
X68514938Y-63735413D01*
X68576094Y-63963655D01*
X68576096Y-63963659D01*
X68576097Y-63963663D01*
X68611670Y-64039949D01*
X68675965Y-64177830D01*
X68675967Y-64177834D01*
X68811501Y-64371395D01*
X68811506Y-64371402D01*
X68978597Y-64538493D01*
X68978603Y-64538498D01*
X69164158Y-64668425D01*
X69207783Y-64723002D01*
X69214977Y-64792500D01*
X69183454Y-64854855D01*
X69164158Y-64871575D01*
X68978597Y-65001505D01*
X68811505Y-65168597D01*
X68675965Y-65362169D01*
X68675964Y-65362171D01*
X68609925Y-65503793D01*
X68577226Y-65573917D01*
X68576098Y-65576335D01*
X68576094Y-65576344D01*
X68514938Y-65804586D01*
X68514936Y-65804596D01*
X68494341Y-66039999D01*
X68494341Y-66040000D01*
X68514936Y-66275403D01*
X68514938Y-66275413D01*
X68576094Y-66503655D01*
X68576096Y-66503659D01*
X68576097Y-66503663D01*
X68638886Y-66638314D01*
X68675965Y-66717830D01*
X68675967Y-66717834D01*
X68811501Y-66911395D01*
X68811506Y-66911402D01*
X68978597Y-67078493D01*
X68978603Y-67078498D01*
X69164158Y-67208425D01*
X69207783Y-67263002D01*
X69214977Y-67332500D01*
X69183454Y-67394855D01*
X69164158Y-67411575D01*
X68978597Y-67541505D01*
X68811505Y-67708597D01*
X68675965Y-67902169D01*
X68675964Y-67902171D01*
X68576098Y-68116335D01*
X68576094Y-68116344D01*
X68514938Y-68344586D01*
X68514936Y-68344596D01*
X68494341Y-68579999D01*
X68494341Y-68580000D01*
X68514936Y-68815403D01*
X68514938Y-68815413D01*
X68576094Y-69043655D01*
X68576096Y-69043659D01*
X68576097Y-69043663D01*
X68675965Y-69257830D01*
X68675967Y-69257834D01*
X68811501Y-69451395D01*
X68811506Y-69451402D01*
X68978597Y-69618493D01*
X68978603Y-69618498D01*
X69164158Y-69748425D01*
X69207783Y-69803002D01*
X69214977Y-69872500D01*
X69183454Y-69934855D01*
X69164158Y-69951575D01*
X68978597Y-70081505D01*
X68811505Y-70248597D01*
X68675965Y-70442169D01*
X68675964Y-70442171D01*
X68576098Y-70656335D01*
X68576094Y-70656344D01*
X68514938Y-70884586D01*
X68514936Y-70884596D01*
X68494341Y-71119999D01*
X68494341Y-71120000D01*
X68514936Y-71355403D01*
X68514938Y-71355413D01*
X68576094Y-71583655D01*
X68576096Y-71583659D01*
X68576097Y-71583663D01*
X68675965Y-71797830D01*
X68675967Y-71797834D01*
X68811501Y-71991395D01*
X68811506Y-71991402D01*
X68978597Y-72158493D01*
X68978603Y-72158498D01*
X69164158Y-72288425D01*
X69207783Y-72343002D01*
X69214977Y-72412500D01*
X69183454Y-72474855D01*
X69164158Y-72491575D01*
X68978597Y-72621505D01*
X68811505Y-72788597D01*
X68675965Y-72982169D01*
X68675964Y-72982171D01*
X68576098Y-73196335D01*
X68576094Y-73196344D01*
X68514938Y-73424586D01*
X68514936Y-73424596D01*
X68494341Y-73659999D01*
X68494341Y-73660000D01*
X68514936Y-73895403D01*
X68514938Y-73895413D01*
X68576094Y-74123655D01*
X68576096Y-74123659D01*
X68576097Y-74123663D01*
X68675965Y-74337830D01*
X68675967Y-74337834D01*
X68811501Y-74531395D01*
X68811506Y-74531402D01*
X68978597Y-74698493D01*
X68978603Y-74698498D01*
X69164158Y-74828425D01*
X69207783Y-74883002D01*
X69214977Y-74952500D01*
X69183454Y-75014855D01*
X69164158Y-75031575D01*
X68978597Y-75161505D01*
X68811505Y-75328597D01*
X68675965Y-75522169D01*
X68675964Y-75522171D01*
X68576098Y-75736335D01*
X68576094Y-75736344D01*
X68514938Y-75964586D01*
X68514936Y-75964596D01*
X68494341Y-76199999D01*
X68494341Y-76200000D01*
X68514936Y-76435403D01*
X68514938Y-76435413D01*
X68576094Y-76663655D01*
X68576096Y-76663659D01*
X68576097Y-76663663D01*
X68675965Y-76877830D01*
X68675967Y-76877834D01*
X68784281Y-77032521D01*
X68811501Y-77071396D01*
X68811506Y-77071402D01*
X68978597Y-77238493D01*
X68978603Y-77238498D01*
X69164158Y-77368425D01*
X69207783Y-77423002D01*
X69214977Y-77492500D01*
X69183454Y-77554855D01*
X69164158Y-77571575D01*
X68978597Y-77701505D01*
X68811505Y-77868597D01*
X68675965Y-78062169D01*
X68675964Y-78062171D01*
X68576098Y-78276335D01*
X68576094Y-78276344D01*
X68514938Y-78504586D01*
X68514936Y-78504596D01*
X68494341Y-78739999D01*
X68494341Y-78740000D01*
X67356500Y-78740000D01*
X67356500Y-38778500D01*
X67376185Y-38711461D01*
X67428989Y-38665706D01*
X67480500Y-38654500D01*
X72167813Y-38654500D01*
X72234852Y-38674185D01*
G37*
%TD.AperFunction*%
M02*
