M48
; DRILL file {KiCad 7.0.10} date 
; FORMAT={-:-/ absolute / inch / decimal}
; #@! TF.CreationDate,2024-02-11T00:06:44+01:00
; #@! TF.GenerationSoftware,Kicad,Pcbnew,7.0.10
; #@! TF.FileFunction,Plated,1,2,PTH
FMAT,2
INCH
; #@! TA.AperFunction,Plated,PTH,ViaDrill
T1C0.0157
; #@! TA.AperFunction,Plated,PTH,ComponentDrill
T2C0.0394
%
G90
G05
T1
X2.8428Y-1.582
X2.8724Y-1.5524
X2.9019Y-1.582
X2.9314Y-1.5524
X2.9609Y-1.582
X2.9905Y-1.5526
X3.02Y-1.582
X3.0495Y-1.5524
X3.0791Y-1.582
X3.1086Y-1.5524
X3.1381Y-1.582
X3.1676Y-1.5524
X3.1972Y-1.582
X3.2267Y-1.5524
X3.2562Y-1.582
X3.2857Y-1.5524
X3.3153Y-1.582
X3.3448Y-1.5524
X3.3743Y-1.582
X3.4039Y-1.5524
T2
X2.75Y-2.2
X2.75Y-2.3
X2.75Y-2.4
X2.75Y-2.5
X2.75Y-2.6
X2.75Y-2.7
X2.75Y-2.8
X2.75Y-2.9
X2.75Y-3.0
X2.75Y-3.1
X3.0Y-2.2
X3.0Y-2.3
X3.0Y-2.4
X3.0Y-2.5
X3.0Y-2.6
X3.0Y-2.7
X3.0Y-2.8
X3.0Y-2.9
X3.0Y-3.0
X3.0Y-3.1
X3.25Y-2.2
X3.25Y-2.3
X3.25Y-2.4
X3.25Y-2.5
X3.25Y-2.6
X3.25Y-2.7
X3.25Y-2.8
X3.25Y-2.9
X3.25Y-3.0
X3.25Y-3.1
X3.5Y-2.2
X3.5Y-2.3
X3.5Y-2.4
X3.5Y-2.5
X3.5Y-2.6
X3.5Y-2.7
X3.5Y-2.8
X3.5Y-2.9
X3.5Y-3.0
X3.5Y-3.1
X3.82Y-2.0692
X3.82Y-2.1692
X3.82Y-2.2692
X3.82Y-2.3692
X3.82Y-2.4692
X3.92Y-2.0692
X3.92Y-2.1692
X3.92Y-2.2692
X3.92Y-2.3692
X3.92Y-2.4692
M30
