%TF.GenerationSoftware,KiCad,Pcbnew,7.0.10*%
%TF.CreationDate,2024-02-11T00:06:50+01:00*%
%TF.ProjectId,ICOM-Internal-modules,49434f4d-2d49-46e7-9465-726e616c2d6d,rev?*%
%TF.SameCoordinates,Original*%
%TF.FileFunction,Copper,L1,Top*%
%TF.FilePolarity,Positive*%
%FSLAX46Y46*%
G04 Gerber Fmt 4.6, Leading zero omitted, Abs format (unit mm)*
G04 Created by KiCad (PCBNEW 7.0.10) date 2024-02-11 00:06:50*
%MOMM*%
%LPD*%
G01*
G04 APERTURE LIST*
%TA.AperFunction,SMDPad,CuDef*%
%ADD10R,0.750000X2.300000*%
%TD*%
%TA.AperFunction,SMDPad,CuDef*%
%ADD11R,0.250000X2.300000*%
%TD*%
%TA.AperFunction,SMDPad,CuDef*%
%ADD12R,0.508000X2.030000*%
%TD*%
%TA.AperFunction,ComponentPad*%
%ADD13R,1.700000X1.700000*%
%TD*%
%TA.AperFunction,ComponentPad*%
%ADD14O,1.700000X1.700000*%
%TD*%
%TA.AperFunction,ViaPad*%
%ADD15C,0.800000*%
%TD*%
%TA.AperFunction,Conductor*%
%ADD16C,0.250000*%
%TD*%
G04 APERTURE END LIST*
D10*
%TO.P,J1,1,1*%
%TO.N,Net-(J1-Pad1)*%
X74328000Y-47242000D03*
%TO.P,J1,2,2*%
%TO.N,Net-(J1-Pad2)*%
X74328000Y-43942000D03*
D11*
%TO.P,J1,3,3*%
%TO.N,Net-(J1-Pad3)*%
X75078000Y-47242000D03*
%TO.P,J1,4,4*%
%TO.N,Net-(J1-Pad4)*%
X75078000Y-43942000D03*
%TO.P,J1,5,5*%
%TO.N,Net-(J1-Pad5)*%
X75578000Y-47242000D03*
%TO.P,J1,6,6*%
%TO.N,Net-(J1-Pad6)*%
X75578000Y-43942000D03*
%TO.P,J1,7,7*%
%TO.N,Net-(J1-Pad7)*%
X76078000Y-47242000D03*
%TO.P,J1,8,8*%
%TO.N,Net-(J1-Pad8)*%
X76078000Y-43942000D03*
%TO.P,J1,9,9*%
%TO.N,Net-(J1-Pad9)*%
X76578000Y-47242000D03*
%TO.P,J1,10,10*%
%TO.N,Net-(J1-Pad10)*%
X76578000Y-43942000D03*
%TO.P,J1,11,11*%
%TO.N,Net-(J1-Pad11)*%
X77078000Y-47242000D03*
%TO.P,J1,12,12*%
%TO.N,Net-(J1-Pad12)*%
X77078000Y-43942000D03*
%TO.P,J1,13,13*%
%TO.N,Net-(J1-Pad13)*%
X77578000Y-47242000D03*
%TO.P,J1,14,14*%
%TO.N,Net-(J1-Pad14)*%
X77578000Y-43942000D03*
%TO.P,J1,15,15*%
%TO.N,Net-(J1-Pad15)*%
X78078000Y-47242000D03*
%TO.P,J1,16,16*%
%TO.N,Net-(J1-Pad16)*%
X78078000Y-43942000D03*
%TO.P,J1,17,17*%
%TO.N,Net-(J1-Pad17)*%
X78578000Y-47242000D03*
%TO.P,J1,18,18*%
%TO.N,Net-(J1-Pad18)*%
X78578000Y-43942000D03*
%TO.P,J1,19,19*%
%TO.N,Net-(J1-Pad19)*%
X79078000Y-47242000D03*
%TO.P,J1,20,20*%
%TO.N,Net-(J1-Pad20)*%
X79078000Y-43942000D03*
%TO.P,J1,21,21*%
%TO.N,Net-(J1-Pad21)*%
X79578000Y-47242000D03*
%TO.P,J1,22,22*%
%TO.N,Net-(J1-Pad22)*%
X79578000Y-43942000D03*
%TO.P,J1,23,23*%
%TO.N,Net-(J1-Pad23)*%
X80078000Y-47242000D03*
%TO.P,J1,24,24*%
%TO.N,Net-(J1-Pad24)*%
X80078000Y-43942000D03*
%TO.P,J1,25,25*%
%TO.N,Net-(J1-Pad25)*%
X80578000Y-47242000D03*
%TO.P,J1,26,26*%
%TO.N,Net-(J1-Pad26)*%
X80578000Y-43942000D03*
%TO.P,J1,27,27*%
%TO.N,Net-(J1-Pad27)*%
X81078000Y-47242000D03*
%TO.P,J1,28,28*%
%TO.N,Net-(J1-Pad28)*%
X81078000Y-43942000D03*
%TO.P,J1,29,29*%
%TO.N,Net-(J1-Pad29)*%
X81578000Y-47242000D03*
%TO.P,J1,30,30*%
%TO.N,Net-(J1-Pad30)*%
X81578000Y-43942000D03*
%TO.P,J1,31,31*%
%TO.N,Net-(J1-Pad31)*%
X82078000Y-47242000D03*
%TO.P,J1,32,32*%
%TO.N,Net-(J1-Pad32)*%
X82078000Y-43942000D03*
%TO.P,J1,33,33*%
%TO.N,Net-(J1-Pad33)*%
X82578000Y-47242000D03*
%TO.P,J1,34,34*%
%TO.N,Net-(J1-Pad34)*%
X82578000Y-43942000D03*
%TO.P,J1,35,35*%
%TO.N,Net-(J1-Pad35)*%
X83078000Y-47242000D03*
%TO.P,J1,36,36*%
%TO.N,Net-(J1-Pad36)*%
X83078000Y-43942000D03*
%TO.P,J1,37,37*%
%TO.N,Net-(J1-Pad37)*%
X83578000Y-47242000D03*
%TO.P,J1,38,38*%
%TO.N,Net-(J1-Pad38)*%
X83578000Y-43942000D03*
D10*
%TO.P,J1,39,39*%
%TO.N,Net-(J1-Pad39)*%
X84328000Y-47242000D03*
%TO.P,J1,40,40*%
%TO.N,Net-(J1-Pad40)*%
X84328000Y-43942000D03*
%TD*%
D12*
%TO.P,J6,1,1*%
%TO.N,Net-(J6-Pad1)*%
X96952000Y-45592000D03*
%TO.P,J6,2,2*%
%TO.N,Net-(J6-Pad2)*%
X96952000Y-42292000D03*
%TO.P,J6,3,3*%
%TO.N,Net-(J6-Pad3)*%
X97752000Y-45592000D03*
%TO.P,J6,4,4*%
%TO.N,Net-(J6-Pad4)*%
X97752000Y-42292000D03*
%TO.P,J6,5,5*%
%TO.N,Net-(J6-Pad5)*%
X98552000Y-45592000D03*
%TO.P,J6,6,6*%
%TO.N,Net-(J6-Pad6)*%
X98552000Y-42292000D03*
%TO.P,J6,7,7*%
%TO.N,Net-(J6-Pad7)*%
X99352000Y-45592000D03*
%TO.P,J6,8,8*%
%TO.N,Net-(J6-Pad8)*%
X99352000Y-42292000D03*
%TO.P,J6,9,9*%
%TO.N,Net-(J6-Pad9)*%
X100152000Y-45592000D03*
%TO.P,J6,10,10*%
%TO.N,Net-(J6-Pad10)*%
X100152000Y-42292000D03*
%TD*%
D13*
%TO.P,J2,1*%
%TO.N,Net-(J1-Pad1)*%
X69850000Y-55880000D03*
D14*
%TO.P,J2,2*%
%TO.N,Net-(J1-Pad3)*%
X69850000Y-58420000D03*
%TO.P,J2,3*%
%TO.N,Net-(J1-Pad5)*%
X69850000Y-60960000D03*
%TO.P,J2,4*%
%TO.N,Net-(J1-Pad7)*%
X69850000Y-63500000D03*
%TO.P,J2,5*%
%TO.N,Net-(J1-Pad9)*%
X69850000Y-66040000D03*
%TO.P,J2,6*%
%TO.N,Net-(J1-Pad11)*%
X69850000Y-68580000D03*
%TO.P,J2,7*%
%TO.N,Net-(J1-Pad13)*%
X69850000Y-71120000D03*
%TO.P,J2,8*%
%TO.N,Net-(J1-Pad15)*%
X69850000Y-73660000D03*
%TO.P,J2,9*%
%TO.N,Net-(J1-Pad17)*%
X69850000Y-76200000D03*
%TO.P,J2,10*%
%TO.N,Net-(J1-Pad19)*%
X69850000Y-78740000D03*
%TD*%
D13*
%TO.P,J4,1*%
%TO.N,Net-(J1-Pad2)*%
X82550000Y-78740000D03*
D14*
%TO.P,J4,2*%
%TO.N,Net-(J1-Pad4)*%
X82550000Y-76200000D03*
%TO.P,J4,3*%
%TO.N,Net-(J1-Pad6)*%
X82550000Y-73660000D03*
%TO.P,J4,4*%
%TO.N,Net-(J1-Pad8)*%
X82550000Y-71120000D03*
%TO.P,J4,5*%
%TO.N,Net-(J1-Pad10)*%
X82550000Y-68580000D03*
%TO.P,J4,6*%
%TO.N,Net-(J1-Pad12)*%
X82550000Y-66040000D03*
%TO.P,J4,7*%
%TO.N,Net-(J1-Pad14)*%
X82550000Y-63500000D03*
%TO.P,J4,8*%
%TO.N,Net-(J1-Pad16)*%
X82550000Y-60960000D03*
%TO.P,J4,9*%
%TO.N,Net-(J1-Pad18)*%
X82550000Y-58420000D03*
%TO.P,J4,10*%
%TO.N,Net-(J1-Pad20)*%
X82550000Y-55880000D03*
%TD*%
D13*
%TO.P,J3,1*%
%TO.N,Net-(J1-Pad21)*%
X76200000Y-55880000D03*
D14*
%TO.P,J3,2*%
%TO.N,Net-(J1-Pad23)*%
X76200000Y-58420000D03*
%TO.P,J3,3*%
%TO.N,Net-(J1-Pad25)*%
X76200000Y-60960000D03*
%TO.P,J3,4*%
%TO.N,Net-(J1-Pad27)*%
X76200000Y-63500000D03*
%TO.P,J3,5*%
%TO.N,Net-(J1-Pad29)*%
X76200000Y-66040000D03*
%TO.P,J3,6*%
%TO.N,Net-(J1-Pad31)*%
X76200000Y-68580000D03*
%TO.P,J3,7*%
%TO.N,Net-(J1-Pad33)*%
X76200000Y-71120000D03*
%TO.P,J3,8*%
%TO.N,Net-(J1-Pad35)*%
X76200000Y-73660000D03*
%TO.P,J3,9*%
%TO.N,Net-(J1-Pad37)*%
X76200000Y-76200000D03*
%TO.P,J3,10*%
%TO.N,Net-(J1-Pad39)*%
X76200000Y-78740000D03*
%TD*%
D13*
%TO.P,J7,1*%
%TO.N,Net-(J6-Pad10)*%
X99568000Y-52557600D03*
D14*
%TO.P,J7,2*%
%TO.N,Net-(J6-Pad9)*%
X97028000Y-52557600D03*
%TO.P,J7,3*%
%TO.N,Net-(J6-Pad8)*%
X99568000Y-55097600D03*
%TO.P,J7,4*%
%TO.N,Net-(J6-Pad7)*%
X97028000Y-55097600D03*
%TO.P,J7,5*%
%TO.N,Net-(J6-Pad6)*%
X99568000Y-57637600D03*
%TO.P,J7,6*%
%TO.N,Net-(J6-Pad5)*%
X97028000Y-57637600D03*
%TO.P,J7,7*%
%TO.N,Net-(J6-Pad4)*%
X99568000Y-60177600D03*
%TO.P,J7,8*%
%TO.N,Net-(J6-Pad3)*%
X97028000Y-60177600D03*
%TO.P,J7,9*%
%TO.N,Net-(J6-Pad2)*%
X99568000Y-62717600D03*
%TO.P,J7,10*%
%TO.N,Net-(J6-Pad1)*%
X97028000Y-62717600D03*
%TD*%
D13*
%TO.P,J5,1*%
%TO.N,Net-(J1-Pad22)*%
X88900000Y-78740000D03*
D14*
%TO.P,J5,2*%
%TO.N,Net-(J1-Pad24)*%
X88900000Y-76200000D03*
%TO.P,J5,3*%
%TO.N,Net-(J1-Pad26)*%
X88900000Y-73660000D03*
%TO.P,J5,4*%
%TO.N,Net-(J1-Pad28)*%
X88900000Y-71120000D03*
%TO.P,J5,5*%
%TO.N,Net-(J1-Pad30)*%
X88900000Y-68580000D03*
%TO.P,J5,6*%
%TO.N,Net-(J1-Pad32)*%
X88900000Y-66040000D03*
%TO.P,J5,7*%
%TO.N,Net-(J1-Pad34)*%
X88900000Y-63500000D03*
%TO.P,J5,8*%
%TO.N,Net-(J1-Pad36)*%
X88900000Y-60960000D03*
%TO.P,J5,9*%
%TO.N,Net-(J1-Pad38)*%
X88900000Y-58420000D03*
%TO.P,J5,10*%
%TO.N,Net-(J1-Pad40)*%
X88900000Y-55880000D03*
%TD*%
D15*
%TO.N,Net-(J1-Pad2)*%
X72208000Y-40182000D03*
%TO.N,Net-(J1-Pad4)*%
X72958000Y-39432000D03*
%TO.N,Net-(J1-Pad6)*%
X73708000Y-40182000D03*
%TO.N,Net-(J1-Pad8)*%
X74458000Y-39432000D03*
%TO.N,Net-(J1-Pad10)*%
X75208000Y-40182000D03*
%TO.N,Net-(J1-Pad12)*%
X75958000Y-39436423D03*
%TO.N,Net-(J1-Pad14)*%
X76708000Y-40182000D03*
%TO.N,Net-(J1-Pad16)*%
X77458000Y-39432000D03*
%TO.N,Net-(J1-Pad18)*%
X78208000Y-40182000D03*
%TO.N,Net-(J1-Pad20)*%
X78958000Y-39432000D03*
%TO.N,Net-(J1-Pad22)*%
X79708000Y-40182000D03*
%TO.N,Net-(J1-Pad24)*%
X80458000Y-39432000D03*
%TO.N,Net-(J1-Pad26)*%
X81208000Y-40182000D03*
%TO.N,Net-(J1-Pad28)*%
X81958000Y-39432000D03*
%TO.N,Net-(J1-Pad30)*%
X82708000Y-40182000D03*
%TO.N,Net-(J1-Pad32)*%
X83458000Y-39432000D03*
%TO.N,Net-(J1-Pad34)*%
X84208000Y-40182000D03*
%TO.N,Net-(J1-Pad36)*%
X84958000Y-39432000D03*
%TO.N,Net-(J1-Pad38)*%
X85708000Y-40182000D03*
%TO.N,Net-(J1-Pad40)*%
X86458000Y-39432000D03*
%TD*%
D16*
%TO.N,Net-(J1-Pad1)*%
X70670000Y-55060000D02*
X69850000Y-55880000D01*
X70670000Y-53128476D02*
X70670000Y-55060000D01*
X74328000Y-49470476D02*
X70670000Y-53128476D01*
X74328000Y-47242000D02*
X74328000Y-49470476D01*
%TO.N,Net-(J1-Pad2)*%
X74328000Y-42463701D02*
X72208000Y-40343701D01*
X74328000Y-43942000D02*
X74328000Y-42463701D01*
X72208000Y-40343701D02*
X72208000Y-40182000D01*
%TO.N,Net-(J1-Pad3)*%
X69850000Y-58420000D02*
X71120000Y-57150000D01*
X71120000Y-53314872D02*
X75078000Y-49356872D01*
X75078000Y-49356872D02*
X75078000Y-47242000D01*
X71120000Y-57150000D02*
X71120000Y-53314872D01*
%TO.N,Net-(J1-Pad4)*%
X72958000Y-40457305D02*
X72958000Y-39432000D01*
X75078000Y-42577305D02*
X72958000Y-40457305D01*
X75078000Y-43942000D02*
X75078000Y-42577305D01*
%TO.N,Net-(J1-Pad5)*%
X71570000Y-59240000D02*
X71570000Y-53501268D01*
X69850000Y-60960000D02*
X71570000Y-59240000D01*
X71570000Y-53501268D02*
X75578000Y-49493268D01*
X75578000Y-49493268D02*
X75578000Y-47242000D01*
%TO.N,Net-(J1-Pad6)*%
X75578000Y-42380604D02*
X73708000Y-40510604D01*
X75578000Y-43942000D02*
X75578000Y-42380604D01*
X73708000Y-40510604D02*
X73708000Y-40182000D01*
%TO.N,Net-(J1-Pad7)*%
X72020000Y-61330000D02*
X69850000Y-63500000D01*
X76078000Y-47242000D02*
X76078000Y-49629664D01*
X76078000Y-49629664D02*
X72020000Y-53687664D01*
X72020000Y-53687664D02*
X72020000Y-61330000D01*
%TO.N,Net-(J1-Pad8)*%
X76078000Y-43942000D02*
X76078000Y-42244208D01*
X76078000Y-42244208D02*
X74458000Y-40624208D01*
X74458000Y-40624208D02*
X74458000Y-39432000D01*
%TO.N,Net-(J1-Pad9)*%
X76578000Y-49766060D02*
X72470000Y-53874060D01*
X72470000Y-53874060D02*
X72470000Y-63420000D01*
X72470000Y-63420000D02*
X69850000Y-66040000D01*
X76578000Y-47242000D02*
X76578000Y-49766060D01*
%TO.N,Net-(J1-Pad10)*%
X75208000Y-40182000D02*
X75208000Y-40737812D01*
X76578000Y-42107812D02*
X76578000Y-43942000D01*
X75258000Y-40787812D02*
X76578000Y-42107812D01*
%TO.N,Net-(J1-Pad11)*%
X72920000Y-54991000D02*
X72920000Y-65510000D01*
X72920000Y-54060456D02*
X72920000Y-54991000D01*
X77078000Y-47242000D02*
X77078000Y-49902456D01*
X72920000Y-65510000D02*
X69850000Y-68580000D01*
X77078000Y-49902456D02*
X72920000Y-54060456D01*
%TO.N,Net-(J1-Pad12)*%
X76008000Y-40901416D02*
X77078000Y-41971416D01*
X75958000Y-39436423D02*
X75958000Y-40851416D01*
X77078000Y-41971416D02*
X77078000Y-43942000D01*
%TO.N,Net-(J1-Pad13)*%
X73370000Y-55118000D02*
X73370000Y-67600000D01*
X73370000Y-67600000D02*
X69850000Y-71120000D01*
X73370000Y-54246852D02*
X73370000Y-55118000D01*
X77578000Y-50038852D02*
X73370000Y-54246852D01*
X77578000Y-47242000D02*
X77578000Y-50038852D01*
%TO.N,Net-(J1-Pad14)*%
X76758000Y-41015020D02*
X77578000Y-41835020D01*
X76708000Y-40182000D02*
X76708000Y-40965020D01*
X77578000Y-41835020D02*
X77578000Y-43942000D01*
%TO.N,Net-(J1-Pad15)*%
X73820000Y-54433248D02*
X73820000Y-55372000D01*
X73820000Y-69690000D02*
X69850000Y-73660000D01*
X78078000Y-50175248D02*
X73820000Y-54433248D01*
X73820000Y-55372000D02*
X73820000Y-69690000D01*
X78078000Y-47242000D02*
X78078000Y-50175248D01*
%TO.N,Net-(J1-Pad16)*%
X77508000Y-41128624D02*
X78078000Y-41698624D01*
X77458000Y-39432000D02*
X77458000Y-41078624D01*
X78078000Y-41698624D02*
X78078000Y-43942000D01*
%TO.N,Net-(J1-Pad17)*%
X74270000Y-55245000D02*
X74270000Y-71780000D01*
X78578000Y-50311644D02*
X74270000Y-54619644D01*
X74270000Y-71780000D02*
X69850000Y-76200000D01*
X74270000Y-54619644D02*
X74270000Y-55245000D01*
X78578000Y-47242000D02*
X78578000Y-50311644D01*
%TO.N,Net-(J1-Pad18)*%
X78578000Y-43942000D02*
X78578000Y-41552000D01*
X78208000Y-40182000D02*
X78208000Y-41182000D01*
X78578000Y-41552000D02*
X78208000Y-41182000D01*
%TO.N,Net-(J1-Pad19)*%
X74720000Y-54806040D02*
X74720000Y-55753000D01*
X79078000Y-50448040D02*
X74720000Y-54806040D01*
X74720000Y-73870000D02*
X69850000Y-78740000D01*
X74720000Y-55753000D02*
X74720000Y-73870000D01*
X79078000Y-47242000D02*
X79078000Y-50448040D01*
%TO.N,Net-(J1-Pad20)*%
X78958000Y-39432000D02*
X78958000Y-41268000D01*
X79078000Y-41388000D02*
X79078000Y-43942000D01*
X78958000Y-39432000D02*
X78978000Y-39452000D01*
X78958000Y-41268000D02*
X79078000Y-41388000D01*
%TO.N,Net-(J1-Pad21)*%
X79578000Y-50584436D02*
X77020000Y-53142436D01*
X79578000Y-47242000D02*
X79578000Y-50584436D01*
X77020000Y-53142436D02*
X77020000Y-55060000D01*
X77020000Y-55060000D02*
X76200000Y-55880000D01*
%TO.N,Net-(J1-Pad22)*%
X79708000Y-41432000D02*
X79708000Y-40182000D01*
X79578000Y-43942000D02*
X79578000Y-41562000D01*
X79578000Y-41562000D02*
X79708000Y-41432000D01*
%TO.N,Net-(J1-Pad23)*%
X80078000Y-50720832D02*
X77470000Y-53328832D01*
X80078000Y-47242000D02*
X80078000Y-50720832D01*
X77470000Y-57150000D02*
X77470000Y-54229000D01*
X76200000Y-58420000D02*
X77470000Y-57150000D01*
X77470000Y-53328832D02*
X77470000Y-54229000D01*
%TO.N,Net-(J1-Pad24)*%
X80078000Y-41698396D02*
X80458000Y-41318396D01*
X80078000Y-43942000D02*
X80078000Y-41698396D01*
X80458000Y-41318396D02*
X80458000Y-39432000D01*
%TO.N,Net-(J1-Pad25)*%
X76200000Y-60960000D02*
X77920000Y-59240000D01*
X80578000Y-50857228D02*
X77920000Y-53515228D01*
X80578000Y-47242000D02*
X80578000Y-50857228D01*
X77920000Y-59240000D02*
X77920000Y-55372000D01*
X77920000Y-53515228D02*
X77920000Y-55372000D01*
%TO.N,Net-(J1-Pad26)*%
X80578000Y-43942000D02*
X80578000Y-41834792D01*
X80578000Y-41834792D02*
X81208000Y-41204792D01*
X81208000Y-41204792D02*
X81208000Y-40182000D01*
%TO.N,Net-(J1-Pad27)*%
X78370000Y-54610000D02*
X78370000Y-61330000D01*
X78370000Y-61330000D02*
X76200000Y-63500000D01*
X81078000Y-50993624D02*
X78370000Y-53701624D01*
X78370000Y-53701624D02*
X78370000Y-54610000D01*
X81078000Y-47242000D02*
X81078000Y-50993624D01*
%TO.N,Net-(J1-Pad28)*%
X81958000Y-41091188D02*
X81958000Y-39432000D01*
X81078000Y-41971188D02*
X81958000Y-41091188D01*
X81078000Y-43942000D02*
X81078000Y-41971188D01*
%TO.N,Net-(J1-Pad29)*%
X81578000Y-51130020D02*
X78820000Y-53888020D01*
X78820000Y-53888020D02*
X78820000Y-55118000D01*
X78820000Y-63420000D02*
X78820000Y-55118000D01*
X81578000Y-47242000D02*
X81578000Y-51130020D01*
X76200000Y-66040000D02*
X78820000Y-63420000D01*
%TO.N,Net-(J1-Pad30)*%
X82708000Y-40977584D02*
X82708000Y-40182000D01*
X81578000Y-42107584D02*
X82708000Y-40977584D01*
X81578000Y-43942000D02*
X81578000Y-42107584D01*
%TO.N,Net-(J1-Pad31)*%
X79270000Y-65510000D02*
X79270000Y-55118000D01*
X82078000Y-47242000D02*
X82078000Y-51266416D01*
X79270000Y-54074416D02*
X79270000Y-55118000D01*
X76200000Y-68580000D02*
X79270000Y-65510000D01*
X82078000Y-51266416D02*
X79270000Y-54074416D01*
%TO.N,Net-(J1-Pad32)*%
X82078000Y-43942000D02*
X82078000Y-42243980D01*
X83458000Y-40863980D02*
X83458000Y-39432000D01*
X82078000Y-42243980D02*
X83458000Y-40863980D01*
%TO.N,Net-(J1-Pad33)*%
X82578000Y-47242000D02*
X82578000Y-51402812D01*
X79720000Y-54260812D02*
X79720000Y-55753000D01*
X76200000Y-71120000D02*
X79720000Y-67600000D01*
X82578000Y-51402812D02*
X79720000Y-54260812D01*
X79720000Y-67600000D02*
X79720000Y-55753000D01*
%TO.N,Net-(J1-Pad34)*%
X82578000Y-43942000D02*
X82578000Y-42380376D01*
X82578000Y-42380376D02*
X84208000Y-40750376D01*
X84208000Y-40750376D02*
X84208000Y-40182000D01*
%TO.N,Net-(J1-Pad35)*%
X83078000Y-51539208D02*
X80170000Y-54447208D01*
X80170000Y-54447208D02*
X80170000Y-54737000D01*
X83078000Y-47242000D02*
X83078000Y-51539208D01*
X76200000Y-73660000D02*
X80170000Y-69690000D01*
X80170000Y-69690000D02*
X80170000Y-54737000D01*
%TO.N,Net-(J1-Pad36)*%
X84958000Y-40636772D02*
X84958000Y-39432000D01*
X83078000Y-42516772D02*
X84958000Y-40636772D01*
X83078000Y-43942000D02*
X83078000Y-42516772D01*
%TO.N,Net-(J1-Pad37)*%
X80620000Y-54991000D02*
X80620000Y-54633604D01*
X76200000Y-76200000D02*
X80620000Y-71780000D01*
X83578000Y-51675604D02*
X83578000Y-47242000D01*
X80620000Y-71780000D02*
X80620000Y-54991000D01*
X80620000Y-54633604D02*
X83578000Y-51675604D01*
%TO.N,Net-(J1-Pad38)*%
X83578000Y-42653168D02*
X85708000Y-40523168D01*
X85708000Y-40523168D02*
X85708000Y-40182000D01*
X83578000Y-43942000D02*
X83578000Y-42653168D01*
%TO.N,Net-(J1-Pad39)*%
X81070000Y-73870000D02*
X81070000Y-54820000D01*
X84328000Y-51562000D02*
X84328000Y-47242000D01*
X81070000Y-54820000D02*
X84328000Y-51562000D01*
X76200000Y-78740000D02*
X81070000Y-73870000D01*
%TO.N,Net-(J1-Pad40)*%
X84328000Y-43942000D02*
X84328000Y-42587305D01*
X86458000Y-40457305D02*
X86458000Y-39432000D01*
X84328000Y-42587305D02*
X86458000Y-40457305D01*
%TO.N,Net-(J6-Pad1)*%
X96952000Y-45592000D02*
X96952000Y-48369412D01*
X94154000Y-59848600D02*
X97023000Y-62717600D01*
X94154000Y-51167412D02*
X94154000Y-59848600D01*
X96952000Y-48369412D02*
X94154000Y-51167412D01*
%TO.N,Net-(J6-Pad2)*%
X96952000Y-41336604D02*
X98686604Y-39602000D01*
X102531000Y-40842812D02*
X102531000Y-59749600D01*
X101290188Y-39602000D02*
X102531000Y-40842812D01*
X98686604Y-39602000D02*
X101290188Y-39602000D01*
X96952000Y-42292000D02*
X96952000Y-41336604D01*
X102531000Y-59749600D02*
X99563000Y-62717600D01*
%TO.N,Net-(J6-Pad3)*%
X97752000Y-45592000D02*
X97752000Y-48205808D01*
X94604000Y-57758600D02*
X97023000Y-60177600D01*
X97752000Y-48205808D02*
X94604000Y-51353808D01*
X94604000Y-51353808D02*
X94604000Y-57758600D01*
%TO.N,Net-(J6-Pad4)*%
X102081000Y-57659600D02*
X102081000Y-41029208D01*
X102081000Y-41029208D02*
X101103792Y-40052000D01*
X99563000Y-60177600D02*
X102081000Y-57659600D01*
X101103792Y-40052000D02*
X98873000Y-40052000D01*
X98873000Y-40052000D02*
X97752000Y-41173000D01*
X97752000Y-41173000D02*
X97752000Y-42292000D01*
%TO.N,Net-(J6-Pad5)*%
X98552000Y-45592000D02*
X98552000Y-48042204D01*
X95054000Y-51540204D02*
X95054000Y-55668600D01*
X95054000Y-55668600D02*
X97023000Y-57637600D01*
X98552000Y-48042204D02*
X95054000Y-51540204D01*
%TO.N,Net-(J6-Pad6)*%
X98552000Y-41190604D02*
X99240604Y-40502000D01*
X98552000Y-42292000D02*
X98552000Y-41190604D01*
X101631000Y-55569600D02*
X99563000Y-57637600D01*
X100917396Y-40502000D02*
X101631000Y-41215604D01*
X99240604Y-40502000D02*
X100917396Y-40502000D01*
X101631000Y-41215604D02*
X101631000Y-55569600D01*
%TO.N,Net-(J6-Pad7)*%
X95504000Y-53578600D02*
X97023000Y-55097600D01*
X99352000Y-47878600D02*
X95504000Y-51726600D01*
X99352000Y-45592000D02*
X99352000Y-47878600D01*
X95504000Y-51726600D02*
X95504000Y-53578600D01*
%TO.N,Net-(J6-Pad8)*%
X100731000Y-40952000D02*
X101181000Y-41402000D01*
X99427000Y-40952000D02*
X100731000Y-40952000D01*
X101181000Y-41402000D02*
X101181000Y-53479600D01*
X99352000Y-42292000D02*
X99352000Y-41027000D01*
X101181000Y-53479600D02*
X99563000Y-55097600D01*
X99352000Y-41027000D02*
X99427000Y-40952000D01*
%TO.N,Net-(J6-Pad9)*%
X97023000Y-50843996D02*
X100152000Y-47714996D01*
X97023000Y-52557600D02*
X97023000Y-50843996D01*
X100152000Y-47714996D02*
X100152000Y-45592000D01*
%TO.N,Net-(J6-Pad10)*%
X99563000Y-52557600D02*
X100731000Y-51389600D01*
X100731000Y-42871000D02*
X100152000Y-42292000D01*
X100731000Y-51389600D02*
X100731000Y-42871000D01*
%TD*%
%TA.AperFunction,NonConductor*%
G36*
X92911825Y-42472040D02*
G01*
X92961784Y-42520885D01*
X92972606Y-42546600D01*
X93000045Y-42640051D01*
X93062968Y-42737961D01*
X93082652Y-42805001D01*
X93062968Y-42872039D01*
X93000045Y-42969949D01*
X92959500Y-43108036D01*
X92959500Y-43251963D01*
X93000045Y-43390050D01*
X93062968Y-43487961D01*
X93082652Y-43555001D01*
X93062968Y-43622039D01*
X93000045Y-43719949D01*
X92972606Y-43813399D01*
X92934831Y-43872177D01*
X92871275Y-43901202D01*
X92843390Y-43902041D01*
X92768897Y-43895868D01*
X92710000Y-43890988D01*
X92709999Y-43890988D01*
X92576609Y-43902041D01*
X92508173Y-43887959D01*
X92458214Y-43839114D01*
X92447393Y-43813398D01*
X92419954Y-43719949D01*
X92419953Y-43719948D01*
X92419953Y-43719947D01*
X92357031Y-43622039D01*
X92337347Y-43555000D01*
X92357032Y-43487961D01*
X92357032Y-43487960D01*
X92419953Y-43390053D01*
X92460500Y-43251961D01*
X92460500Y-43108039D01*
X92419953Y-42969947D01*
X92357031Y-42872039D01*
X92337347Y-42805000D01*
X92357032Y-42737961D01*
X92357032Y-42737960D01*
X92419953Y-42640053D01*
X92424373Y-42625001D01*
X92447393Y-42546601D01*
X92485167Y-42487823D01*
X92548722Y-42458797D01*
X92576610Y-42457959D01*
X92709994Y-42469012D01*
X92710000Y-42469012D01*
X92710006Y-42469012D01*
X92843389Y-42457959D01*
X92911825Y-42472040D01*
G37*
%TD.AperFunction*%
%TA.AperFunction,NonConductor*%
G36*
X102766539Y-38674185D02*
G01*
X102812294Y-38726989D01*
X102823500Y-38778500D01*
X102823500Y-39951359D01*
X102803815Y-40018398D01*
X102751011Y-40064153D01*
X102681853Y-40074097D01*
X102618297Y-40045072D01*
X102611819Y-40039040D01*
X101790991Y-39218212D01*
X101781168Y-39205950D01*
X101780947Y-39206134D01*
X101775974Y-39200122D01*
X101726964Y-39154099D01*
X101724165Y-39151386D01*
X101704665Y-39131885D01*
X101704659Y-39131880D01*
X101701474Y-39129409D01*
X101692622Y-39121848D01*
X101660770Y-39091938D01*
X101660768Y-39091936D01*
X101660765Y-39091935D01*
X101643217Y-39082288D01*
X101626951Y-39071604D01*
X101611120Y-39059324D01*
X101571037Y-39041978D01*
X101560551Y-39036841D01*
X101522282Y-39015803D01*
X101522280Y-39015802D01*
X101502881Y-39010822D01*
X101484469Y-39004518D01*
X101466086Y-38996562D01*
X101466080Y-38996560D01*
X101422948Y-38989729D01*
X101411510Y-38987361D01*
X101369208Y-38976500D01*
X101369207Y-38976500D01*
X101349172Y-38976500D01*
X101329774Y-38974973D01*
X101322350Y-38973797D01*
X101309993Y-38971840D01*
X101309992Y-38971840D01*
X101266513Y-38975950D01*
X101254844Y-38976500D01*
X98769347Y-38976500D01*
X98753726Y-38974775D01*
X98753699Y-38975061D01*
X98745937Y-38974326D01*
X98678717Y-38976439D01*
X98674823Y-38976500D01*
X98647254Y-38976500D01*
X98643277Y-38977002D01*
X98631646Y-38977917D01*
X98587978Y-38979289D01*
X98587972Y-38979290D01*
X98568730Y-38984880D01*
X98549691Y-38988823D01*
X98529821Y-38991334D01*
X98529804Y-38991338D01*
X98489200Y-39007413D01*
X98478159Y-39011194D01*
X98436210Y-39023383D01*
X98436208Y-39023384D01*
X98418962Y-39033583D01*
X98401497Y-39042139D01*
X98395614Y-39044468D01*
X98382870Y-39049514D01*
X98347538Y-39075183D01*
X98337782Y-39081592D01*
X98300184Y-39103828D01*
X98286012Y-39118000D01*
X98271227Y-39130628D01*
X98255016Y-39142407D01*
X98227175Y-39176059D01*
X98219315Y-39184696D01*
X96655465Y-40748546D01*
X96596303Y-40781541D01*
X96590517Y-40782908D01*
X96455671Y-40833202D01*
X96455664Y-40833206D01*
X96340455Y-40919452D01*
X96340452Y-40919455D01*
X96254206Y-41034664D01*
X96254202Y-41034671D01*
X96203908Y-41169517D01*
X96197501Y-41229116D01*
X96197500Y-41229135D01*
X96197500Y-43354870D01*
X96197501Y-43354876D01*
X96203908Y-43414483D01*
X96254202Y-43549328D01*
X96254206Y-43549335D01*
X96340452Y-43664544D01*
X96340455Y-43664547D01*
X96455664Y-43750793D01*
X96455671Y-43750797D01*
X96500618Y-43767561D01*
X96590517Y-43801091D01*
X96650127Y-43807500D01*
X97253872Y-43807499D01*
X97313483Y-43801091D01*
X97313485Y-43801090D01*
X97313487Y-43801090D01*
X97321031Y-43799308D01*
X97321658Y-43801964D01*
X97378321Y-43797895D01*
X97383811Y-43799506D01*
X97390511Y-43801089D01*
X97390517Y-43801091D01*
X97450127Y-43807500D01*
X98053872Y-43807499D01*
X98113483Y-43801091D01*
X98113485Y-43801090D01*
X98113487Y-43801090D01*
X98121031Y-43799308D01*
X98121658Y-43801964D01*
X98178321Y-43797895D01*
X98183811Y-43799506D01*
X98190511Y-43801089D01*
X98190517Y-43801091D01*
X98250127Y-43807500D01*
X98853872Y-43807499D01*
X98913483Y-43801091D01*
X98913485Y-43801090D01*
X98913487Y-43801090D01*
X98921031Y-43799308D01*
X98921658Y-43801964D01*
X98978321Y-43797895D01*
X98983811Y-43799506D01*
X98990511Y-43801089D01*
X98990517Y-43801091D01*
X99050127Y-43807500D01*
X99653872Y-43807499D01*
X99713483Y-43801091D01*
X99713485Y-43801090D01*
X99713487Y-43801090D01*
X99721031Y-43799308D01*
X99721658Y-43801964D01*
X99778321Y-43797895D01*
X99783811Y-43799506D01*
X99790511Y-43801089D01*
X99790517Y-43801091D01*
X99850127Y-43807500D01*
X99981500Y-43807499D01*
X100048539Y-43827183D01*
X100094294Y-43879987D01*
X100105500Y-43931499D01*
X100105500Y-43952500D01*
X100085815Y-44019539D01*
X100033011Y-44065294D01*
X99981501Y-44076500D01*
X99850130Y-44076500D01*
X99850125Y-44076501D01*
X99790515Y-44082909D01*
X99782972Y-44084692D01*
X99782346Y-44082043D01*
X99725629Y-44086094D01*
X99720132Y-44084480D01*
X99713482Y-44082908D01*
X99653882Y-44076501D01*
X99653873Y-44076500D01*
X99653863Y-44076500D01*
X99050129Y-44076500D01*
X99050125Y-44076501D01*
X98990515Y-44082909D01*
X98982972Y-44084692D01*
X98982346Y-44082043D01*
X98925629Y-44086094D01*
X98920132Y-44084480D01*
X98913482Y-44082908D01*
X98853882Y-44076501D01*
X98853873Y-44076500D01*
X98853863Y-44076500D01*
X98250129Y-44076500D01*
X98250125Y-44076501D01*
X98190515Y-44082909D01*
X98182972Y-44084692D01*
X98182346Y-44082043D01*
X98125629Y-44086094D01*
X98120132Y-44084480D01*
X98113482Y-44082908D01*
X98053882Y-44076501D01*
X98053873Y-44076500D01*
X98053863Y-44076500D01*
X97450129Y-44076500D01*
X97450125Y-44076501D01*
X97390515Y-44082909D01*
X97382972Y-44084692D01*
X97382346Y-44082043D01*
X97325629Y-44086094D01*
X97320132Y-44084480D01*
X97313482Y-44082908D01*
X97253882Y-44076501D01*
X97253873Y-44076500D01*
X97253863Y-44076500D01*
X96650129Y-44076500D01*
X96650123Y-44076501D01*
X96590516Y-44082908D01*
X96455671Y-44133202D01*
X96455664Y-44133206D01*
X96340455Y-44219452D01*
X96340452Y-44219455D01*
X96254206Y-44334664D01*
X96254202Y-44334671D01*
X96203908Y-44469517D01*
X96197501Y-44529116D01*
X96197500Y-44529135D01*
X96197500Y-46654870D01*
X96197501Y-46654876D01*
X96203908Y-46714483D01*
X96254202Y-46849327D01*
X96254203Y-46849328D01*
X96254204Y-46849331D01*
X96301767Y-46912866D01*
X96326184Y-46978327D01*
X96326500Y-46987175D01*
X96326500Y-48058959D01*
X96306815Y-48125998D01*
X96290181Y-48146640D01*
X94238181Y-50198640D01*
X94176858Y-50232125D01*
X94107166Y-50227141D01*
X94051233Y-50185269D01*
X94026816Y-50119805D01*
X94026500Y-50110959D01*
X94026500Y-45102913D01*
X93990588Y-44887707D01*
X93919749Y-44681359D01*
X93919747Y-44681354D01*
X93904186Y-44652600D01*
X93815907Y-44489475D01*
X93792586Y-44459513D01*
X93766945Y-44394519D01*
X93780512Y-44325979D01*
X93809235Y-44289641D01*
X93842143Y-44261128D01*
X93919953Y-44140053D01*
X93921964Y-44133206D01*
X93936208Y-44084692D01*
X93960500Y-44001961D01*
X93960500Y-43858039D01*
X93943779Y-43801091D01*
X93919954Y-43719949D01*
X93919953Y-43719948D01*
X93919953Y-43719947D01*
X93857031Y-43622039D01*
X93837347Y-43555000D01*
X93857032Y-43487961D01*
X93857032Y-43487960D01*
X93919953Y-43390053D01*
X93960500Y-43251961D01*
X93960500Y-43108039D01*
X93919953Y-42969947D01*
X93857031Y-42872039D01*
X93837347Y-42805000D01*
X93857032Y-42737961D01*
X93857032Y-42737960D01*
X93919953Y-42640053D01*
X93927031Y-42615949D01*
X93929035Y-42609121D01*
X93960500Y-42501961D01*
X93960500Y-42358039D01*
X93919953Y-42219947D01*
X93842143Y-42098872D01*
X93809237Y-42070359D01*
X93771464Y-42011581D01*
X93771464Y-41941712D01*
X93792588Y-41900484D01*
X93815907Y-41870525D01*
X93919748Y-41678644D01*
X93990589Y-41472289D01*
X94026500Y-41257088D01*
X94026500Y-41148000D01*
X94026500Y-41100405D01*
X94026500Y-38778500D01*
X94046185Y-38711461D01*
X94098989Y-38665706D01*
X94150500Y-38654500D01*
X102699500Y-38654500D01*
X102766539Y-38674185D01*
G37*
%TD.AperFunction*%
%TA.AperFunction,NonConductor*%
G36*
X100024834Y-48829266D02*
G01*
X100080767Y-48871138D01*
X100105184Y-48936602D01*
X100105500Y-48945448D01*
X100105500Y-51079145D01*
X100085815Y-51146184D01*
X100069181Y-51166826D01*
X100065226Y-51170781D01*
X100003903Y-51204266D01*
X99977545Y-51207100D01*
X98670129Y-51207100D01*
X98670123Y-51207101D01*
X98610516Y-51213508D01*
X98475671Y-51263802D01*
X98475664Y-51263806D01*
X98360455Y-51350052D01*
X98360452Y-51350055D01*
X98274206Y-51465264D01*
X98274203Y-51465269D01*
X98225189Y-51596683D01*
X98183317Y-51652616D01*
X98117853Y-51677033D01*
X98049580Y-51662181D01*
X98021326Y-51641030D01*
X97899402Y-51519106D01*
X97899395Y-51519101D01*
X97701396Y-51380460D01*
X97702891Y-51378323D01*
X97662216Y-51335562D01*
X97648500Y-51278874D01*
X97648500Y-51154448D01*
X97668185Y-51087409D01*
X97684819Y-51066767D01*
X99893819Y-48857767D01*
X99955142Y-48824282D01*
X100024834Y-48829266D01*
G37*
%TD.AperFunction*%
%TA.AperFunction,NonConductor*%
G36*
X98152340Y-53445668D02*
G01*
X98208274Y-53487539D01*
X98225189Y-53518517D01*
X98274202Y-53649928D01*
X98274206Y-53649935D01*
X98360452Y-53765144D01*
X98360455Y-53765147D01*
X98475664Y-53851393D01*
X98475671Y-53851397D01*
X98607081Y-53900410D01*
X98663015Y-53942281D01*
X98687432Y-54007745D01*
X98672580Y-54076018D01*
X98651430Y-54104273D01*
X98529503Y-54226200D01*
X98399575Y-54411758D01*
X98344998Y-54455383D01*
X98275500Y-54462577D01*
X98213145Y-54431054D01*
X98196425Y-54411758D01*
X98066494Y-54226197D01*
X97899402Y-54059106D01*
X97899396Y-54059101D01*
X97713842Y-53929175D01*
X97670217Y-53874598D01*
X97663023Y-53805100D01*
X97694546Y-53742745D01*
X97713842Y-53726025D01*
X97736026Y-53710491D01*
X97899401Y-53596095D01*
X98021329Y-53474166D01*
X98082648Y-53440684D01*
X98152340Y-53445668D01*
G37*
%TD.AperFunction*%
%TA.AperFunction,NonConductor*%
G36*
X98382855Y-55764146D02*
G01*
X98399575Y-55783442D01*
X98529501Y-55968996D01*
X98529506Y-55969002D01*
X98696597Y-56136093D01*
X98696603Y-56136098D01*
X98882158Y-56266025D01*
X98925783Y-56320602D01*
X98932977Y-56390100D01*
X98901454Y-56452455D01*
X98882158Y-56469175D01*
X98696597Y-56599105D01*
X98529505Y-56766197D01*
X98399575Y-56951758D01*
X98344998Y-56995383D01*
X98275500Y-57002577D01*
X98213145Y-56971054D01*
X98196425Y-56951758D01*
X98066494Y-56766197D01*
X97899402Y-56599106D01*
X97899396Y-56599101D01*
X97713842Y-56469175D01*
X97670217Y-56414598D01*
X97663023Y-56345100D01*
X97694546Y-56282745D01*
X97713842Y-56266025D01*
X97736026Y-56250491D01*
X97899401Y-56136095D01*
X98066495Y-55969001D01*
X98196425Y-55783442D01*
X98251002Y-55739817D01*
X98320500Y-55732623D01*
X98382855Y-55764146D01*
G37*
%TD.AperFunction*%
%TA.AperFunction,NonConductor*%
G36*
X101374834Y-56812869D02*
G01*
X101430767Y-56854741D01*
X101455184Y-56920205D01*
X101455500Y-56929051D01*
X101455500Y-57349146D01*
X101435815Y-57416185D01*
X101419181Y-57436827D01*
X101135340Y-57720668D01*
X101074017Y-57754153D01*
X101004325Y-57749169D01*
X100948392Y-57707297D01*
X100924399Y-57642970D01*
X100924131Y-57642994D01*
X100924046Y-57642023D01*
X100923975Y-57641833D01*
X100923937Y-57640781D01*
X100911577Y-57499509D01*
X100903063Y-57402192D01*
X100875086Y-57297779D01*
X100876749Y-57227933D01*
X100907178Y-57178010D01*
X101243820Y-56841369D01*
X101305142Y-56807885D01*
X101374834Y-56812869D01*
G37*
%TD.AperFunction*%
%TA.AperFunction,NonConductor*%
G36*
X95434703Y-56934339D02*
G01*
X95441181Y-56940371D01*
X95686705Y-57185895D01*
X95720190Y-57247218D01*
X95718799Y-57305668D01*
X95692939Y-57402183D01*
X95692936Y-57402196D01*
X95672341Y-57637599D01*
X95672341Y-57642988D01*
X95652656Y-57710027D01*
X95599852Y-57755782D01*
X95530694Y-57765726D01*
X95467138Y-57736701D01*
X95460660Y-57730669D01*
X95265819Y-57535828D01*
X95232334Y-57474505D01*
X95229500Y-57448147D01*
X95229500Y-57028052D01*
X95249185Y-56961013D01*
X95301989Y-56915258D01*
X95371147Y-56905314D01*
X95434703Y-56934339D01*
G37*
%TD.AperFunction*%
%TA.AperFunction,NonConductor*%
G36*
X98382855Y-58304146D02*
G01*
X98399575Y-58323442D01*
X98529501Y-58508996D01*
X98529506Y-58509002D01*
X98696597Y-58676093D01*
X98696603Y-58676098D01*
X98882158Y-58806025D01*
X98925783Y-58860602D01*
X98932977Y-58930100D01*
X98901454Y-58992455D01*
X98882158Y-59009175D01*
X98696597Y-59139105D01*
X98529505Y-59306197D01*
X98399575Y-59491758D01*
X98344998Y-59535383D01*
X98275500Y-59542577D01*
X98213145Y-59511054D01*
X98196425Y-59491758D01*
X98066494Y-59306197D01*
X97899402Y-59139106D01*
X97899396Y-59139101D01*
X97713842Y-59009175D01*
X97670217Y-58954598D01*
X97663023Y-58885100D01*
X97694546Y-58822745D01*
X97713842Y-58806025D01*
X97837141Y-58719690D01*
X97899401Y-58676095D01*
X98066495Y-58509001D01*
X98196425Y-58323442D01*
X98251002Y-58279817D01*
X98320500Y-58272623D01*
X98382855Y-58304146D01*
G37*
%TD.AperFunction*%
%TA.AperFunction,NonConductor*%
G36*
X101824834Y-58902869D02*
G01*
X101880767Y-58944741D01*
X101905184Y-59010205D01*
X101905500Y-59019051D01*
X101905500Y-59439146D01*
X101885815Y-59506185D01*
X101869181Y-59526827D01*
X101135340Y-60260668D01*
X101074017Y-60294153D01*
X101004325Y-60289169D01*
X100948392Y-60247297D01*
X100924399Y-60182970D01*
X100924131Y-60182994D01*
X100924046Y-60182023D01*
X100923975Y-60181833D01*
X100923937Y-60180781D01*
X100903063Y-59942196D01*
X100903063Y-59942192D01*
X100875086Y-59837779D01*
X100876749Y-59767933D01*
X100907178Y-59718010D01*
X101693820Y-58931369D01*
X101755142Y-58897885D01*
X101824834Y-58902869D01*
G37*
%TD.AperFunction*%
%TA.AperFunction,NonConductor*%
G36*
X94984703Y-59024339D02*
G01*
X94991181Y-59030371D01*
X95686705Y-59725895D01*
X95720190Y-59787218D01*
X95718799Y-59845668D01*
X95692939Y-59942183D01*
X95692936Y-59942196D01*
X95672341Y-60177599D01*
X95672341Y-60182988D01*
X95652656Y-60250027D01*
X95599852Y-60295782D01*
X95530694Y-60305726D01*
X95467138Y-60276701D01*
X95460660Y-60270669D01*
X94815819Y-59625828D01*
X94782334Y-59564505D01*
X94779500Y-59538147D01*
X94779500Y-59118052D01*
X94799185Y-59051013D01*
X94851989Y-59005258D01*
X94921147Y-58995314D01*
X94984703Y-59024339D01*
G37*
%TD.AperFunction*%
%TA.AperFunction,NonConductor*%
G36*
X98382855Y-60844146D02*
G01*
X98399575Y-60863442D01*
X98529501Y-61048996D01*
X98529506Y-61049002D01*
X98696597Y-61216093D01*
X98696603Y-61216098D01*
X98882158Y-61346025D01*
X98925783Y-61400602D01*
X98932977Y-61470100D01*
X98901454Y-61532455D01*
X98882158Y-61549175D01*
X98696597Y-61679105D01*
X98529505Y-61846197D01*
X98399575Y-62031758D01*
X98344998Y-62075383D01*
X98275500Y-62082577D01*
X98213145Y-62051054D01*
X98196425Y-62031758D01*
X98066494Y-61846197D01*
X97899402Y-61679106D01*
X97899396Y-61679101D01*
X97713842Y-61549175D01*
X97670217Y-61494598D01*
X97663023Y-61425100D01*
X97694546Y-61362745D01*
X97713842Y-61346025D01*
X97763243Y-61311434D01*
X97899401Y-61216095D01*
X98066495Y-61049001D01*
X98196425Y-60863442D01*
X98251002Y-60819817D01*
X98320500Y-60812623D01*
X98382855Y-60844146D01*
G37*
%TD.AperFunction*%
%TA.AperFunction,NonConductor*%
G36*
X78113834Y-62573269D02*
G01*
X78169767Y-62615141D01*
X78194184Y-62680605D01*
X78194500Y-62689451D01*
X78194500Y-63109546D01*
X78174815Y-63176585D01*
X78158181Y-63197227D01*
X77767340Y-63588068D01*
X77706017Y-63621553D01*
X77636325Y-63616569D01*
X77580392Y-63574697D01*
X77555975Y-63509233D01*
X77555659Y-63500387D01*
X77555659Y-63499999D01*
X77542765Y-63352623D01*
X77535063Y-63264592D01*
X77517428Y-63198780D01*
X77508143Y-63164125D01*
X77509806Y-63094276D01*
X77540235Y-63044353D01*
X77982820Y-62601769D01*
X78044142Y-62568285D01*
X78113834Y-62573269D01*
G37*
%TD.AperFunction*%
%TA.AperFunction,NonConductor*%
G36*
X71763834Y-62573269D02*
G01*
X71819767Y-62615141D01*
X71844184Y-62680605D01*
X71844500Y-62689451D01*
X71844500Y-63109546D01*
X71824815Y-63176585D01*
X71808181Y-63197227D01*
X71417340Y-63588068D01*
X71356017Y-63621553D01*
X71286325Y-63616569D01*
X71230392Y-63574697D01*
X71205975Y-63509233D01*
X71205659Y-63500387D01*
X71205659Y-63499999D01*
X71192765Y-63352623D01*
X71185063Y-63264592D01*
X71167428Y-63198780D01*
X71158143Y-63164125D01*
X71159806Y-63094276D01*
X71190235Y-63044353D01*
X71632820Y-62601769D01*
X71694142Y-62568285D01*
X71763834Y-62573269D01*
G37*
%TD.AperFunction*%
%TA.AperFunction,NonConductor*%
G36*
X92599268Y-62779836D02*
G01*
X92709994Y-62789012D01*
X92710000Y-62789012D01*
X92710006Y-62789012D01*
X92831674Y-62778930D01*
X92900110Y-62793011D01*
X92950069Y-62841856D01*
X92960891Y-62867571D01*
X92988045Y-62960051D01*
X93050968Y-63057961D01*
X93070652Y-63125001D01*
X93050968Y-63192039D01*
X92988045Y-63289949D01*
X92947500Y-63428036D01*
X92947500Y-63571963D01*
X92988045Y-63710050D01*
X93050968Y-63807961D01*
X93070652Y-63875001D01*
X93050968Y-63942039D01*
X92988046Y-64039948D01*
X92960891Y-64132429D01*
X92923116Y-64191206D01*
X92859560Y-64220231D01*
X92831675Y-64221070D01*
X92774772Y-64216355D01*
X92710000Y-64210988D01*
X92709997Y-64210988D01*
X92709995Y-64210988D01*
X92709994Y-64210988D01*
X92564895Y-64223011D01*
X92496459Y-64208930D01*
X92446500Y-64160085D01*
X92435678Y-64134369D01*
X92407954Y-64039949D01*
X92407953Y-64039948D01*
X92407953Y-64039947D01*
X92345031Y-63942039D01*
X92325347Y-63875000D01*
X92345032Y-63807961D01*
X92345032Y-63807960D01*
X92407953Y-63710053D01*
X92448500Y-63571961D01*
X92448500Y-63428039D01*
X92435612Y-63384146D01*
X92407954Y-63289949D01*
X92407953Y-63289948D01*
X92407953Y-63289947D01*
X92345031Y-63192039D01*
X92325347Y-63125000D01*
X92345032Y-63057961D01*
X92345032Y-63057960D01*
X92353778Y-63044351D01*
X92407953Y-62960053D01*
X92435678Y-62865630D01*
X92473452Y-62806852D01*
X92537007Y-62777826D01*
X92564893Y-62776988D01*
X92599268Y-62779836D01*
G37*
%TD.AperFunction*%
%TA.AperFunction,NonConductor*%
G36*
X102742834Y-60524869D02*
G01*
X102798767Y-60566741D01*
X102823184Y-60632205D01*
X102823500Y-60641051D01*
X102823500Y-65107500D01*
X102803815Y-65174539D01*
X102751011Y-65220294D01*
X102699500Y-65231500D01*
X94087291Y-65231500D01*
X94020252Y-65211815D01*
X93974497Y-65159011D01*
X93970010Y-65147763D01*
X93919799Y-65001505D01*
X93919748Y-65001356D01*
X93815907Y-64809475D01*
X93815904Y-64809471D01*
X93815901Y-64809466D01*
X93787755Y-64773304D01*
X93762112Y-64708310D01*
X93775678Y-64639771D01*
X93804403Y-64603431D01*
X93830143Y-64581128D01*
X93907953Y-64460053D01*
X93948500Y-64321961D01*
X93948500Y-64178039D01*
X93939417Y-64147107D01*
X93907954Y-64039949D01*
X93907953Y-64039948D01*
X93907953Y-64039947D01*
X93845031Y-63942039D01*
X93825347Y-63875000D01*
X93845032Y-63807961D01*
X93845032Y-63807960D01*
X93907953Y-63710053D01*
X93948500Y-63571961D01*
X93948500Y-63428039D01*
X93935612Y-63384146D01*
X93907954Y-63289949D01*
X93907953Y-63289948D01*
X93907953Y-63289947D01*
X93845031Y-63192039D01*
X93825347Y-63125000D01*
X93845032Y-63057961D01*
X93845032Y-63057960D01*
X93853778Y-63044351D01*
X93907953Y-62960053D01*
X93948500Y-62821961D01*
X93948500Y-62678039D01*
X93907953Y-62539947D01*
X93830143Y-62418872D01*
X93804405Y-62396570D01*
X93766630Y-62337792D01*
X93766630Y-62267923D01*
X93787752Y-62226697D01*
X93815907Y-62190525D01*
X93919748Y-61998644D01*
X93990589Y-61792289D01*
X94026500Y-61577088D01*
X94026500Y-61468000D01*
X94026500Y-61420405D01*
X94026500Y-60905052D01*
X94046185Y-60838013D01*
X94098989Y-60792258D01*
X94168147Y-60782314D01*
X94231703Y-60811339D01*
X94238181Y-60817371D01*
X95686705Y-62265895D01*
X95720190Y-62327218D01*
X95718799Y-62385668D01*
X95692939Y-62482183D01*
X95692936Y-62482196D01*
X95672341Y-62717599D01*
X95672341Y-62717600D01*
X95692936Y-62953003D01*
X95692938Y-62953013D01*
X95754094Y-63181255D01*
X95754096Y-63181259D01*
X95754097Y-63181263D01*
X95834004Y-63352623D01*
X95853965Y-63395430D01*
X95853967Y-63395434D01*
X95933651Y-63509233D01*
X95989505Y-63589001D01*
X96156599Y-63756095D01*
X96230670Y-63807960D01*
X96350165Y-63891632D01*
X96350167Y-63891633D01*
X96350170Y-63891635D01*
X96564337Y-63991503D01*
X96792592Y-64052663D01*
X96980918Y-64069139D01*
X97027999Y-64073259D01*
X97028000Y-64073259D01*
X97028001Y-64073259D01*
X97067234Y-64069826D01*
X97263408Y-64052663D01*
X97491663Y-63991503D01*
X97705830Y-63891635D01*
X97899401Y-63756095D01*
X98066495Y-63589001D01*
X98196425Y-63403442D01*
X98251002Y-63359817D01*
X98320500Y-63352623D01*
X98382855Y-63384146D01*
X98399575Y-63403442D01*
X98529500Y-63588995D01*
X98529505Y-63589001D01*
X98696599Y-63756095D01*
X98770670Y-63807960D01*
X98890165Y-63891632D01*
X98890167Y-63891633D01*
X98890170Y-63891635D01*
X99104337Y-63991503D01*
X99332592Y-64052663D01*
X99520918Y-64069139D01*
X99567999Y-64073259D01*
X99568000Y-64073259D01*
X99568001Y-64073259D01*
X99607234Y-64069826D01*
X99803408Y-64052663D01*
X100031663Y-63991503D01*
X100245830Y-63891635D01*
X100439401Y-63756095D01*
X100606495Y-63589001D01*
X100742035Y-63395430D01*
X100841903Y-63181263D01*
X100903063Y-62953008D01*
X100923659Y-62717600D01*
X100903063Y-62482192D01*
X100875086Y-62377779D01*
X100876749Y-62307933D01*
X100907178Y-62258010D01*
X102611820Y-60553368D01*
X102673142Y-60519885D01*
X102742834Y-60524869D01*
G37*
%TD.AperFunction*%
%TA.AperFunction,NonConductor*%
G36*
X78563834Y-64663269D02*
G01*
X78619767Y-64705141D01*
X78644184Y-64770605D01*
X78644500Y-64779451D01*
X78644500Y-65199546D01*
X78624815Y-65266585D01*
X78608181Y-65287227D01*
X77767340Y-66128068D01*
X77706017Y-66161553D01*
X77636325Y-66156569D01*
X77580392Y-66114697D01*
X77555975Y-66049233D01*
X77555659Y-66040387D01*
X77555659Y-66039999D01*
X77537846Y-65836401D01*
X77535063Y-65804592D01*
X77517428Y-65738780D01*
X77508143Y-65704125D01*
X77509806Y-65634276D01*
X77540235Y-65584353D01*
X78432820Y-64691769D01*
X78494142Y-64658285D01*
X78563834Y-64663269D01*
G37*
%TD.AperFunction*%
%TA.AperFunction,NonConductor*%
G36*
X72213834Y-64663269D02*
G01*
X72269767Y-64705141D01*
X72294184Y-64770605D01*
X72294500Y-64779451D01*
X72294500Y-65199546D01*
X72274815Y-65266585D01*
X72258181Y-65287227D01*
X71417340Y-66128068D01*
X71356017Y-66161553D01*
X71286325Y-66156569D01*
X71230392Y-66114697D01*
X71205975Y-66049233D01*
X71205659Y-66040387D01*
X71205659Y-66039999D01*
X71187846Y-65836401D01*
X71185063Y-65804592D01*
X71167428Y-65738780D01*
X71158143Y-65704125D01*
X71159806Y-65634276D01*
X71190235Y-65584353D01*
X72082820Y-64691769D01*
X72144142Y-64658285D01*
X72213834Y-64663269D01*
G37*
%TD.AperFunction*%
%TA.AperFunction,NonConductor*%
G36*
X79013834Y-66753269D02*
G01*
X79069767Y-66795141D01*
X79094184Y-66860605D01*
X79094500Y-66869451D01*
X79094500Y-67289546D01*
X79074815Y-67356585D01*
X79058181Y-67377227D01*
X77767340Y-68668068D01*
X77706017Y-68701553D01*
X77636325Y-68696569D01*
X77580392Y-68654697D01*
X77555975Y-68589233D01*
X77555659Y-68580387D01*
X77555659Y-68579999D01*
X77535063Y-68344596D01*
X77535063Y-68344592D01*
X77508143Y-68244125D01*
X77509806Y-68174276D01*
X77540235Y-68124353D01*
X78882820Y-66781768D01*
X78944142Y-66748285D01*
X79013834Y-66753269D01*
G37*
%TD.AperFunction*%
%TA.AperFunction,NonConductor*%
G36*
X72663834Y-66753269D02*
G01*
X72719767Y-66795141D01*
X72744184Y-66860605D01*
X72744500Y-66869451D01*
X72744500Y-67289546D01*
X72724815Y-67356585D01*
X72708181Y-67377227D01*
X71417340Y-68668068D01*
X71356017Y-68701553D01*
X71286325Y-68696569D01*
X71230392Y-68654697D01*
X71205975Y-68589233D01*
X71205659Y-68580387D01*
X71205659Y-68579999D01*
X71185063Y-68344596D01*
X71185063Y-68344592D01*
X71158143Y-68244125D01*
X71159806Y-68174276D01*
X71190235Y-68124353D01*
X72532820Y-66781768D01*
X72594142Y-66748285D01*
X72663834Y-66753269D01*
G37*
%TD.AperFunction*%
%TA.AperFunction,NonConductor*%
G36*
X79463834Y-68843269D02*
G01*
X79519767Y-68885141D01*
X79544184Y-68950605D01*
X79544500Y-68959451D01*
X79544500Y-69379546D01*
X79524815Y-69446585D01*
X79508181Y-69467227D01*
X77767340Y-71208068D01*
X77706017Y-71241553D01*
X77636325Y-71236569D01*
X77580392Y-71194697D01*
X77555975Y-71129233D01*
X77555659Y-71120387D01*
X77555659Y-71119999D01*
X77539322Y-70933269D01*
X77535063Y-70884592D01*
X77508143Y-70784125D01*
X77509806Y-70714276D01*
X77540235Y-70664353D01*
X79332820Y-68871768D01*
X79394142Y-68838285D01*
X79463834Y-68843269D01*
G37*
%TD.AperFunction*%
%TA.AperFunction,NonConductor*%
G36*
X73113834Y-68843269D02*
G01*
X73169767Y-68885141D01*
X73194184Y-68950605D01*
X73194500Y-68959451D01*
X73194500Y-69379546D01*
X73174815Y-69446585D01*
X73158181Y-69467227D01*
X71417340Y-71208068D01*
X71356017Y-71241553D01*
X71286325Y-71236569D01*
X71230392Y-71194697D01*
X71205975Y-71129233D01*
X71205659Y-71120387D01*
X71205659Y-71119999D01*
X71189322Y-70933269D01*
X71185063Y-70884592D01*
X71158143Y-70784125D01*
X71159806Y-70714276D01*
X71190235Y-70664353D01*
X72982820Y-68871768D01*
X73044142Y-68838285D01*
X73113834Y-68843269D01*
G37*
%TD.AperFunction*%
%TA.AperFunction,NonConductor*%
G36*
X79913834Y-70933269D02*
G01*
X79969767Y-70975141D01*
X79994184Y-71040605D01*
X79994500Y-71049451D01*
X79994500Y-71469546D01*
X79974815Y-71536585D01*
X79958181Y-71557227D01*
X77767340Y-73748068D01*
X77706017Y-73781553D01*
X77636325Y-73776569D01*
X77580392Y-73734697D01*
X77555975Y-73669233D01*
X77555659Y-73660387D01*
X77555659Y-73659999D01*
X77535063Y-73424596D01*
X77535063Y-73424592D01*
X77508143Y-73324125D01*
X77509806Y-73254276D01*
X77540235Y-73204353D01*
X79782821Y-70961768D01*
X79844142Y-70928285D01*
X79913834Y-70933269D01*
G37*
%TD.AperFunction*%
%TA.AperFunction,NonConductor*%
G36*
X73563834Y-70933269D02*
G01*
X73619767Y-70975141D01*
X73644184Y-71040605D01*
X73644500Y-71049451D01*
X73644500Y-71469546D01*
X73624815Y-71536585D01*
X73608181Y-71557227D01*
X71417340Y-73748068D01*
X71356017Y-73781553D01*
X71286325Y-73776569D01*
X71230392Y-73734697D01*
X71205975Y-73669233D01*
X71205659Y-73660387D01*
X71205659Y-73659999D01*
X71185063Y-73424596D01*
X71185063Y-73424592D01*
X71158143Y-73324125D01*
X71159806Y-73254276D01*
X71190235Y-73204353D01*
X73432821Y-70961768D01*
X73494142Y-70928285D01*
X73563834Y-70933269D01*
G37*
%TD.AperFunction*%
%TA.AperFunction,NonConductor*%
G36*
X80363834Y-73023269D02*
G01*
X80419767Y-73065141D01*
X80444184Y-73130605D01*
X80444500Y-73139451D01*
X80444500Y-73559546D01*
X80424815Y-73626585D01*
X80408181Y-73647227D01*
X77767340Y-76288068D01*
X77706017Y-76321553D01*
X77636325Y-76316569D01*
X77580392Y-76274697D01*
X77555975Y-76209233D01*
X77555659Y-76200387D01*
X77555659Y-76199999D01*
X77535063Y-75964596D01*
X77535063Y-75964592D01*
X77508143Y-75864125D01*
X77509806Y-75794276D01*
X77540235Y-75744353D01*
X80232821Y-73051768D01*
X80294142Y-73018285D01*
X80363834Y-73023269D01*
G37*
%TD.AperFunction*%
%TA.AperFunction,NonConductor*%
G36*
X74013834Y-73023269D02*
G01*
X74069767Y-73065141D01*
X74094184Y-73130605D01*
X74094500Y-73139451D01*
X74094500Y-73559546D01*
X74074815Y-73626585D01*
X74058181Y-73647227D01*
X71417340Y-76288068D01*
X71356017Y-76321553D01*
X71286325Y-76316569D01*
X71230392Y-76274697D01*
X71205975Y-76209233D01*
X71205659Y-76200387D01*
X71205659Y-76199999D01*
X71185063Y-75964596D01*
X71185063Y-75964592D01*
X71158143Y-75864125D01*
X71159806Y-75794276D01*
X71190235Y-75744353D01*
X73882821Y-73051768D01*
X73944142Y-73018285D01*
X74013834Y-73023269D01*
G37*
%TD.AperFunction*%
%TA.AperFunction,NonConductor*%
G36*
X72234852Y-38674185D02*
G01*
X72280607Y-38726989D01*
X72290551Y-38796147D01*
X72261526Y-38859703D01*
X72259963Y-38861472D01*
X72225466Y-38899784D01*
X72130821Y-39063715D01*
X72130819Y-39063719D01*
X72078227Y-39225581D01*
X72038789Y-39283256D01*
X71986079Y-39308552D01*
X71928194Y-39320856D01*
X71928192Y-39320857D01*
X71755270Y-39397848D01*
X71755265Y-39397851D01*
X71602129Y-39509111D01*
X71475466Y-39649785D01*
X71380821Y-39813715D01*
X71380818Y-39813722D01*
X71331921Y-39964214D01*
X71322326Y-39993744D01*
X71302540Y-40182000D01*
X71322326Y-40370256D01*
X71322327Y-40370259D01*
X71380818Y-40550277D01*
X71380821Y-40550284D01*
X71475467Y-40714216D01*
X71602129Y-40854888D01*
X71755265Y-40966148D01*
X71755270Y-40966151D01*
X71909166Y-41034671D01*
X71928197Y-41043144D01*
X72012477Y-41061058D01*
X72073956Y-41094249D01*
X72074375Y-41094666D01*
X73458335Y-42478626D01*
X73491820Y-42539949D01*
X73486836Y-42609640D01*
X73458908Y-42684517D01*
X73453163Y-42737960D01*
X73452501Y-42744123D01*
X73452500Y-42744135D01*
X73452500Y-45139870D01*
X73452501Y-45139876D01*
X73458908Y-45199483D01*
X73509202Y-45334328D01*
X73509206Y-45334335D01*
X73595452Y-45449544D01*
X73595453Y-45449544D01*
X73595454Y-45449546D01*
X73624615Y-45471376D01*
X73653145Y-45492734D01*
X73695015Y-45548668D01*
X73699999Y-45618360D01*
X73666513Y-45679683D01*
X73653145Y-45691266D01*
X73595452Y-45734455D01*
X73509206Y-45849664D01*
X73509202Y-45849671D01*
X73458908Y-45984517D01*
X73452501Y-46044116D01*
X73452501Y-46044123D01*
X73452500Y-46044135D01*
X73452500Y-48439870D01*
X73452501Y-48439876D01*
X73458908Y-48499483D01*
X73509202Y-48634328D01*
X73509203Y-48634329D01*
X73509204Y-48634331D01*
X73518004Y-48646086D01*
X73595452Y-48749543D01*
X73595455Y-48749547D01*
X73652810Y-48792482D01*
X73694682Y-48848415D01*
X73702500Y-48891749D01*
X73702500Y-49160022D01*
X73682815Y-49227061D01*
X73666181Y-49247703D01*
X70286208Y-52627675D01*
X70273951Y-52637496D01*
X70274134Y-52637717D01*
X70268122Y-52642690D01*
X70222098Y-52691699D01*
X70219391Y-52694492D01*
X70199889Y-52713993D01*
X70199875Y-52714010D01*
X70197407Y-52717191D01*
X70189843Y-52726046D01*
X70159937Y-52757894D01*
X70159936Y-52757896D01*
X70150284Y-52775452D01*
X70139610Y-52791702D01*
X70127329Y-52807537D01*
X70127324Y-52807544D01*
X70109975Y-52847634D01*
X70104838Y-52858120D01*
X70083803Y-52896382D01*
X70078822Y-52915783D01*
X70072521Y-52934186D01*
X70064562Y-52952578D01*
X70064561Y-52952581D01*
X70057728Y-52995719D01*
X70055360Y-53007150D01*
X70044501Y-53049447D01*
X70044500Y-53049458D01*
X70044500Y-53069492D01*
X70042973Y-53088891D01*
X70039840Y-53108670D01*
X70039840Y-53108671D01*
X70043950Y-53152150D01*
X70044500Y-53163819D01*
X70044500Y-54405500D01*
X70024815Y-54472539D01*
X69972011Y-54518294D01*
X69920500Y-54529500D01*
X68952129Y-54529500D01*
X68952123Y-54529501D01*
X68892516Y-54535908D01*
X68757671Y-54586202D01*
X68757664Y-54586206D01*
X68642455Y-54672452D01*
X68642452Y-54672455D01*
X68556206Y-54787664D01*
X68556202Y-54787671D01*
X68505908Y-54922517D01*
X68499501Y-54982116D01*
X68499500Y-54982135D01*
X68499500Y-56777870D01*
X68499501Y-56777876D01*
X68505908Y-56837483D01*
X68556202Y-56972328D01*
X68556206Y-56972335D01*
X68642452Y-57087544D01*
X68642455Y-57087547D01*
X68757664Y-57173793D01*
X68757671Y-57173797D01*
X68889081Y-57222810D01*
X68945015Y-57264681D01*
X68969432Y-57330145D01*
X68954580Y-57398418D01*
X68933430Y-57426673D01*
X68811503Y-57548600D01*
X68675965Y-57742169D01*
X68675964Y-57742171D01*
X68576098Y-57956335D01*
X68576094Y-57956344D01*
X68514938Y-58184586D01*
X68514936Y-58184596D01*
X68494341Y-58419999D01*
X68494341Y-58420000D01*
X68514936Y-58655403D01*
X68514938Y-58655413D01*
X68576094Y-58883655D01*
X68576096Y-58883659D01*
X68576097Y-58883663D01*
X68644508Y-59030371D01*
X68675965Y-59097830D01*
X68675967Y-59097834D01*
X68811501Y-59291395D01*
X68811506Y-59291402D01*
X68978597Y-59458493D01*
X68978603Y-59458498D01*
X69164158Y-59588425D01*
X69207783Y-59643002D01*
X69214977Y-59712500D01*
X69183454Y-59774855D01*
X69164158Y-59791575D01*
X68978597Y-59921505D01*
X68811505Y-60088597D01*
X68675965Y-60282169D01*
X68675964Y-60282171D01*
X68576098Y-60496335D01*
X68576094Y-60496344D01*
X68514938Y-60724586D01*
X68514936Y-60724596D01*
X68494341Y-60959999D01*
X68494341Y-60960000D01*
X68514936Y-61195403D01*
X68514938Y-61195413D01*
X68576094Y-61423655D01*
X68576096Y-61423659D01*
X68576097Y-61423663D01*
X68671015Y-61627214D01*
X68675965Y-61637830D01*
X68675967Y-61637834D01*
X68811501Y-61831395D01*
X68811506Y-61831402D01*
X68978597Y-61998493D01*
X68978603Y-61998498D01*
X69164158Y-62128425D01*
X69207783Y-62183002D01*
X69214977Y-62252500D01*
X69183454Y-62314855D01*
X69164158Y-62331575D01*
X68978597Y-62461505D01*
X68811505Y-62628597D01*
X68675965Y-62822169D01*
X68675964Y-62822171D01*
X68576098Y-63036335D01*
X68576094Y-63036344D01*
X68514938Y-63264586D01*
X68514936Y-63264596D01*
X68494341Y-63499999D01*
X68494341Y-63500000D01*
X68514936Y-63735403D01*
X68514938Y-63735413D01*
X68576094Y-63963655D01*
X68576096Y-63963659D01*
X68576097Y-63963663D01*
X68611670Y-64039949D01*
X68675965Y-64177830D01*
X68675967Y-64177834D01*
X68811501Y-64371395D01*
X68811506Y-64371402D01*
X68978597Y-64538493D01*
X68978603Y-64538498D01*
X69164158Y-64668425D01*
X69207783Y-64723002D01*
X69214977Y-64792500D01*
X69183454Y-64854855D01*
X69164158Y-64871575D01*
X68978597Y-65001505D01*
X68811505Y-65168597D01*
X68675965Y-65362169D01*
X68675964Y-65362171D01*
X68609925Y-65503793D01*
X68577226Y-65573917D01*
X68576098Y-65576335D01*
X68576094Y-65576344D01*
X68514938Y-65804586D01*
X68514936Y-65804596D01*
X68494341Y-66039999D01*
X68494341Y-66040000D01*
X68514936Y-66275403D01*
X68514938Y-66275413D01*
X68576094Y-66503655D01*
X68576096Y-66503659D01*
X68576097Y-66503663D01*
X68607073Y-66570090D01*
X68675965Y-66717830D01*
X68675967Y-66717834D01*
X68811501Y-66911395D01*
X68811506Y-66911402D01*
X68978597Y-67078493D01*
X68978603Y-67078498D01*
X69164158Y-67208425D01*
X69207783Y-67263002D01*
X69214977Y-67332500D01*
X69183454Y-67394855D01*
X69164158Y-67411575D01*
X68978597Y-67541505D01*
X68811505Y-67708597D01*
X68675965Y-67902169D01*
X68675964Y-67902171D01*
X68576098Y-68116335D01*
X68576094Y-68116344D01*
X68514938Y-68344586D01*
X68514936Y-68344596D01*
X68494341Y-68579999D01*
X68494341Y-68580000D01*
X68514936Y-68815403D01*
X68514938Y-68815413D01*
X68576094Y-69043655D01*
X68576096Y-69043659D01*
X68576097Y-69043663D01*
X68675965Y-69257830D01*
X68675967Y-69257834D01*
X68811501Y-69451395D01*
X68811506Y-69451402D01*
X68978597Y-69618493D01*
X68978603Y-69618498D01*
X69164158Y-69748425D01*
X69207783Y-69803002D01*
X69214977Y-69872500D01*
X69183454Y-69934855D01*
X69164158Y-69951575D01*
X68978597Y-70081505D01*
X68811505Y-70248597D01*
X68675965Y-70442169D01*
X68675964Y-70442171D01*
X68576098Y-70656335D01*
X68576094Y-70656344D01*
X68514938Y-70884586D01*
X68514936Y-70884596D01*
X68494341Y-71119999D01*
X68494341Y-71120000D01*
X68514936Y-71355403D01*
X68514938Y-71355413D01*
X68576094Y-71583655D01*
X68576096Y-71583659D01*
X68576097Y-71583663D01*
X68675965Y-71797830D01*
X68675967Y-71797834D01*
X68811501Y-71991395D01*
X68811506Y-71991402D01*
X68978597Y-72158493D01*
X68978603Y-72158498D01*
X69164158Y-72288425D01*
X69207783Y-72343002D01*
X69214977Y-72412500D01*
X69183454Y-72474855D01*
X69164158Y-72491575D01*
X68978597Y-72621505D01*
X68811505Y-72788597D01*
X68675965Y-72982169D01*
X68675964Y-72982171D01*
X68576098Y-73196335D01*
X68576094Y-73196344D01*
X68514938Y-73424586D01*
X68514936Y-73424596D01*
X68494341Y-73659999D01*
X68494341Y-73660000D01*
X68514936Y-73895403D01*
X68514938Y-73895413D01*
X68576094Y-74123655D01*
X68576096Y-74123659D01*
X68576097Y-74123663D01*
X68675965Y-74337830D01*
X68675967Y-74337834D01*
X68811501Y-74531395D01*
X68811506Y-74531402D01*
X68978597Y-74698493D01*
X68978603Y-74698498D01*
X69164158Y-74828425D01*
X69207783Y-74883002D01*
X69214977Y-74952500D01*
X69183454Y-75014855D01*
X69164158Y-75031575D01*
X68978597Y-75161505D01*
X68811505Y-75328597D01*
X68675965Y-75522169D01*
X68675964Y-75522171D01*
X68576098Y-75736335D01*
X68576094Y-75736344D01*
X68514938Y-75964586D01*
X68514936Y-75964596D01*
X68494341Y-76199999D01*
X68494341Y-76200000D01*
X68514936Y-76435403D01*
X68514938Y-76435413D01*
X68576094Y-76663655D01*
X68576096Y-76663659D01*
X68576097Y-76663663D01*
X68675965Y-76877830D01*
X68675967Y-76877834D01*
X68784281Y-77032521D01*
X68811501Y-77071396D01*
X68811506Y-77071402D01*
X68978597Y-77238493D01*
X68978603Y-77238498D01*
X69164158Y-77368425D01*
X69207783Y-77423002D01*
X69214977Y-77492500D01*
X69183454Y-77554855D01*
X69164158Y-77571575D01*
X68978597Y-77701505D01*
X68811505Y-77868597D01*
X68675965Y-78062169D01*
X68675964Y-78062171D01*
X68576098Y-78276335D01*
X68576094Y-78276344D01*
X68514938Y-78504586D01*
X68514936Y-78504596D01*
X68494341Y-78739999D01*
X68494341Y-78740000D01*
X68514936Y-78975403D01*
X68514938Y-78975413D01*
X68576094Y-79203655D01*
X68576096Y-79203659D01*
X68576097Y-79203663D01*
X68675965Y-79417830D01*
X68675967Y-79417834D01*
X68784281Y-79572521D01*
X68811505Y-79611401D01*
X68978599Y-79778495D01*
X69075384Y-79846265D01*
X69172165Y-79914032D01*
X69172167Y-79914033D01*
X69172170Y-79914035D01*
X69386337Y-80013903D01*
X69614592Y-80075063D01*
X69791034Y-80090500D01*
X69849999Y-80095659D01*
X69850000Y-80095659D01*
X69850001Y-80095659D01*
X69908966Y-80090500D01*
X70085408Y-80075063D01*
X70313663Y-80013903D01*
X70527830Y-79914035D01*
X70721401Y-79778495D01*
X70888495Y-79611401D01*
X71024035Y-79417830D01*
X71123903Y-79203663D01*
X71185063Y-78975408D01*
X71205659Y-78740000D01*
X71185063Y-78504592D01*
X71158143Y-78404125D01*
X71159806Y-78334276D01*
X71190235Y-78284353D01*
X74967102Y-74507487D01*
X75028423Y-74474004D01*
X75098115Y-74478988D01*
X75154048Y-74520860D01*
X75156328Y-74524008D01*
X75161505Y-74531401D01*
X75161508Y-74531404D01*
X75328597Y-74698493D01*
X75328603Y-74698498D01*
X75514158Y-74828425D01*
X75557783Y-74883002D01*
X75564977Y-74952500D01*
X75533454Y-75014855D01*
X75514158Y-75031575D01*
X75328597Y-75161505D01*
X75161505Y-75328597D01*
X75025965Y-75522169D01*
X75025964Y-75522171D01*
X74926098Y-75736335D01*
X74926094Y-75736344D01*
X74864938Y-75964586D01*
X74864936Y-75964596D01*
X74844341Y-76199999D01*
X74844341Y-76200000D01*
X74864936Y-76435403D01*
X74864938Y-76435413D01*
X74926094Y-76663655D01*
X74926096Y-76663659D01*
X74926097Y-76663663D01*
X75025965Y-76877830D01*
X75025967Y-76877834D01*
X75134281Y-77032521D01*
X75161501Y-77071396D01*
X75161506Y-77071402D01*
X75328597Y-77238493D01*
X75328603Y-77238498D01*
X75514158Y-77368425D01*
X75557783Y-77423002D01*
X75564977Y-77492500D01*
X75533454Y-77554855D01*
X75514158Y-77571575D01*
X75328597Y-77701505D01*
X75161505Y-77868597D01*
X75025965Y-78062169D01*
X75025964Y-78062171D01*
X74926098Y-78276335D01*
X74926094Y-78276344D01*
X74864938Y-78504586D01*
X74864936Y-78504596D01*
X74844341Y-78739999D01*
X74844341Y-78740000D01*
X74864936Y-78975403D01*
X74864938Y-78975413D01*
X74926094Y-79203655D01*
X74926096Y-79203659D01*
X74926097Y-79203663D01*
X75025965Y-79417830D01*
X75025967Y-79417834D01*
X75134281Y-79572521D01*
X75161505Y-79611401D01*
X75328599Y-79778495D01*
X75425384Y-79846265D01*
X75522165Y-79914032D01*
X75522167Y-79914033D01*
X75522170Y-79914035D01*
X75736337Y-80013903D01*
X75964592Y-80075063D01*
X76141034Y-80090500D01*
X76199999Y-80095659D01*
X76200000Y-80095659D01*
X76200001Y-80095659D01*
X76258966Y-80090500D01*
X76435408Y-80075063D01*
X76663663Y-80013903D01*
X76877830Y-79914035D01*
X77071401Y-79778495D01*
X77238495Y-79611401D01*
X77374035Y-79417830D01*
X77473903Y-79203663D01*
X77535063Y-78975408D01*
X77555659Y-78740000D01*
X77535063Y-78504592D01*
X77508143Y-78404125D01*
X77509806Y-78334276D01*
X77540235Y-78284353D01*
X81317102Y-74507487D01*
X81378423Y-74474004D01*
X81448115Y-74478988D01*
X81504048Y-74520860D01*
X81506328Y-74524008D01*
X81511505Y-74531401D01*
X81511508Y-74531404D01*
X81678597Y-74698493D01*
X81678603Y-74698498D01*
X81864158Y-74828425D01*
X81907783Y-74883002D01*
X81914977Y-74952500D01*
X81883454Y-75014855D01*
X81864158Y-75031575D01*
X81678597Y-75161505D01*
X81511505Y-75328597D01*
X81375965Y-75522169D01*
X81375964Y-75522171D01*
X81276098Y-75736335D01*
X81276094Y-75736344D01*
X81214938Y-75964586D01*
X81214936Y-75964596D01*
X81194341Y-76199999D01*
X81194341Y-76200000D01*
X81214936Y-76435403D01*
X81214938Y-76435413D01*
X81276094Y-76663655D01*
X81276096Y-76663659D01*
X81276097Y-76663663D01*
X81375965Y-76877830D01*
X81375967Y-76877834D01*
X81484281Y-77032521D01*
X81511501Y-77071396D01*
X81511506Y-77071402D01*
X81633430Y-77193326D01*
X81666915Y-77254649D01*
X81661931Y-77324341D01*
X81620059Y-77380274D01*
X81589083Y-77397189D01*
X81457669Y-77446203D01*
X81457664Y-77446206D01*
X81342455Y-77532452D01*
X81342452Y-77532455D01*
X81256206Y-77647664D01*
X81256202Y-77647671D01*
X81205908Y-77782517D01*
X81199501Y-77842116D01*
X81199501Y-77842123D01*
X81199500Y-77842135D01*
X81199500Y-79637870D01*
X81199501Y-79637876D01*
X81205908Y-79697483D01*
X81256202Y-79832328D01*
X81256206Y-79832335D01*
X81342452Y-79947544D01*
X81342455Y-79947547D01*
X81457664Y-80033793D01*
X81457671Y-80033797D01*
X81592517Y-80084091D01*
X81592516Y-80084091D01*
X81599444Y-80084835D01*
X81652127Y-80090500D01*
X83447872Y-80090499D01*
X83507483Y-80084091D01*
X83642331Y-80033796D01*
X83757546Y-79947546D01*
X83843796Y-79832331D01*
X83894091Y-79697483D01*
X83900500Y-79637873D01*
X83900499Y-77842128D01*
X83894091Y-77782517D01*
X83843796Y-77647669D01*
X83843795Y-77647668D01*
X83843793Y-77647664D01*
X83757547Y-77532455D01*
X83757544Y-77532452D01*
X83642335Y-77446206D01*
X83642328Y-77446202D01*
X83510917Y-77397189D01*
X83454983Y-77355318D01*
X83430566Y-77289853D01*
X83445418Y-77221580D01*
X83466563Y-77193332D01*
X83588495Y-77071401D01*
X83724035Y-76877830D01*
X83823903Y-76663663D01*
X83885063Y-76435408D01*
X83905659Y-76200000D01*
X87544341Y-76200000D01*
X87564936Y-76435403D01*
X87564938Y-76435413D01*
X87626094Y-76663655D01*
X87626096Y-76663659D01*
X87626097Y-76663663D01*
X87725965Y-76877830D01*
X87725967Y-76877834D01*
X87834281Y-77032521D01*
X87861501Y-77071396D01*
X87861506Y-77071402D01*
X87983430Y-77193326D01*
X88016915Y-77254649D01*
X88011931Y-77324341D01*
X87970059Y-77380274D01*
X87939083Y-77397189D01*
X87807669Y-77446203D01*
X87807664Y-77446206D01*
X87692455Y-77532452D01*
X87692452Y-77532455D01*
X87606206Y-77647664D01*
X87606202Y-77647671D01*
X87555908Y-77782517D01*
X87549501Y-77842116D01*
X87549501Y-77842123D01*
X87549500Y-77842135D01*
X87549500Y-79637870D01*
X87549501Y-79637876D01*
X87555908Y-79697483D01*
X87606202Y-79832328D01*
X87606206Y-79832335D01*
X87692452Y-79947544D01*
X87692455Y-79947547D01*
X87807664Y-80033793D01*
X87807671Y-80033797D01*
X87942517Y-80084091D01*
X87942516Y-80084091D01*
X87949444Y-80084835D01*
X88002127Y-80090500D01*
X89797872Y-80090499D01*
X89857483Y-80084091D01*
X89992331Y-80033796D01*
X90107546Y-79947546D01*
X90193796Y-79832331D01*
X90244091Y-79697483D01*
X90250500Y-79637873D01*
X90250499Y-77842128D01*
X90244091Y-77782517D01*
X90193796Y-77647669D01*
X90193795Y-77647668D01*
X90193793Y-77647664D01*
X90107547Y-77532455D01*
X90107544Y-77532452D01*
X89992335Y-77446206D01*
X89992328Y-77446202D01*
X89860917Y-77397189D01*
X89804983Y-77355318D01*
X89780566Y-77289853D01*
X89795418Y-77221580D01*
X89816563Y-77193332D01*
X89938495Y-77071401D01*
X90074035Y-76877830D01*
X90173903Y-76663663D01*
X90235063Y-76435408D01*
X90255659Y-76200000D01*
X90235063Y-75964592D01*
X90173903Y-75736337D01*
X90074035Y-75522171D01*
X89938495Y-75328599D01*
X89938494Y-75328597D01*
X89771402Y-75161506D01*
X89771396Y-75161501D01*
X89585842Y-75031575D01*
X89542217Y-74976998D01*
X89535023Y-74907500D01*
X89566546Y-74845145D01*
X89585842Y-74828425D01*
X89608026Y-74812891D01*
X89771401Y-74698495D01*
X89938495Y-74531401D01*
X90074035Y-74337830D01*
X90173903Y-74123663D01*
X90235063Y-73895408D01*
X90255659Y-73660000D01*
X90254541Y-73647227D01*
X90235063Y-73424596D01*
X90235063Y-73424592D01*
X90173903Y-73196337D01*
X90074035Y-72982171D01*
X89974550Y-72840090D01*
X89938494Y-72788597D01*
X89771402Y-72621506D01*
X89771396Y-72621501D01*
X89585842Y-72491575D01*
X89542217Y-72436998D01*
X89535023Y-72367500D01*
X89566546Y-72305145D01*
X89585842Y-72288425D01*
X89754500Y-72170329D01*
X89771401Y-72158495D01*
X89938495Y-71991401D01*
X90074035Y-71797830D01*
X90173903Y-71583663D01*
X90235063Y-71355408D01*
X90255659Y-71120000D01*
X90235063Y-70884592D01*
X90173903Y-70656337D01*
X90074035Y-70442171D01*
X89938495Y-70248599D01*
X89938494Y-70248597D01*
X89771402Y-70081506D01*
X89771396Y-70081501D01*
X89585842Y-69951575D01*
X89542217Y-69896998D01*
X89535023Y-69827500D01*
X89566546Y-69765145D01*
X89585842Y-69748425D01*
X89754500Y-69630329D01*
X89771401Y-69618495D01*
X89938495Y-69451401D01*
X90074035Y-69257830D01*
X90173903Y-69043663D01*
X90235063Y-68815408D01*
X90255659Y-68580000D01*
X90235063Y-68344592D01*
X90173903Y-68116337D01*
X90074035Y-67902171D01*
X89938495Y-67708599D01*
X89938494Y-67708597D01*
X89771402Y-67541506D01*
X89771396Y-67541501D01*
X89585842Y-67411575D01*
X89542217Y-67356998D01*
X89535023Y-67287500D01*
X89566546Y-67225145D01*
X89585842Y-67208425D01*
X89754500Y-67090329D01*
X89771401Y-67078495D01*
X89938495Y-66911401D01*
X90074035Y-66717830D01*
X90173903Y-66503663D01*
X90235063Y-66275408D01*
X90255659Y-66040000D01*
X90235063Y-65804592D01*
X90178379Y-65593041D01*
X90173905Y-65576344D01*
X90173904Y-65576343D01*
X90173903Y-65576337D01*
X90074035Y-65362171D01*
X90007106Y-65266585D01*
X89938494Y-65168597D01*
X89771402Y-65001506D01*
X89771396Y-65001501D01*
X89585842Y-64871575D01*
X89542217Y-64816998D01*
X89535023Y-64747500D01*
X89566546Y-64685145D01*
X89585842Y-64668425D01*
X89626764Y-64639771D01*
X89771401Y-64538495D01*
X89938495Y-64371401D01*
X90074035Y-64177830D01*
X90173903Y-63963663D01*
X90235063Y-63735408D01*
X90255659Y-63500000D01*
X90235063Y-63264592D01*
X90173903Y-63036337D01*
X90074035Y-62822171D01*
X90073890Y-62821963D01*
X89938494Y-62628597D01*
X89771402Y-62461506D01*
X89771396Y-62461501D01*
X89585842Y-62331575D01*
X89542217Y-62276998D01*
X89535023Y-62207500D01*
X89566546Y-62145145D01*
X89585842Y-62128425D01*
X89608381Y-62112643D01*
X89771401Y-61998495D01*
X89938495Y-61831401D01*
X90074035Y-61637830D01*
X90173903Y-61423663D01*
X90235063Y-61195408D01*
X90255659Y-60960000D01*
X90235063Y-60724592D01*
X90173903Y-60496337D01*
X90074035Y-60282171D01*
X90065982Y-60270669D01*
X89938494Y-60088597D01*
X89771402Y-59921506D01*
X89771396Y-59921501D01*
X89585842Y-59791575D01*
X89542217Y-59736998D01*
X89535023Y-59667500D01*
X89566546Y-59605145D01*
X89585842Y-59588425D01*
X89620003Y-59564505D01*
X89771401Y-59458495D01*
X89938495Y-59291401D01*
X90074035Y-59097830D01*
X90173903Y-58883663D01*
X90235063Y-58655408D01*
X90255659Y-58420000D01*
X90235063Y-58184592D01*
X90173903Y-57956337D01*
X90074035Y-57742171D01*
X90065982Y-57730669D01*
X89938494Y-57548597D01*
X89771402Y-57381506D01*
X89771396Y-57381501D01*
X89585842Y-57251575D01*
X89542217Y-57196998D01*
X89535023Y-57127500D01*
X89566546Y-57065145D01*
X89585842Y-57048425D01*
X89614938Y-57028052D01*
X89771401Y-56918495D01*
X89938495Y-56751401D01*
X90074035Y-56557830D01*
X90173903Y-56343663D01*
X90235063Y-56115408D01*
X90255659Y-55880000D01*
X90235063Y-55644592D01*
X90173903Y-55416337D01*
X90074035Y-55202171D01*
X90058109Y-55179425D01*
X89938494Y-55008597D01*
X89771402Y-54841506D01*
X89771395Y-54841501D01*
X89577834Y-54705967D01*
X89577830Y-54705965D01*
X89540657Y-54688631D01*
X89363663Y-54606097D01*
X89363659Y-54606096D01*
X89363655Y-54606094D01*
X89135413Y-54544938D01*
X89135403Y-54544936D01*
X88900001Y-54524341D01*
X88899999Y-54524341D01*
X88664596Y-54544936D01*
X88664586Y-54544938D01*
X88436344Y-54606094D01*
X88436335Y-54606098D01*
X88222171Y-54705964D01*
X88222169Y-54705965D01*
X88028597Y-54841505D01*
X87861505Y-55008597D01*
X87725965Y-55202169D01*
X87725964Y-55202171D01*
X87626098Y-55416335D01*
X87626094Y-55416344D01*
X87564938Y-55644586D01*
X87564936Y-55644596D01*
X87544341Y-55879999D01*
X87544341Y-55880000D01*
X87564936Y-56115403D01*
X87564938Y-56115413D01*
X87626094Y-56343655D01*
X87626096Y-56343659D01*
X87626097Y-56343663D01*
X87725965Y-56557830D01*
X87725967Y-56557834D01*
X87861501Y-56751395D01*
X87861506Y-56751402D01*
X88028597Y-56918493D01*
X88028603Y-56918498D01*
X88214158Y-57048425D01*
X88257783Y-57103002D01*
X88264977Y-57172500D01*
X88233454Y-57234855D01*
X88214158Y-57251575D01*
X88028597Y-57381505D01*
X87861505Y-57548597D01*
X87725965Y-57742169D01*
X87725964Y-57742171D01*
X87626098Y-57956335D01*
X87626094Y-57956344D01*
X87564938Y-58184586D01*
X87564936Y-58184596D01*
X87544341Y-58419999D01*
X87544341Y-58420000D01*
X87564936Y-58655403D01*
X87564938Y-58655413D01*
X87626094Y-58883655D01*
X87626096Y-58883659D01*
X87626097Y-58883663D01*
X87694508Y-59030371D01*
X87725965Y-59097830D01*
X87725967Y-59097834D01*
X87861501Y-59291395D01*
X87861506Y-59291402D01*
X88028597Y-59458493D01*
X88028603Y-59458498D01*
X88214158Y-59588425D01*
X88257783Y-59643002D01*
X88264977Y-59712500D01*
X88233454Y-59774855D01*
X88214158Y-59791575D01*
X88028597Y-59921505D01*
X87861505Y-60088597D01*
X87725965Y-60282169D01*
X87725964Y-60282171D01*
X87626098Y-60496335D01*
X87626094Y-60496344D01*
X87564938Y-60724586D01*
X87564936Y-60724596D01*
X87544341Y-60959999D01*
X87544341Y-60960000D01*
X87564936Y-61195403D01*
X87564938Y-61195413D01*
X87626094Y-61423655D01*
X87626096Y-61423659D01*
X87626097Y-61423663D01*
X87721015Y-61627214D01*
X87725965Y-61637830D01*
X87725967Y-61637834D01*
X87861501Y-61831395D01*
X87861506Y-61831402D01*
X88028597Y-61998493D01*
X88028603Y-61998498D01*
X88214158Y-62128425D01*
X88257783Y-62183002D01*
X88264977Y-62252500D01*
X88233454Y-62314855D01*
X88214158Y-62331575D01*
X88028597Y-62461505D01*
X87861505Y-62628597D01*
X87725965Y-62822169D01*
X87725964Y-62822171D01*
X87626098Y-63036335D01*
X87626094Y-63036344D01*
X87564938Y-63264586D01*
X87564936Y-63264596D01*
X87544341Y-63499999D01*
X87544341Y-63500000D01*
X87564936Y-63735403D01*
X87564938Y-63735413D01*
X87626094Y-63963655D01*
X87626096Y-63963659D01*
X87626097Y-63963663D01*
X87661670Y-64039949D01*
X87725965Y-64177830D01*
X87725967Y-64177834D01*
X87861501Y-64371395D01*
X87861506Y-64371402D01*
X88028597Y-64538493D01*
X88028603Y-64538498D01*
X88214158Y-64668425D01*
X88257783Y-64723002D01*
X88264977Y-64792500D01*
X88233454Y-64854855D01*
X88214158Y-64871575D01*
X88028597Y-65001505D01*
X87861505Y-65168597D01*
X87725965Y-65362169D01*
X87725964Y-65362171D01*
X87659925Y-65503793D01*
X87627226Y-65573917D01*
X87626098Y-65576335D01*
X87626094Y-65576344D01*
X87564938Y-65804586D01*
X87564936Y-65804596D01*
X87544341Y-66039999D01*
X87544341Y-66040000D01*
X87564936Y-66275403D01*
X87564938Y-66275413D01*
X87626094Y-66503655D01*
X87626096Y-66503659D01*
X87626097Y-66503663D01*
X87657073Y-66570090D01*
X87725965Y-66717830D01*
X87725967Y-66717834D01*
X87861501Y-66911395D01*
X87861506Y-66911402D01*
X88028597Y-67078493D01*
X88028603Y-67078498D01*
X88214158Y-67208425D01*
X88257783Y-67263002D01*
X88264977Y-67332500D01*
X88233454Y-67394855D01*
X88214158Y-67411575D01*
X88028597Y-67541505D01*
X87861505Y-67708597D01*
X87725965Y-67902169D01*
X87725964Y-67902171D01*
X87626098Y-68116335D01*
X87626094Y-68116344D01*
X87564938Y-68344586D01*
X87564936Y-68344596D01*
X87544341Y-68579999D01*
X87544341Y-68580000D01*
X87564936Y-68815403D01*
X87564938Y-68815413D01*
X87626094Y-69043655D01*
X87626096Y-69043659D01*
X87626097Y-69043663D01*
X87725965Y-69257830D01*
X87725967Y-69257834D01*
X87861501Y-69451395D01*
X87861506Y-69451402D01*
X88028597Y-69618493D01*
X88028603Y-69618498D01*
X88214158Y-69748425D01*
X88257783Y-69803002D01*
X88264977Y-69872500D01*
X88233454Y-69934855D01*
X88214158Y-69951575D01*
X88028597Y-70081505D01*
X87861505Y-70248597D01*
X87725965Y-70442169D01*
X87725964Y-70442171D01*
X87626098Y-70656335D01*
X87626094Y-70656344D01*
X87564938Y-70884586D01*
X87564936Y-70884596D01*
X87544341Y-71119999D01*
X87544341Y-71120000D01*
X87564936Y-71355403D01*
X87564938Y-71355413D01*
X87626094Y-71583655D01*
X87626096Y-71583659D01*
X87626097Y-71583663D01*
X87725965Y-71797830D01*
X87725967Y-71797834D01*
X87861501Y-71991395D01*
X87861506Y-71991402D01*
X88028597Y-72158493D01*
X88028603Y-72158498D01*
X88214158Y-72288425D01*
X88257783Y-72343002D01*
X88264977Y-72412500D01*
X88233454Y-72474855D01*
X88214158Y-72491575D01*
X88028597Y-72621505D01*
X87861505Y-72788597D01*
X87725965Y-72982169D01*
X87725964Y-72982171D01*
X87626098Y-73196335D01*
X87626094Y-73196344D01*
X87564938Y-73424586D01*
X87564936Y-73424596D01*
X87544341Y-73659999D01*
X87544341Y-73660000D01*
X87564936Y-73895403D01*
X87564938Y-73895413D01*
X87626094Y-74123655D01*
X87626096Y-74123659D01*
X87626097Y-74123663D01*
X87725965Y-74337830D01*
X87725967Y-74337834D01*
X87861501Y-74531395D01*
X87861506Y-74531402D01*
X88028597Y-74698493D01*
X88028603Y-74698498D01*
X88214158Y-74828425D01*
X88257783Y-74883002D01*
X88264977Y-74952500D01*
X88233454Y-75014855D01*
X88214158Y-75031575D01*
X88028597Y-75161505D01*
X87861505Y-75328597D01*
X87725965Y-75522169D01*
X87725964Y-75522171D01*
X87626098Y-75736335D01*
X87626094Y-75736344D01*
X87564938Y-75964586D01*
X87564936Y-75964596D01*
X87544341Y-76199999D01*
X87544341Y-76200000D01*
X83905659Y-76200000D01*
X83885063Y-75964592D01*
X83823903Y-75736337D01*
X83724035Y-75522171D01*
X83588495Y-75328599D01*
X83588494Y-75328597D01*
X83421402Y-75161506D01*
X83421396Y-75161501D01*
X83235842Y-75031575D01*
X83192217Y-74976998D01*
X83185023Y-74907500D01*
X83216546Y-74845145D01*
X83235842Y-74828425D01*
X83258026Y-74812891D01*
X83421401Y-74698495D01*
X83588495Y-74531401D01*
X83724035Y-74337830D01*
X83823903Y-74123663D01*
X83885063Y-73895408D01*
X83905659Y-73660000D01*
X83904541Y-73647227D01*
X83885063Y-73424596D01*
X83885063Y-73424592D01*
X83823903Y-73196337D01*
X83724035Y-72982171D01*
X83624550Y-72840090D01*
X83588494Y-72788597D01*
X83421402Y-72621506D01*
X83421396Y-72621501D01*
X83235842Y-72491575D01*
X83192217Y-72436998D01*
X83185023Y-72367500D01*
X83216546Y-72305145D01*
X83235842Y-72288425D01*
X83404500Y-72170329D01*
X83421401Y-72158495D01*
X83588495Y-71991401D01*
X83724035Y-71797830D01*
X83823903Y-71583663D01*
X83885063Y-71355408D01*
X83905659Y-71120000D01*
X83885063Y-70884592D01*
X83823903Y-70656337D01*
X83724035Y-70442171D01*
X83588495Y-70248599D01*
X83588494Y-70248597D01*
X83421402Y-70081506D01*
X83421396Y-70081501D01*
X83235842Y-69951575D01*
X83192217Y-69896998D01*
X83185023Y-69827500D01*
X83216546Y-69765145D01*
X83235842Y-69748425D01*
X83404500Y-69630329D01*
X83421401Y-69618495D01*
X83588495Y-69451401D01*
X83724035Y-69257830D01*
X83823903Y-69043663D01*
X83885063Y-68815408D01*
X83905659Y-68580000D01*
X83885063Y-68344592D01*
X83823903Y-68116337D01*
X83724035Y-67902171D01*
X83588495Y-67708599D01*
X83588494Y-67708597D01*
X83421402Y-67541506D01*
X83421396Y-67541501D01*
X83235842Y-67411575D01*
X83192217Y-67356998D01*
X83185023Y-67287500D01*
X83216546Y-67225145D01*
X83235842Y-67208425D01*
X83404500Y-67090329D01*
X83421401Y-67078495D01*
X83588495Y-66911401D01*
X83724035Y-66717830D01*
X83823903Y-66503663D01*
X83885063Y-66275408D01*
X83905659Y-66040000D01*
X83885063Y-65804592D01*
X83828379Y-65593041D01*
X83823905Y-65576344D01*
X83823904Y-65576343D01*
X83823903Y-65576337D01*
X83724035Y-65362171D01*
X83657106Y-65266585D01*
X83588494Y-65168597D01*
X83421402Y-65001506D01*
X83421396Y-65001501D01*
X83235842Y-64871575D01*
X83192217Y-64816998D01*
X83185023Y-64747500D01*
X83216546Y-64685145D01*
X83235842Y-64668425D01*
X83276764Y-64639771D01*
X83421401Y-64538495D01*
X83588495Y-64371401D01*
X83724035Y-64177830D01*
X83823903Y-63963663D01*
X83885063Y-63735408D01*
X83905659Y-63500000D01*
X83885063Y-63264592D01*
X83823903Y-63036337D01*
X83724035Y-62822171D01*
X83723890Y-62821963D01*
X83588494Y-62628597D01*
X83421402Y-62461506D01*
X83421396Y-62461501D01*
X83235842Y-62331575D01*
X83192217Y-62276998D01*
X83185023Y-62207500D01*
X83216546Y-62145145D01*
X83235842Y-62128425D01*
X83258381Y-62112643D01*
X83421401Y-61998495D01*
X83588495Y-61831401D01*
X83724035Y-61637830D01*
X83823903Y-61423663D01*
X83885063Y-61195408D01*
X83905659Y-60960000D01*
X83885063Y-60724592D01*
X83823903Y-60496337D01*
X83724035Y-60282171D01*
X83715982Y-60270669D01*
X83588494Y-60088597D01*
X83421402Y-59921506D01*
X83421396Y-59921501D01*
X83235842Y-59791575D01*
X83192217Y-59736998D01*
X83185023Y-59667500D01*
X83216546Y-59605145D01*
X83235842Y-59588425D01*
X83270003Y-59564505D01*
X83421401Y-59458495D01*
X83588495Y-59291401D01*
X83724035Y-59097830D01*
X83823903Y-58883663D01*
X83885063Y-58655408D01*
X83905659Y-58420000D01*
X83885063Y-58184592D01*
X83823903Y-57956337D01*
X83724035Y-57742171D01*
X83715982Y-57730669D01*
X83588494Y-57548597D01*
X83421402Y-57381506D01*
X83421396Y-57381501D01*
X83235842Y-57251575D01*
X83192217Y-57196998D01*
X83185023Y-57127500D01*
X83216546Y-57065145D01*
X83235842Y-57048425D01*
X83264938Y-57028052D01*
X83421401Y-56918495D01*
X83588495Y-56751401D01*
X83724035Y-56557830D01*
X83823903Y-56343663D01*
X83885063Y-56115408D01*
X83905659Y-55880000D01*
X83885063Y-55644592D01*
X83823903Y-55416337D01*
X83724035Y-55202171D01*
X83708109Y-55179425D01*
X83588494Y-55008597D01*
X83421402Y-54841506D01*
X83421395Y-54841501D01*
X83227834Y-54705967D01*
X83227830Y-54705965D01*
X83190657Y-54688631D01*
X83013663Y-54606097D01*
X83013659Y-54606096D01*
X83013655Y-54606094D01*
X82785413Y-54544938D01*
X82785403Y-54544936D01*
X82550001Y-54524341D01*
X82549610Y-54524341D01*
X82549444Y-54524292D01*
X82544606Y-54523869D01*
X82544691Y-54522896D01*
X82482571Y-54504656D01*
X82436816Y-54451852D01*
X82426872Y-54382694D01*
X82455897Y-54319138D01*
X82461929Y-54312660D01*
X83572326Y-53202263D01*
X84711786Y-52062802D01*
X84724048Y-52052980D01*
X84723865Y-52052759D01*
X84729868Y-52047791D01*
X84729877Y-52047786D01*
X84775934Y-51998739D01*
X84778582Y-51996006D01*
X84798120Y-51976470D01*
X84800584Y-51973292D01*
X84808154Y-51964429D01*
X84838062Y-51932582D01*
X84847713Y-51915024D01*
X84858396Y-51898761D01*
X84870673Y-51882936D01*
X84888018Y-51842849D01*
X84893152Y-51832371D01*
X84914197Y-51794092D01*
X84919178Y-51774687D01*
X84925482Y-51756279D01*
X84933438Y-51737895D01*
X84940270Y-51694748D01*
X84942639Y-51683316D01*
X84953499Y-51641022D01*
X84953500Y-51641017D01*
X84953500Y-51620983D01*
X84955027Y-51601582D01*
X84955803Y-51596683D01*
X84958160Y-51581804D01*
X84954050Y-51538324D01*
X84953500Y-51526655D01*
X84953500Y-48891749D01*
X84973185Y-48824710D01*
X85003190Y-48792482D01*
X85060546Y-48749546D01*
X85146796Y-48634331D01*
X85197091Y-48499483D01*
X85203500Y-48439873D01*
X85203499Y-46044128D01*
X85197091Y-45984517D01*
X85146796Y-45849669D01*
X85146795Y-45849668D01*
X85146793Y-45849664D01*
X85060547Y-45734456D01*
X85060548Y-45734456D01*
X85060546Y-45734454D01*
X85002854Y-45691265D01*
X84960984Y-45635333D01*
X84956000Y-45565641D01*
X84989485Y-45504318D01*
X85002854Y-45492734D01*
X85060546Y-45449546D01*
X85146796Y-45334331D01*
X85197091Y-45199483D01*
X85203500Y-45139873D01*
X85203499Y-42744128D01*
X85197091Y-42684517D01*
X85196262Y-42676804D01*
X85197862Y-42676631D01*
X85201116Y-42615949D01*
X85230369Y-42569524D01*
X86841787Y-40958106D01*
X86854047Y-40948287D01*
X86853864Y-40948065D01*
X86859871Y-40943094D01*
X86859877Y-40943091D01*
X86905935Y-40894044D01*
X86908583Y-40891312D01*
X86928120Y-40871776D01*
X86930576Y-40868608D01*
X86938156Y-40859732D01*
X86968062Y-40827887D01*
X86977715Y-40810325D01*
X86988389Y-40794075D01*
X87000673Y-40778241D01*
X87018019Y-40738155D01*
X87023157Y-40727667D01*
X87044196Y-40689398D01*
X87044197Y-40689397D01*
X87049177Y-40669996D01*
X87055478Y-40651593D01*
X87063438Y-40633201D01*
X87070272Y-40590046D01*
X87072635Y-40578636D01*
X87083500Y-40536324D01*
X87083500Y-40516288D01*
X87085027Y-40496887D01*
X87088160Y-40477109D01*
X87084050Y-40433629D01*
X87083500Y-40421960D01*
X87083500Y-40130687D01*
X87103185Y-40063648D01*
X87115350Y-40047715D01*
X87141747Y-40018398D01*
X87190533Y-39964216D01*
X87285179Y-39800284D01*
X87343674Y-39620256D01*
X87363460Y-39432000D01*
X87343674Y-39243744D01*
X87285179Y-39063716D01*
X87190533Y-38899784D01*
X87156037Y-38861472D01*
X87125807Y-38798480D01*
X87134433Y-38729145D01*
X87179174Y-38675480D01*
X87245827Y-38654522D01*
X87248187Y-38654500D01*
X91269500Y-38654500D01*
X91336539Y-38674185D01*
X91382294Y-38726989D01*
X91393500Y-38778500D01*
X91393500Y-41257086D01*
X91429411Y-41472292D01*
X91500250Y-41678640D01*
X91500252Y-41678645D01*
X91515814Y-41707400D01*
X91604093Y-41870525D01*
X91627412Y-41900486D01*
X91653055Y-41965478D01*
X91639489Y-42034018D01*
X91610762Y-42070360D01*
X91577856Y-42098873D01*
X91500045Y-42219949D01*
X91459500Y-42358036D01*
X91459500Y-42501963D01*
X91500045Y-42640050D01*
X91562968Y-42737961D01*
X91582652Y-42805001D01*
X91562968Y-42872039D01*
X91500045Y-42969949D01*
X91459500Y-43108036D01*
X91459500Y-43251963D01*
X91500045Y-43390050D01*
X91562968Y-43487961D01*
X91582652Y-43555001D01*
X91562968Y-43622039D01*
X91500045Y-43719949D01*
X91459500Y-43858036D01*
X91459500Y-44001963D01*
X91500045Y-44140050D01*
X91500047Y-44140053D01*
X91577857Y-44261128D01*
X91610760Y-44289638D01*
X91610761Y-44289639D01*
X91648535Y-44348418D01*
X91648535Y-44418287D01*
X91627412Y-44459514D01*
X91604094Y-44489473D01*
X91500252Y-44681354D01*
X91500250Y-44681359D01*
X91429411Y-44887707D01*
X91393500Y-45102913D01*
X91393500Y-61577086D01*
X91429411Y-61792292D01*
X91500250Y-61998640D01*
X91500252Y-61998645D01*
X91604094Y-62190527D01*
X91604095Y-62190528D01*
X91622577Y-62214273D01*
X91648221Y-62279267D01*
X91634655Y-62347807D01*
X91605929Y-62384149D01*
X91565856Y-62418872D01*
X91488045Y-62539949D01*
X91447500Y-62678036D01*
X91447500Y-62821963D01*
X91488045Y-62960050D01*
X91550968Y-63057961D01*
X91570652Y-63125001D01*
X91550968Y-63192039D01*
X91488045Y-63289949D01*
X91447500Y-63428036D01*
X91447500Y-63571963D01*
X91488045Y-63710050D01*
X91550968Y-63807961D01*
X91570652Y-63875001D01*
X91550968Y-63942039D01*
X91488045Y-64039949D01*
X91447500Y-64178036D01*
X91447500Y-64321963D01*
X91488045Y-64460050D01*
X91488047Y-64460053D01*
X91565857Y-64581128D01*
X91605927Y-64615849D01*
X91643701Y-64674626D01*
X91643701Y-64744496D01*
X91622581Y-64785719D01*
X91604095Y-64809471D01*
X91604094Y-64809472D01*
X91500252Y-65001354D01*
X91500250Y-65001359D01*
X91429411Y-65207707D01*
X91393500Y-65422913D01*
X91393500Y-82125500D01*
X91373815Y-82192539D01*
X91321011Y-82238294D01*
X91269500Y-82249500D01*
X67480500Y-82249500D01*
X67413461Y-82229815D01*
X67367706Y-82177011D01*
X67356500Y-82125500D01*
X67356500Y-38778500D01*
X67376185Y-38711461D01*
X67428989Y-38665706D01*
X67480500Y-38654500D01*
X72167813Y-38654500D01*
X72234852Y-38674185D01*
G37*
%TD.AperFunction*%
M02*
