%TF.GenerationSoftware,KiCad,Pcbnew,7.0.10*%
%TF.CreationDate,2024-02-11T00:06:51+01:00*%
%TF.ProjectId,ICOM-Internal-modules,49434f4d-2d49-46e7-9465-726e616c2d6d,rev?*%
%TF.SameCoordinates,Original*%
%TF.FileFunction,Soldermask,Top*%
%TF.FilePolarity,Negative*%
%FSLAX46Y46*%
G04 Gerber Fmt 4.6, Leading zero omitted, Abs format (unit mm)*
G04 Created by KiCad (PCBNEW 7.0.10) date 2024-02-11 00:06:51*
%MOMM*%
%LPD*%
G01*
G04 APERTURE LIST*
G04 Aperture macros list*
%AMRoundRect*
0 Rectangle with rounded corners*
0 $1 Rounding radius*
0 $2 $3 $4 $5 $6 $7 $8 $9 X,Y pos of 4 corners*
0 Add a 4 corners polygon primitive as box body*
4,1,4,$2,$3,$4,$5,$6,$7,$8,$9,$2,$3,0*
0 Add four circle primitives for the rounded corners*
1,1,$1+$1,$2,$3*
1,1,$1+$1,$4,$5*
1,1,$1+$1,$6,$7*
1,1,$1+$1,$8,$9*
0 Add four rect primitives between the rounded corners*
20,1,$1+$1,$2,$3,$4,$5,0*
20,1,$1+$1,$4,$5,$6,$7,0*
20,1,$1+$1,$6,$7,$8,$9,0*
20,1,$1+$1,$8,$9,$2,$3,0*%
G04 Aperture macros list end*
%ADD10RoundRect,0.102000X0.375000X-1.150000X0.375000X1.150000X-0.375000X1.150000X-0.375000X-1.150000X0*%
%ADD11RoundRect,0.102000X0.125000X-1.150000X0.125000X1.150000X-0.125000X1.150000X-0.125000X-1.150000X0*%
%ADD12C,0.500000*%
%ADD13R,0.508000X2.030000*%
%ADD14R,1.700000X1.700000*%
%ADD15O,1.700000X1.700000*%
G04 APERTURE END LIST*
D10*
%TO.C,J1*%
X74328000Y-47242000D03*
X74328000Y-43942000D03*
D11*
X75078000Y-47242000D03*
X75078000Y-43942000D03*
X75578000Y-47242000D03*
X75578000Y-43942000D03*
X76078000Y-47242000D03*
X76078000Y-43942000D03*
X76578000Y-47242000D03*
X76578000Y-43942000D03*
X77078000Y-47242000D03*
X77078000Y-43942000D03*
X77578000Y-47242000D03*
X77578000Y-43942000D03*
X78078000Y-47242000D03*
X78078000Y-43942000D03*
X78578000Y-47242000D03*
X78578000Y-43942000D03*
X79078000Y-47242000D03*
X79078000Y-43942000D03*
X79578000Y-47242000D03*
X79578000Y-43942000D03*
X80078000Y-47242000D03*
X80078000Y-43942000D03*
X80578000Y-47242000D03*
X80578000Y-43942000D03*
X81078000Y-47242000D03*
X81078000Y-43942000D03*
X81578000Y-47242000D03*
X81578000Y-43942000D03*
X82078000Y-47242000D03*
X82078000Y-43942000D03*
X82578000Y-47242000D03*
X82578000Y-43942000D03*
X83078000Y-47242000D03*
X83078000Y-43942000D03*
X83578000Y-47242000D03*
X83578000Y-43942000D03*
D10*
X84328000Y-47242000D03*
X84328000Y-43942000D03*
%TD*%
D12*
%TO.C,mouse-bite-2mm-slot*%
X91948000Y-64250000D03*
X93448000Y-64250000D03*
X91948000Y-63500000D03*
X93448000Y-63500000D03*
X91948000Y-62750000D03*
X93448000Y-62750000D03*
%TD*%
%TO.C,mouse-bite-2mm-slot*%
X91960000Y-43930000D03*
X93460000Y-43930000D03*
X91960000Y-43180000D03*
X93460000Y-43180000D03*
X91960000Y-42430000D03*
X93460000Y-42430000D03*
%TD*%
D13*
%TO.C,J6*%
X96952000Y-45592000D03*
X96952000Y-42292000D03*
X97752000Y-45592000D03*
X97752000Y-42292000D03*
X98552000Y-45592000D03*
X98552000Y-42292000D03*
X99352000Y-45592000D03*
X99352000Y-42292000D03*
X100152000Y-45592000D03*
X100152000Y-42292000D03*
%TD*%
D14*
%TO.C,J2*%
X69850000Y-55880000D03*
D15*
X69850000Y-58420000D03*
X69850000Y-60960000D03*
X69850000Y-63500000D03*
X69850000Y-66040000D03*
X69850000Y-68580000D03*
X69850000Y-71120000D03*
X69850000Y-73660000D03*
X69850000Y-76200000D03*
X69850000Y-78740000D03*
%TD*%
D14*
%TO.C,J4*%
X82550000Y-78740000D03*
D15*
X82550000Y-76200000D03*
X82550000Y-73660000D03*
X82550000Y-71120000D03*
X82550000Y-68580000D03*
X82550000Y-66040000D03*
X82550000Y-63500000D03*
X82550000Y-60960000D03*
X82550000Y-58420000D03*
X82550000Y-55880000D03*
%TD*%
D14*
%TO.C,J3*%
X76200000Y-55880000D03*
D15*
X76200000Y-58420000D03*
X76200000Y-60960000D03*
X76200000Y-63500000D03*
X76200000Y-66040000D03*
X76200000Y-68580000D03*
X76200000Y-71120000D03*
X76200000Y-73660000D03*
X76200000Y-76200000D03*
X76200000Y-78740000D03*
%TD*%
D14*
%TO.C,J7*%
X99568000Y-52557600D03*
D15*
X97028000Y-52557600D03*
X99568000Y-55097600D03*
X97028000Y-55097600D03*
X99568000Y-57637600D03*
X97028000Y-57637600D03*
X99568000Y-60177600D03*
X97028000Y-60177600D03*
X99568000Y-62717600D03*
X97028000Y-62717600D03*
%TD*%
D14*
%TO.C,J5*%
X88900000Y-78740000D03*
D15*
X88900000Y-76200000D03*
X88900000Y-73660000D03*
X88900000Y-71120000D03*
X88900000Y-68580000D03*
X88900000Y-66040000D03*
X88900000Y-63500000D03*
X88900000Y-60960000D03*
X88900000Y-58420000D03*
X88900000Y-55880000D03*
%TD*%
M02*
